%TF.GenerationSoftware,KiCad,Pcbnew,9.0.5*%
%TF.CreationDate,2026-02-10T19:42:18-07:00*%
%TF.ProjectId,Full Hydration Station,46756c6c-2048-4796-9472-6174696f6e20,rev?*%
%TF.SameCoordinates,Original*%
%TF.FileFunction,Legend,Top*%
%TF.FilePolarity,Positive*%
%FSLAX46Y46*%
G04 Gerber Fmt 4.6, Leading zero omitted, Abs format (unit mm)*
G04 Created by KiCad (PCBNEW 9.0.5) date 2026-02-10 19:42:18*
%MOMM*%
%LPD*%
G01*
G04 APERTURE LIST*
%ADD10C,0.150000*%
%ADD11C,0.100000*%
%ADD12C,0.120000*%
%ADD13C,0.127000*%
%ADD14C,0.200000*%
G04 APERTURE END LIST*
D10*
X91976779Y-120998866D02*
X92738684Y-120998866D01*
X92357731Y-121379819D02*
X92357731Y-120617914D01*
X101436779Y-120998866D02*
X102198684Y-120998866D01*
X101817731Y-121379819D02*
X101817731Y-120617914D01*
X110606779Y-120998866D02*
X111368684Y-120998866D01*
X110987731Y-121379819D02*
X110987731Y-120617914D01*
X175289160Y-82702200D02*
X175432017Y-82749819D01*
X175432017Y-82749819D02*
X175670112Y-82749819D01*
X175670112Y-82749819D02*
X175765350Y-82702200D01*
X175765350Y-82702200D02*
X175812969Y-82654580D01*
X175812969Y-82654580D02*
X175860588Y-82559342D01*
X175860588Y-82559342D02*
X175860588Y-82464104D01*
X175860588Y-82464104D02*
X175812969Y-82368866D01*
X175812969Y-82368866D02*
X175765350Y-82321247D01*
X175765350Y-82321247D02*
X175670112Y-82273628D01*
X175670112Y-82273628D02*
X175479636Y-82226009D01*
X175479636Y-82226009D02*
X175384398Y-82178390D01*
X175384398Y-82178390D02*
X175336779Y-82130771D01*
X175336779Y-82130771D02*
X175289160Y-82035533D01*
X175289160Y-82035533D02*
X175289160Y-81940295D01*
X175289160Y-81940295D02*
X175336779Y-81845057D01*
X175336779Y-81845057D02*
X175384398Y-81797438D01*
X175384398Y-81797438D02*
X175479636Y-81749819D01*
X175479636Y-81749819D02*
X175717731Y-81749819D01*
X175717731Y-81749819D02*
X175860588Y-81797438D01*
X176432017Y-82749819D02*
X176336779Y-82702200D01*
X176336779Y-82702200D02*
X176289160Y-82654580D01*
X176289160Y-82654580D02*
X176241541Y-82559342D01*
X176241541Y-82559342D02*
X176241541Y-82273628D01*
X176241541Y-82273628D02*
X176289160Y-82178390D01*
X176289160Y-82178390D02*
X176336779Y-82130771D01*
X176336779Y-82130771D02*
X176432017Y-82083152D01*
X176432017Y-82083152D02*
X176574874Y-82083152D01*
X176574874Y-82083152D02*
X176670112Y-82130771D01*
X176670112Y-82130771D02*
X176717731Y-82178390D01*
X176717731Y-82178390D02*
X176765350Y-82273628D01*
X176765350Y-82273628D02*
X176765350Y-82559342D01*
X176765350Y-82559342D02*
X176717731Y-82654580D01*
X176717731Y-82654580D02*
X176670112Y-82702200D01*
X176670112Y-82702200D02*
X176574874Y-82749819D01*
X176574874Y-82749819D02*
X176432017Y-82749819D01*
X177622493Y-82749819D02*
X177622493Y-82226009D01*
X177622493Y-82226009D02*
X177574874Y-82130771D01*
X177574874Y-82130771D02*
X177479636Y-82083152D01*
X177479636Y-82083152D02*
X177289160Y-82083152D01*
X177289160Y-82083152D02*
X177193922Y-82130771D01*
X177622493Y-82702200D02*
X177527255Y-82749819D01*
X177527255Y-82749819D02*
X177289160Y-82749819D01*
X177289160Y-82749819D02*
X177193922Y-82702200D01*
X177193922Y-82702200D02*
X177146303Y-82606961D01*
X177146303Y-82606961D02*
X177146303Y-82511723D01*
X177146303Y-82511723D02*
X177193922Y-82416485D01*
X177193922Y-82416485D02*
X177289160Y-82368866D01*
X177289160Y-82368866D02*
X177527255Y-82368866D01*
X177527255Y-82368866D02*
X177622493Y-82321247D01*
X178098684Y-82083152D02*
X178098684Y-83083152D01*
X178098684Y-82130771D02*
X178193922Y-82083152D01*
X178193922Y-82083152D02*
X178384398Y-82083152D01*
X178384398Y-82083152D02*
X178479636Y-82130771D01*
X178479636Y-82130771D02*
X178527255Y-82178390D01*
X178527255Y-82178390D02*
X178574874Y-82273628D01*
X178574874Y-82273628D02*
X178574874Y-82559342D01*
X178574874Y-82559342D02*
X178527255Y-82654580D01*
X178527255Y-82654580D02*
X178479636Y-82702200D01*
X178479636Y-82702200D02*
X178384398Y-82749819D01*
X178384398Y-82749819D02*
X178193922Y-82749819D01*
X178193922Y-82749819D02*
X178098684Y-82702200D01*
X175231541Y-60379819D02*
X175469636Y-61379819D01*
X175469636Y-61379819D02*
X175660112Y-60665533D01*
X175660112Y-60665533D02*
X175850588Y-61379819D01*
X175850588Y-61379819D02*
X176088684Y-60379819D01*
X176898207Y-61379819D02*
X176898207Y-60856009D01*
X176898207Y-60856009D02*
X176850588Y-60760771D01*
X176850588Y-60760771D02*
X176755350Y-60713152D01*
X176755350Y-60713152D02*
X176564874Y-60713152D01*
X176564874Y-60713152D02*
X176469636Y-60760771D01*
X176898207Y-61332200D02*
X176802969Y-61379819D01*
X176802969Y-61379819D02*
X176564874Y-61379819D01*
X176564874Y-61379819D02*
X176469636Y-61332200D01*
X176469636Y-61332200D02*
X176422017Y-61236961D01*
X176422017Y-61236961D02*
X176422017Y-61141723D01*
X176422017Y-61141723D02*
X176469636Y-61046485D01*
X176469636Y-61046485D02*
X176564874Y-60998866D01*
X176564874Y-60998866D02*
X176802969Y-60998866D01*
X176802969Y-60998866D02*
X176898207Y-60951247D01*
X177231541Y-60713152D02*
X177612493Y-60713152D01*
X177374398Y-60379819D02*
X177374398Y-61236961D01*
X177374398Y-61236961D02*
X177422017Y-61332200D01*
X177422017Y-61332200D02*
X177517255Y-61379819D01*
X177517255Y-61379819D02*
X177612493Y-61379819D01*
X178326779Y-61332200D02*
X178231541Y-61379819D01*
X178231541Y-61379819D02*
X178041065Y-61379819D01*
X178041065Y-61379819D02*
X177945827Y-61332200D01*
X177945827Y-61332200D02*
X177898208Y-61236961D01*
X177898208Y-61236961D02*
X177898208Y-60856009D01*
X177898208Y-60856009D02*
X177945827Y-60760771D01*
X177945827Y-60760771D02*
X178041065Y-60713152D01*
X178041065Y-60713152D02*
X178231541Y-60713152D01*
X178231541Y-60713152D02*
X178326779Y-60760771D01*
X178326779Y-60760771D02*
X178374398Y-60856009D01*
X178374398Y-60856009D02*
X178374398Y-60951247D01*
X178374398Y-60951247D02*
X177898208Y-61046485D01*
X178802970Y-61379819D02*
X178802970Y-60713152D01*
X178802970Y-60903628D02*
X178850589Y-60808390D01*
X178850589Y-60808390D02*
X178898208Y-60760771D01*
X178898208Y-60760771D02*
X178993446Y-60713152D01*
X178993446Y-60713152D02*
X179088684Y-60713152D01*
X108982969Y-99399819D02*
X108506779Y-99399819D01*
X108506779Y-99399819D02*
X108506779Y-98399819D01*
X109887731Y-99304580D02*
X109840112Y-99352200D01*
X109840112Y-99352200D02*
X109697255Y-99399819D01*
X109697255Y-99399819D02*
X109602017Y-99399819D01*
X109602017Y-99399819D02*
X109459160Y-99352200D01*
X109459160Y-99352200D02*
X109363922Y-99256961D01*
X109363922Y-99256961D02*
X109316303Y-99161723D01*
X109316303Y-99161723D02*
X109268684Y-98971247D01*
X109268684Y-98971247D02*
X109268684Y-98828390D01*
X109268684Y-98828390D02*
X109316303Y-98637914D01*
X109316303Y-98637914D02*
X109363922Y-98542676D01*
X109363922Y-98542676D02*
X109459160Y-98447438D01*
X109459160Y-98447438D02*
X109602017Y-98399819D01*
X109602017Y-98399819D02*
X109697255Y-98399819D01*
X109697255Y-98399819D02*
X109840112Y-98447438D01*
X109840112Y-98447438D02*
X109887731Y-98495057D01*
X110316303Y-99399819D02*
X110316303Y-98399819D01*
X110316303Y-98399819D02*
X110554398Y-98399819D01*
X110554398Y-98399819D02*
X110697255Y-98447438D01*
X110697255Y-98447438D02*
X110792493Y-98542676D01*
X110792493Y-98542676D02*
X110840112Y-98637914D01*
X110840112Y-98637914D02*
X110887731Y-98828390D01*
X110887731Y-98828390D02*
X110887731Y-98971247D01*
X110887731Y-98971247D02*
X110840112Y-99161723D01*
X110840112Y-99161723D02*
X110792493Y-99256961D01*
X110792493Y-99256961D02*
X110697255Y-99352200D01*
X110697255Y-99352200D02*
X110554398Y-99399819D01*
X110554398Y-99399819D02*
X110316303Y-99399819D01*
X131731541Y-104929819D02*
X131969636Y-105929819D01*
X131969636Y-105929819D02*
X132160112Y-105215533D01*
X132160112Y-105215533D02*
X132350588Y-105929819D01*
X132350588Y-105929819D02*
X132588684Y-104929819D01*
X133398207Y-105929819D02*
X133398207Y-105406009D01*
X133398207Y-105406009D02*
X133350588Y-105310771D01*
X133350588Y-105310771D02*
X133255350Y-105263152D01*
X133255350Y-105263152D02*
X133064874Y-105263152D01*
X133064874Y-105263152D02*
X132969636Y-105310771D01*
X133398207Y-105882200D02*
X133302969Y-105929819D01*
X133302969Y-105929819D02*
X133064874Y-105929819D01*
X133064874Y-105929819D02*
X132969636Y-105882200D01*
X132969636Y-105882200D02*
X132922017Y-105786961D01*
X132922017Y-105786961D02*
X132922017Y-105691723D01*
X132922017Y-105691723D02*
X132969636Y-105596485D01*
X132969636Y-105596485D02*
X133064874Y-105548866D01*
X133064874Y-105548866D02*
X133302969Y-105548866D01*
X133302969Y-105548866D02*
X133398207Y-105501247D01*
X133731541Y-105263152D02*
X134112493Y-105263152D01*
X133874398Y-104929819D02*
X133874398Y-105786961D01*
X133874398Y-105786961D02*
X133922017Y-105882200D01*
X133922017Y-105882200D02*
X134017255Y-105929819D01*
X134017255Y-105929819D02*
X134112493Y-105929819D01*
X134826779Y-105882200D02*
X134731541Y-105929819D01*
X134731541Y-105929819D02*
X134541065Y-105929819D01*
X134541065Y-105929819D02*
X134445827Y-105882200D01*
X134445827Y-105882200D02*
X134398208Y-105786961D01*
X134398208Y-105786961D02*
X134398208Y-105406009D01*
X134398208Y-105406009D02*
X134445827Y-105310771D01*
X134445827Y-105310771D02*
X134541065Y-105263152D01*
X134541065Y-105263152D02*
X134731541Y-105263152D01*
X134731541Y-105263152D02*
X134826779Y-105310771D01*
X134826779Y-105310771D02*
X134874398Y-105406009D01*
X134874398Y-105406009D02*
X134874398Y-105501247D01*
X134874398Y-105501247D02*
X134398208Y-105596485D01*
X135302970Y-105929819D02*
X135302970Y-105263152D01*
X135302970Y-105453628D02*
X135350589Y-105358390D01*
X135350589Y-105358390D02*
X135398208Y-105310771D01*
X135398208Y-105310771D02*
X135493446Y-105263152D01*
X135493446Y-105263152D02*
X135588684Y-105263152D01*
X137017256Y-105406009D02*
X136683923Y-105406009D01*
X136683923Y-105929819D02*
X136683923Y-104929819D01*
X136683923Y-104929819D02*
X137160113Y-104929819D01*
X137683923Y-105929819D02*
X137588685Y-105882200D01*
X137588685Y-105882200D02*
X137541066Y-105786961D01*
X137541066Y-105786961D02*
X137541066Y-104929819D01*
X138207733Y-105929819D02*
X138112495Y-105882200D01*
X138112495Y-105882200D02*
X138064876Y-105834580D01*
X138064876Y-105834580D02*
X138017257Y-105739342D01*
X138017257Y-105739342D02*
X138017257Y-105453628D01*
X138017257Y-105453628D02*
X138064876Y-105358390D01*
X138064876Y-105358390D02*
X138112495Y-105310771D01*
X138112495Y-105310771D02*
X138207733Y-105263152D01*
X138207733Y-105263152D02*
X138350590Y-105263152D01*
X138350590Y-105263152D02*
X138445828Y-105310771D01*
X138445828Y-105310771D02*
X138493447Y-105358390D01*
X138493447Y-105358390D02*
X138541066Y-105453628D01*
X138541066Y-105453628D02*
X138541066Y-105739342D01*
X138541066Y-105739342D02*
X138493447Y-105834580D01*
X138493447Y-105834580D02*
X138445828Y-105882200D01*
X138445828Y-105882200D02*
X138350590Y-105929819D01*
X138350590Y-105929819D02*
X138207733Y-105929819D01*
X138874400Y-105263152D02*
X139064876Y-105929819D01*
X139064876Y-105929819D02*
X139255352Y-105453628D01*
X139255352Y-105453628D02*
X139445828Y-105929819D01*
X139445828Y-105929819D02*
X139636304Y-105263152D01*
X140731543Y-105882200D02*
X140874400Y-105929819D01*
X140874400Y-105929819D02*
X141112495Y-105929819D01*
X141112495Y-105929819D02*
X141207733Y-105882200D01*
X141207733Y-105882200D02*
X141255352Y-105834580D01*
X141255352Y-105834580D02*
X141302971Y-105739342D01*
X141302971Y-105739342D02*
X141302971Y-105644104D01*
X141302971Y-105644104D02*
X141255352Y-105548866D01*
X141255352Y-105548866D02*
X141207733Y-105501247D01*
X141207733Y-105501247D02*
X141112495Y-105453628D01*
X141112495Y-105453628D02*
X140922019Y-105406009D01*
X140922019Y-105406009D02*
X140826781Y-105358390D01*
X140826781Y-105358390D02*
X140779162Y-105310771D01*
X140779162Y-105310771D02*
X140731543Y-105215533D01*
X140731543Y-105215533D02*
X140731543Y-105120295D01*
X140731543Y-105120295D02*
X140779162Y-105025057D01*
X140779162Y-105025057D02*
X140826781Y-104977438D01*
X140826781Y-104977438D02*
X140922019Y-104929819D01*
X140922019Y-104929819D02*
X141160114Y-104929819D01*
X141160114Y-104929819D02*
X141302971Y-104977438D01*
X142112495Y-105882200D02*
X142017257Y-105929819D01*
X142017257Y-105929819D02*
X141826781Y-105929819D01*
X141826781Y-105929819D02*
X141731543Y-105882200D01*
X141731543Y-105882200D02*
X141683924Y-105786961D01*
X141683924Y-105786961D02*
X141683924Y-105406009D01*
X141683924Y-105406009D02*
X141731543Y-105310771D01*
X141731543Y-105310771D02*
X141826781Y-105263152D01*
X141826781Y-105263152D02*
X142017257Y-105263152D01*
X142017257Y-105263152D02*
X142112495Y-105310771D01*
X142112495Y-105310771D02*
X142160114Y-105406009D01*
X142160114Y-105406009D02*
X142160114Y-105501247D01*
X142160114Y-105501247D02*
X141683924Y-105596485D01*
X142588686Y-105263152D02*
X142588686Y-105929819D01*
X142588686Y-105358390D02*
X142636305Y-105310771D01*
X142636305Y-105310771D02*
X142731543Y-105263152D01*
X142731543Y-105263152D02*
X142874400Y-105263152D01*
X142874400Y-105263152D02*
X142969638Y-105310771D01*
X142969638Y-105310771D02*
X143017257Y-105406009D01*
X143017257Y-105406009D02*
X143017257Y-105929819D01*
X143445829Y-105882200D02*
X143541067Y-105929819D01*
X143541067Y-105929819D02*
X143731543Y-105929819D01*
X143731543Y-105929819D02*
X143826781Y-105882200D01*
X143826781Y-105882200D02*
X143874400Y-105786961D01*
X143874400Y-105786961D02*
X143874400Y-105739342D01*
X143874400Y-105739342D02*
X143826781Y-105644104D01*
X143826781Y-105644104D02*
X143731543Y-105596485D01*
X143731543Y-105596485D02*
X143588686Y-105596485D01*
X143588686Y-105596485D02*
X143493448Y-105548866D01*
X143493448Y-105548866D02*
X143445829Y-105453628D01*
X143445829Y-105453628D02*
X143445829Y-105406009D01*
X143445829Y-105406009D02*
X143493448Y-105310771D01*
X143493448Y-105310771D02*
X143588686Y-105263152D01*
X143588686Y-105263152D02*
X143731543Y-105263152D01*
X143731543Y-105263152D02*
X143826781Y-105310771D01*
X144445829Y-105929819D02*
X144350591Y-105882200D01*
X144350591Y-105882200D02*
X144302972Y-105834580D01*
X144302972Y-105834580D02*
X144255353Y-105739342D01*
X144255353Y-105739342D02*
X144255353Y-105453628D01*
X144255353Y-105453628D02*
X144302972Y-105358390D01*
X144302972Y-105358390D02*
X144350591Y-105310771D01*
X144350591Y-105310771D02*
X144445829Y-105263152D01*
X144445829Y-105263152D02*
X144588686Y-105263152D01*
X144588686Y-105263152D02*
X144683924Y-105310771D01*
X144683924Y-105310771D02*
X144731543Y-105358390D01*
X144731543Y-105358390D02*
X144779162Y-105453628D01*
X144779162Y-105453628D02*
X144779162Y-105739342D01*
X144779162Y-105739342D02*
X144731543Y-105834580D01*
X144731543Y-105834580D02*
X144683924Y-105882200D01*
X144683924Y-105882200D02*
X144588686Y-105929819D01*
X144588686Y-105929819D02*
X144445829Y-105929819D01*
X145207734Y-105929819D02*
X145207734Y-105263152D01*
X145207734Y-105453628D02*
X145255353Y-105358390D01*
X145255353Y-105358390D02*
X145302972Y-105310771D01*
X145302972Y-105310771D02*
X145398210Y-105263152D01*
X145398210Y-105263152D02*
X145493448Y-105263152D01*
X170296779Y-121859819D02*
X170296779Y-120859819D01*
X170296779Y-120859819D02*
X170534874Y-120859819D01*
X170534874Y-120859819D02*
X170677731Y-120907438D01*
X170677731Y-120907438D02*
X170772969Y-121002676D01*
X170772969Y-121002676D02*
X170820588Y-121097914D01*
X170820588Y-121097914D02*
X170868207Y-121288390D01*
X170868207Y-121288390D02*
X170868207Y-121431247D01*
X170868207Y-121431247D02*
X170820588Y-121621723D01*
X170820588Y-121621723D02*
X170772969Y-121716961D01*
X170772969Y-121716961D02*
X170677731Y-121812200D01*
X170677731Y-121812200D02*
X170534874Y-121859819D01*
X170534874Y-121859819D02*
X170296779Y-121859819D01*
X171439636Y-121859819D02*
X171344398Y-121812200D01*
X171344398Y-121812200D02*
X171296779Y-121764580D01*
X171296779Y-121764580D02*
X171249160Y-121669342D01*
X171249160Y-121669342D02*
X171249160Y-121383628D01*
X171249160Y-121383628D02*
X171296779Y-121288390D01*
X171296779Y-121288390D02*
X171344398Y-121240771D01*
X171344398Y-121240771D02*
X171439636Y-121193152D01*
X171439636Y-121193152D02*
X171582493Y-121193152D01*
X171582493Y-121193152D02*
X171677731Y-121240771D01*
X171677731Y-121240771D02*
X171725350Y-121288390D01*
X171725350Y-121288390D02*
X171772969Y-121383628D01*
X171772969Y-121383628D02*
X171772969Y-121669342D01*
X171772969Y-121669342D02*
X171725350Y-121764580D01*
X171725350Y-121764580D02*
X171677731Y-121812200D01*
X171677731Y-121812200D02*
X171582493Y-121859819D01*
X171582493Y-121859819D02*
X171439636Y-121859819D01*
X172344398Y-121859819D02*
X172249160Y-121812200D01*
X172249160Y-121812200D02*
X172201541Y-121764580D01*
X172201541Y-121764580D02*
X172153922Y-121669342D01*
X172153922Y-121669342D02*
X172153922Y-121383628D01*
X172153922Y-121383628D02*
X172201541Y-121288390D01*
X172201541Y-121288390D02*
X172249160Y-121240771D01*
X172249160Y-121240771D02*
X172344398Y-121193152D01*
X172344398Y-121193152D02*
X172487255Y-121193152D01*
X172487255Y-121193152D02*
X172582493Y-121240771D01*
X172582493Y-121240771D02*
X172630112Y-121288390D01*
X172630112Y-121288390D02*
X172677731Y-121383628D01*
X172677731Y-121383628D02*
X172677731Y-121669342D01*
X172677731Y-121669342D02*
X172630112Y-121764580D01*
X172630112Y-121764580D02*
X172582493Y-121812200D01*
X172582493Y-121812200D02*
X172487255Y-121859819D01*
X172487255Y-121859819D02*
X172344398Y-121859819D01*
X173106303Y-121859819D02*
X173106303Y-121193152D01*
X173106303Y-121383628D02*
X173153922Y-121288390D01*
X173153922Y-121288390D02*
X173201541Y-121240771D01*
X173201541Y-121240771D02*
X173296779Y-121193152D01*
X173296779Y-121193152D02*
X173392017Y-121193152D01*
X174439637Y-121812200D02*
X174582494Y-121859819D01*
X174582494Y-121859819D02*
X174820589Y-121859819D01*
X174820589Y-121859819D02*
X174915827Y-121812200D01*
X174915827Y-121812200D02*
X174963446Y-121764580D01*
X174963446Y-121764580D02*
X175011065Y-121669342D01*
X175011065Y-121669342D02*
X175011065Y-121574104D01*
X175011065Y-121574104D02*
X174963446Y-121478866D01*
X174963446Y-121478866D02*
X174915827Y-121431247D01*
X174915827Y-121431247D02*
X174820589Y-121383628D01*
X174820589Y-121383628D02*
X174630113Y-121336009D01*
X174630113Y-121336009D02*
X174534875Y-121288390D01*
X174534875Y-121288390D02*
X174487256Y-121240771D01*
X174487256Y-121240771D02*
X174439637Y-121145533D01*
X174439637Y-121145533D02*
X174439637Y-121050295D01*
X174439637Y-121050295D02*
X174487256Y-120955057D01*
X174487256Y-120955057D02*
X174534875Y-120907438D01*
X174534875Y-120907438D02*
X174630113Y-120859819D01*
X174630113Y-120859819D02*
X174868208Y-120859819D01*
X174868208Y-120859819D02*
X175011065Y-120907438D01*
X175820589Y-121812200D02*
X175725351Y-121859819D01*
X175725351Y-121859819D02*
X175534875Y-121859819D01*
X175534875Y-121859819D02*
X175439637Y-121812200D01*
X175439637Y-121812200D02*
X175392018Y-121716961D01*
X175392018Y-121716961D02*
X175392018Y-121336009D01*
X175392018Y-121336009D02*
X175439637Y-121240771D01*
X175439637Y-121240771D02*
X175534875Y-121193152D01*
X175534875Y-121193152D02*
X175725351Y-121193152D01*
X175725351Y-121193152D02*
X175820589Y-121240771D01*
X175820589Y-121240771D02*
X175868208Y-121336009D01*
X175868208Y-121336009D02*
X175868208Y-121431247D01*
X175868208Y-121431247D02*
X175392018Y-121526485D01*
X176296780Y-121193152D02*
X176296780Y-121859819D01*
X176296780Y-121288390D02*
X176344399Y-121240771D01*
X176344399Y-121240771D02*
X176439637Y-121193152D01*
X176439637Y-121193152D02*
X176582494Y-121193152D01*
X176582494Y-121193152D02*
X176677732Y-121240771D01*
X176677732Y-121240771D02*
X176725351Y-121336009D01*
X176725351Y-121336009D02*
X176725351Y-121859819D01*
X177153923Y-121812200D02*
X177249161Y-121859819D01*
X177249161Y-121859819D02*
X177439637Y-121859819D01*
X177439637Y-121859819D02*
X177534875Y-121812200D01*
X177534875Y-121812200D02*
X177582494Y-121716961D01*
X177582494Y-121716961D02*
X177582494Y-121669342D01*
X177582494Y-121669342D02*
X177534875Y-121574104D01*
X177534875Y-121574104D02*
X177439637Y-121526485D01*
X177439637Y-121526485D02*
X177296780Y-121526485D01*
X177296780Y-121526485D02*
X177201542Y-121478866D01*
X177201542Y-121478866D02*
X177153923Y-121383628D01*
X177153923Y-121383628D02*
X177153923Y-121336009D01*
X177153923Y-121336009D02*
X177201542Y-121240771D01*
X177201542Y-121240771D02*
X177296780Y-121193152D01*
X177296780Y-121193152D02*
X177439637Y-121193152D01*
X177439637Y-121193152D02*
X177534875Y-121240771D01*
X178153923Y-121859819D02*
X178058685Y-121812200D01*
X178058685Y-121812200D02*
X178011066Y-121764580D01*
X178011066Y-121764580D02*
X177963447Y-121669342D01*
X177963447Y-121669342D02*
X177963447Y-121383628D01*
X177963447Y-121383628D02*
X178011066Y-121288390D01*
X178011066Y-121288390D02*
X178058685Y-121240771D01*
X178058685Y-121240771D02*
X178153923Y-121193152D01*
X178153923Y-121193152D02*
X178296780Y-121193152D01*
X178296780Y-121193152D02*
X178392018Y-121240771D01*
X178392018Y-121240771D02*
X178439637Y-121288390D01*
X178439637Y-121288390D02*
X178487256Y-121383628D01*
X178487256Y-121383628D02*
X178487256Y-121669342D01*
X178487256Y-121669342D02*
X178439637Y-121764580D01*
X178439637Y-121764580D02*
X178392018Y-121812200D01*
X178392018Y-121812200D02*
X178296780Y-121859819D01*
X178296780Y-121859819D02*
X178153923Y-121859819D01*
X178915828Y-121859819D02*
X178915828Y-121193152D01*
X178915828Y-121383628D02*
X178963447Y-121288390D01*
X178963447Y-121288390D02*
X179011066Y-121240771D01*
X179011066Y-121240771D02*
X179106304Y-121193152D01*
X179106304Y-121193152D02*
X179201542Y-121193152D01*
X154961541Y-120859819D02*
X155199636Y-121859819D01*
X155199636Y-121859819D02*
X155390112Y-121145533D01*
X155390112Y-121145533D02*
X155580588Y-121859819D01*
X155580588Y-121859819D02*
X155818684Y-120859819D01*
X156580588Y-121812200D02*
X156485350Y-121859819D01*
X156485350Y-121859819D02*
X156294874Y-121859819D01*
X156294874Y-121859819D02*
X156199636Y-121812200D01*
X156199636Y-121812200D02*
X156152017Y-121716961D01*
X156152017Y-121716961D02*
X156152017Y-121336009D01*
X156152017Y-121336009D02*
X156199636Y-121240771D01*
X156199636Y-121240771D02*
X156294874Y-121193152D01*
X156294874Y-121193152D02*
X156485350Y-121193152D01*
X156485350Y-121193152D02*
X156580588Y-121240771D01*
X156580588Y-121240771D02*
X156628207Y-121336009D01*
X156628207Y-121336009D02*
X156628207Y-121431247D01*
X156628207Y-121431247D02*
X156152017Y-121526485D01*
X157056779Y-121859819D02*
X157056779Y-121193152D01*
X157056779Y-120859819D02*
X157009160Y-120907438D01*
X157009160Y-120907438D02*
X157056779Y-120955057D01*
X157056779Y-120955057D02*
X157104398Y-120907438D01*
X157104398Y-120907438D02*
X157056779Y-120859819D01*
X157056779Y-120859819D02*
X157056779Y-120955057D01*
X157961540Y-121193152D02*
X157961540Y-122002676D01*
X157961540Y-122002676D02*
X157913921Y-122097914D01*
X157913921Y-122097914D02*
X157866302Y-122145533D01*
X157866302Y-122145533D02*
X157771064Y-122193152D01*
X157771064Y-122193152D02*
X157628207Y-122193152D01*
X157628207Y-122193152D02*
X157532969Y-122145533D01*
X157961540Y-121812200D02*
X157866302Y-121859819D01*
X157866302Y-121859819D02*
X157675826Y-121859819D01*
X157675826Y-121859819D02*
X157580588Y-121812200D01*
X157580588Y-121812200D02*
X157532969Y-121764580D01*
X157532969Y-121764580D02*
X157485350Y-121669342D01*
X157485350Y-121669342D02*
X157485350Y-121383628D01*
X157485350Y-121383628D02*
X157532969Y-121288390D01*
X157532969Y-121288390D02*
X157580588Y-121240771D01*
X157580588Y-121240771D02*
X157675826Y-121193152D01*
X157675826Y-121193152D02*
X157866302Y-121193152D01*
X157866302Y-121193152D02*
X157961540Y-121240771D01*
X158437731Y-121859819D02*
X158437731Y-120859819D01*
X158866302Y-121859819D02*
X158866302Y-121336009D01*
X158866302Y-121336009D02*
X158818683Y-121240771D01*
X158818683Y-121240771D02*
X158723445Y-121193152D01*
X158723445Y-121193152D02*
X158580588Y-121193152D01*
X158580588Y-121193152D02*
X158485350Y-121240771D01*
X158485350Y-121240771D02*
X158437731Y-121288390D01*
X159199636Y-121193152D02*
X159580588Y-121193152D01*
X159342493Y-120859819D02*
X159342493Y-121716961D01*
X159342493Y-121716961D02*
X159390112Y-121812200D01*
X159390112Y-121812200D02*
X159485350Y-121859819D01*
X159485350Y-121859819D02*
X159580588Y-121859819D01*
X160628208Y-121812200D02*
X160771065Y-121859819D01*
X160771065Y-121859819D02*
X161009160Y-121859819D01*
X161009160Y-121859819D02*
X161104398Y-121812200D01*
X161104398Y-121812200D02*
X161152017Y-121764580D01*
X161152017Y-121764580D02*
X161199636Y-121669342D01*
X161199636Y-121669342D02*
X161199636Y-121574104D01*
X161199636Y-121574104D02*
X161152017Y-121478866D01*
X161152017Y-121478866D02*
X161104398Y-121431247D01*
X161104398Y-121431247D02*
X161009160Y-121383628D01*
X161009160Y-121383628D02*
X160818684Y-121336009D01*
X160818684Y-121336009D02*
X160723446Y-121288390D01*
X160723446Y-121288390D02*
X160675827Y-121240771D01*
X160675827Y-121240771D02*
X160628208Y-121145533D01*
X160628208Y-121145533D02*
X160628208Y-121050295D01*
X160628208Y-121050295D02*
X160675827Y-120955057D01*
X160675827Y-120955057D02*
X160723446Y-120907438D01*
X160723446Y-120907438D02*
X160818684Y-120859819D01*
X160818684Y-120859819D02*
X161056779Y-120859819D01*
X161056779Y-120859819D02*
X161199636Y-120907438D01*
X162009160Y-121812200D02*
X161913922Y-121859819D01*
X161913922Y-121859819D02*
X161723446Y-121859819D01*
X161723446Y-121859819D02*
X161628208Y-121812200D01*
X161628208Y-121812200D02*
X161580589Y-121716961D01*
X161580589Y-121716961D02*
X161580589Y-121336009D01*
X161580589Y-121336009D02*
X161628208Y-121240771D01*
X161628208Y-121240771D02*
X161723446Y-121193152D01*
X161723446Y-121193152D02*
X161913922Y-121193152D01*
X161913922Y-121193152D02*
X162009160Y-121240771D01*
X162009160Y-121240771D02*
X162056779Y-121336009D01*
X162056779Y-121336009D02*
X162056779Y-121431247D01*
X162056779Y-121431247D02*
X161580589Y-121526485D01*
X162485351Y-121193152D02*
X162485351Y-121859819D01*
X162485351Y-121288390D02*
X162532970Y-121240771D01*
X162532970Y-121240771D02*
X162628208Y-121193152D01*
X162628208Y-121193152D02*
X162771065Y-121193152D01*
X162771065Y-121193152D02*
X162866303Y-121240771D01*
X162866303Y-121240771D02*
X162913922Y-121336009D01*
X162913922Y-121336009D02*
X162913922Y-121859819D01*
X163342494Y-121812200D02*
X163437732Y-121859819D01*
X163437732Y-121859819D02*
X163628208Y-121859819D01*
X163628208Y-121859819D02*
X163723446Y-121812200D01*
X163723446Y-121812200D02*
X163771065Y-121716961D01*
X163771065Y-121716961D02*
X163771065Y-121669342D01*
X163771065Y-121669342D02*
X163723446Y-121574104D01*
X163723446Y-121574104D02*
X163628208Y-121526485D01*
X163628208Y-121526485D02*
X163485351Y-121526485D01*
X163485351Y-121526485D02*
X163390113Y-121478866D01*
X163390113Y-121478866D02*
X163342494Y-121383628D01*
X163342494Y-121383628D02*
X163342494Y-121336009D01*
X163342494Y-121336009D02*
X163390113Y-121240771D01*
X163390113Y-121240771D02*
X163485351Y-121193152D01*
X163485351Y-121193152D02*
X163628208Y-121193152D01*
X163628208Y-121193152D02*
X163723446Y-121240771D01*
X164342494Y-121859819D02*
X164247256Y-121812200D01*
X164247256Y-121812200D02*
X164199637Y-121764580D01*
X164199637Y-121764580D02*
X164152018Y-121669342D01*
X164152018Y-121669342D02*
X164152018Y-121383628D01*
X164152018Y-121383628D02*
X164199637Y-121288390D01*
X164199637Y-121288390D02*
X164247256Y-121240771D01*
X164247256Y-121240771D02*
X164342494Y-121193152D01*
X164342494Y-121193152D02*
X164485351Y-121193152D01*
X164485351Y-121193152D02*
X164580589Y-121240771D01*
X164580589Y-121240771D02*
X164628208Y-121288390D01*
X164628208Y-121288390D02*
X164675827Y-121383628D01*
X164675827Y-121383628D02*
X164675827Y-121669342D01*
X164675827Y-121669342D02*
X164628208Y-121764580D01*
X164628208Y-121764580D02*
X164580589Y-121812200D01*
X164580589Y-121812200D02*
X164485351Y-121859819D01*
X164485351Y-121859819D02*
X164342494Y-121859819D01*
X165104399Y-121859819D02*
X165104399Y-121193152D01*
X165104399Y-121383628D02*
X165152018Y-121288390D01*
X165152018Y-121288390D02*
X165199637Y-121240771D01*
X165199637Y-121240771D02*
X165294875Y-121193152D01*
X165294875Y-121193152D02*
X165390113Y-121193152D01*
X128341065Y-122019819D02*
X128341065Y-121019819D01*
X128341065Y-121019819D02*
X128579160Y-121019819D01*
X128579160Y-121019819D02*
X128722017Y-121067438D01*
X128722017Y-121067438D02*
X128817255Y-121162676D01*
X128817255Y-121162676D02*
X128864874Y-121257914D01*
X128864874Y-121257914D02*
X128912493Y-121448390D01*
X128912493Y-121448390D02*
X128912493Y-121591247D01*
X128912493Y-121591247D02*
X128864874Y-121781723D01*
X128864874Y-121781723D02*
X128817255Y-121876961D01*
X128817255Y-121876961D02*
X128722017Y-121972200D01*
X128722017Y-121972200D02*
X128579160Y-122019819D01*
X128579160Y-122019819D02*
X128341065Y-122019819D01*
X129722017Y-121972200D02*
X129626779Y-122019819D01*
X129626779Y-122019819D02*
X129436303Y-122019819D01*
X129436303Y-122019819D02*
X129341065Y-121972200D01*
X129341065Y-121972200D02*
X129293446Y-121876961D01*
X129293446Y-121876961D02*
X129293446Y-121496009D01*
X129293446Y-121496009D02*
X129341065Y-121400771D01*
X129341065Y-121400771D02*
X129436303Y-121353152D01*
X129436303Y-121353152D02*
X129626779Y-121353152D01*
X129626779Y-121353152D02*
X129722017Y-121400771D01*
X129722017Y-121400771D02*
X129769636Y-121496009D01*
X129769636Y-121496009D02*
X129769636Y-121591247D01*
X129769636Y-121591247D02*
X129293446Y-121686485D01*
X130198208Y-122019819D02*
X130198208Y-121019819D01*
X130198208Y-121400771D02*
X130293446Y-121353152D01*
X130293446Y-121353152D02*
X130483922Y-121353152D01*
X130483922Y-121353152D02*
X130579160Y-121400771D01*
X130579160Y-121400771D02*
X130626779Y-121448390D01*
X130626779Y-121448390D02*
X130674398Y-121543628D01*
X130674398Y-121543628D02*
X130674398Y-121829342D01*
X130674398Y-121829342D02*
X130626779Y-121924580D01*
X130626779Y-121924580D02*
X130579160Y-121972200D01*
X130579160Y-121972200D02*
X130483922Y-122019819D01*
X130483922Y-122019819D02*
X130293446Y-122019819D01*
X130293446Y-122019819D02*
X130198208Y-121972200D01*
X131531541Y-121353152D02*
X131531541Y-122019819D01*
X131102970Y-121353152D02*
X131102970Y-121876961D01*
X131102970Y-121876961D02*
X131150589Y-121972200D01*
X131150589Y-121972200D02*
X131245827Y-122019819D01*
X131245827Y-122019819D02*
X131388684Y-122019819D01*
X131388684Y-122019819D02*
X131483922Y-121972200D01*
X131483922Y-121972200D02*
X131531541Y-121924580D01*
X132436303Y-121353152D02*
X132436303Y-122162676D01*
X132436303Y-122162676D02*
X132388684Y-122257914D01*
X132388684Y-122257914D02*
X132341065Y-122305533D01*
X132341065Y-122305533D02*
X132245827Y-122353152D01*
X132245827Y-122353152D02*
X132102970Y-122353152D01*
X132102970Y-122353152D02*
X132007732Y-122305533D01*
X132436303Y-121972200D02*
X132341065Y-122019819D01*
X132341065Y-122019819D02*
X132150589Y-122019819D01*
X132150589Y-122019819D02*
X132055351Y-121972200D01*
X132055351Y-121972200D02*
X132007732Y-121924580D01*
X132007732Y-121924580D02*
X131960113Y-121829342D01*
X131960113Y-121829342D02*
X131960113Y-121543628D01*
X131960113Y-121543628D02*
X132007732Y-121448390D01*
X132007732Y-121448390D02*
X132055351Y-121400771D01*
X132055351Y-121400771D02*
X132150589Y-121353152D01*
X132150589Y-121353152D02*
X132341065Y-121353152D01*
X132341065Y-121353152D02*
X132436303Y-121400771D01*
X119956541Y-121972200D02*
X120099398Y-122019819D01*
X120099398Y-122019819D02*
X120337493Y-122019819D01*
X120337493Y-122019819D02*
X120432731Y-121972200D01*
X120432731Y-121972200D02*
X120480350Y-121924580D01*
X120480350Y-121924580D02*
X120527969Y-121829342D01*
X120527969Y-121829342D02*
X120527969Y-121734104D01*
X120527969Y-121734104D02*
X120480350Y-121638866D01*
X120480350Y-121638866D02*
X120432731Y-121591247D01*
X120432731Y-121591247D02*
X120337493Y-121543628D01*
X120337493Y-121543628D02*
X120147017Y-121496009D01*
X120147017Y-121496009D02*
X120051779Y-121448390D01*
X120051779Y-121448390D02*
X120004160Y-121400771D01*
X120004160Y-121400771D02*
X119956541Y-121305533D01*
X119956541Y-121305533D02*
X119956541Y-121210295D01*
X119956541Y-121210295D02*
X120004160Y-121115057D01*
X120004160Y-121115057D02*
X120051779Y-121067438D01*
X120051779Y-121067438D02*
X120147017Y-121019819D01*
X120147017Y-121019819D02*
X120385112Y-121019819D01*
X120385112Y-121019819D02*
X120527969Y-121067438D01*
X120813684Y-121353152D02*
X121194636Y-121353152D01*
X120956541Y-121019819D02*
X120956541Y-121876961D01*
X120956541Y-121876961D02*
X121004160Y-121972200D01*
X121004160Y-121972200D02*
X121099398Y-122019819D01*
X121099398Y-122019819D02*
X121194636Y-122019819D01*
X121956541Y-122019819D02*
X121956541Y-121496009D01*
X121956541Y-121496009D02*
X121908922Y-121400771D01*
X121908922Y-121400771D02*
X121813684Y-121353152D01*
X121813684Y-121353152D02*
X121623208Y-121353152D01*
X121623208Y-121353152D02*
X121527970Y-121400771D01*
X121956541Y-121972200D02*
X121861303Y-122019819D01*
X121861303Y-122019819D02*
X121623208Y-122019819D01*
X121623208Y-122019819D02*
X121527970Y-121972200D01*
X121527970Y-121972200D02*
X121480351Y-121876961D01*
X121480351Y-121876961D02*
X121480351Y-121781723D01*
X121480351Y-121781723D02*
X121527970Y-121686485D01*
X121527970Y-121686485D02*
X121623208Y-121638866D01*
X121623208Y-121638866D02*
X121861303Y-121638866D01*
X121861303Y-121638866D02*
X121956541Y-121591247D01*
X122432732Y-122019819D02*
X122432732Y-121353152D01*
X122432732Y-121543628D02*
X122480351Y-121448390D01*
X122480351Y-121448390D02*
X122527970Y-121400771D01*
X122527970Y-121400771D02*
X122623208Y-121353152D01*
X122623208Y-121353152D02*
X122718446Y-121353152D01*
X122908923Y-121353152D02*
X123289875Y-121353152D01*
X123051780Y-121019819D02*
X123051780Y-121876961D01*
X123051780Y-121876961D02*
X123099399Y-121972200D01*
X123099399Y-121972200D02*
X123194637Y-122019819D01*
X123194637Y-122019819D02*
X123289875Y-122019819D01*
D11*
X118925000Y-115310000D02*
X134245000Y-115310000D01*
X134245000Y-122670000D01*
X118925000Y-122670000D01*
X118925000Y-115310000D01*
X119562217Y-114658609D02*
X119705074Y-114706228D01*
X119705074Y-114706228D02*
X119752693Y-114753847D01*
X119752693Y-114753847D02*
X119800312Y-114849085D01*
X119800312Y-114849085D02*
X119800312Y-114991942D01*
X119800312Y-114991942D02*
X119752693Y-115087180D01*
X119752693Y-115087180D02*
X119705074Y-115134800D01*
X119705074Y-115134800D02*
X119609836Y-115182419D01*
X119609836Y-115182419D02*
X119228884Y-115182419D01*
X119228884Y-115182419D02*
X119228884Y-114182419D01*
X119228884Y-114182419D02*
X119562217Y-114182419D01*
X119562217Y-114182419D02*
X119657455Y-114230038D01*
X119657455Y-114230038D02*
X119705074Y-114277657D01*
X119705074Y-114277657D02*
X119752693Y-114372895D01*
X119752693Y-114372895D02*
X119752693Y-114468133D01*
X119752693Y-114468133D02*
X119705074Y-114563371D01*
X119705074Y-114563371D02*
X119657455Y-114610990D01*
X119657455Y-114610990D02*
X119562217Y-114658609D01*
X119562217Y-114658609D02*
X119228884Y-114658609D01*
X120657455Y-114515752D02*
X120657455Y-115182419D01*
X120228884Y-114515752D02*
X120228884Y-115039561D01*
X120228884Y-115039561D02*
X120276503Y-115134800D01*
X120276503Y-115134800D02*
X120371741Y-115182419D01*
X120371741Y-115182419D02*
X120514598Y-115182419D01*
X120514598Y-115182419D02*
X120609836Y-115134800D01*
X120609836Y-115134800D02*
X120657455Y-115087180D01*
X120990789Y-114515752D02*
X121371741Y-114515752D01*
X121133646Y-114182419D02*
X121133646Y-115039561D01*
X121133646Y-115039561D02*
X121181265Y-115134800D01*
X121181265Y-115134800D02*
X121276503Y-115182419D01*
X121276503Y-115182419D02*
X121371741Y-115182419D01*
X121562218Y-114515752D02*
X121943170Y-114515752D01*
X121705075Y-114182419D02*
X121705075Y-115039561D01*
X121705075Y-115039561D02*
X121752694Y-115134800D01*
X121752694Y-115134800D02*
X121847932Y-115182419D01*
X121847932Y-115182419D02*
X121943170Y-115182419D01*
X122419361Y-115182419D02*
X122324123Y-115134800D01*
X122324123Y-115134800D02*
X122276504Y-115087180D01*
X122276504Y-115087180D02*
X122228885Y-114991942D01*
X122228885Y-114991942D02*
X122228885Y-114706228D01*
X122228885Y-114706228D02*
X122276504Y-114610990D01*
X122276504Y-114610990D02*
X122324123Y-114563371D01*
X122324123Y-114563371D02*
X122419361Y-114515752D01*
X122419361Y-114515752D02*
X122562218Y-114515752D01*
X122562218Y-114515752D02*
X122657456Y-114563371D01*
X122657456Y-114563371D02*
X122705075Y-114610990D01*
X122705075Y-114610990D02*
X122752694Y-114706228D01*
X122752694Y-114706228D02*
X122752694Y-114991942D01*
X122752694Y-114991942D02*
X122705075Y-115087180D01*
X122705075Y-115087180D02*
X122657456Y-115134800D01*
X122657456Y-115134800D02*
X122562218Y-115182419D01*
X122562218Y-115182419D02*
X122419361Y-115182419D01*
X123181266Y-114515752D02*
X123181266Y-115182419D01*
X123181266Y-114610990D02*
X123228885Y-114563371D01*
X123228885Y-114563371D02*
X123324123Y-114515752D01*
X123324123Y-114515752D02*
X123466980Y-114515752D01*
X123466980Y-114515752D02*
X123562218Y-114563371D01*
X123562218Y-114563371D02*
X123609837Y-114658609D01*
X123609837Y-114658609D02*
X123609837Y-115182419D01*
X124038409Y-115134800D02*
X124133647Y-115182419D01*
X124133647Y-115182419D02*
X124324123Y-115182419D01*
X124324123Y-115182419D02*
X124419361Y-115134800D01*
X124419361Y-115134800D02*
X124466980Y-115039561D01*
X124466980Y-115039561D02*
X124466980Y-114991942D01*
X124466980Y-114991942D02*
X124419361Y-114896704D01*
X124419361Y-114896704D02*
X124324123Y-114849085D01*
X124324123Y-114849085D02*
X124181266Y-114849085D01*
X124181266Y-114849085D02*
X124086028Y-114801466D01*
X124086028Y-114801466D02*
X124038409Y-114706228D01*
X124038409Y-114706228D02*
X124038409Y-114658609D01*
X124038409Y-114658609D02*
X124086028Y-114563371D01*
X124086028Y-114563371D02*
X124181266Y-114515752D01*
X124181266Y-114515752D02*
X124324123Y-114515752D01*
X124324123Y-114515752D02*
X124419361Y-114563371D01*
D10*
X93093922Y-120819819D02*
X93332017Y-121819819D01*
X93332017Y-121819819D02*
X93522493Y-121105533D01*
X93522493Y-121105533D02*
X93712969Y-121819819D01*
X93712969Y-121819819D02*
X93951065Y-120819819D01*
X94760588Y-121819819D02*
X94760588Y-121296009D01*
X94760588Y-121296009D02*
X94712969Y-121200771D01*
X94712969Y-121200771D02*
X94617731Y-121153152D01*
X94617731Y-121153152D02*
X94427255Y-121153152D01*
X94427255Y-121153152D02*
X94332017Y-121200771D01*
X94760588Y-121772200D02*
X94665350Y-121819819D01*
X94665350Y-121819819D02*
X94427255Y-121819819D01*
X94427255Y-121819819D02*
X94332017Y-121772200D01*
X94332017Y-121772200D02*
X94284398Y-121676961D01*
X94284398Y-121676961D02*
X94284398Y-121581723D01*
X94284398Y-121581723D02*
X94332017Y-121486485D01*
X94332017Y-121486485D02*
X94427255Y-121438866D01*
X94427255Y-121438866D02*
X94665350Y-121438866D01*
X94665350Y-121438866D02*
X94760588Y-121391247D01*
X95093922Y-121153152D02*
X95474874Y-121153152D01*
X95236779Y-120819819D02*
X95236779Y-121676961D01*
X95236779Y-121676961D02*
X95284398Y-121772200D01*
X95284398Y-121772200D02*
X95379636Y-121819819D01*
X95379636Y-121819819D02*
X95474874Y-121819819D01*
X96189160Y-121772200D02*
X96093922Y-121819819D01*
X96093922Y-121819819D02*
X95903446Y-121819819D01*
X95903446Y-121819819D02*
X95808208Y-121772200D01*
X95808208Y-121772200D02*
X95760589Y-121676961D01*
X95760589Y-121676961D02*
X95760589Y-121296009D01*
X95760589Y-121296009D02*
X95808208Y-121200771D01*
X95808208Y-121200771D02*
X95903446Y-121153152D01*
X95903446Y-121153152D02*
X96093922Y-121153152D01*
X96093922Y-121153152D02*
X96189160Y-121200771D01*
X96189160Y-121200771D02*
X96236779Y-121296009D01*
X96236779Y-121296009D02*
X96236779Y-121391247D01*
X96236779Y-121391247D02*
X95760589Y-121486485D01*
X96665351Y-121819819D02*
X96665351Y-121153152D01*
X96665351Y-121343628D02*
X96712970Y-121248390D01*
X96712970Y-121248390D02*
X96760589Y-121200771D01*
X96760589Y-121200771D02*
X96855827Y-121153152D01*
X96855827Y-121153152D02*
X96951065Y-121153152D01*
X102879160Y-121772200D02*
X103022017Y-121819819D01*
X103022017Y-121819819D02*
X103260112Y-121819819D01*
X103260112Y-121819819D02*
X103355350Y-121772200D01*
X103355350Y-121772200D02*
X103402969Y-121724580D01*
X103402969Y-121724580D02*
X103450588Y-121629342D01*
X103450588Y-121629342D02*
X103450588Y-121534104D01*
X103450588Y-121534104D02*
X103402969Y-121438866D01*
X103402969Y-121438866D02*
X103355350Y-121391247D01*
X103355350Y-121391247D02*
X103260112Y-121343628D01*
X103260112Y-121343628D02*
X103069636Y-121296009D01*
X103069636Y-121296009D02*
X102974398Y-121248390D01*
X102974398Y-121248390D02*
X102926779Y-121200771D01*
X102926779Y-121200771D02*
X102879160Y-121105533D01*
X102879160Y-121105533D02*
X102879160Y-121010295D01*
X102879160Y-121010295D02*
X102926779Y-120915057D01*
X102926779Y-120915057D02*
X102974398Y-120867438D01*
X102974398Y-120867438D02*
X103069636Y-120819819D01*
X103069636Y-120819819D02*
X103307731Y-120819819D01*
X103307731Y-120819819D02*
X103450588Y-120867438D01*
X104022017Y-121819819D02*
X103926779Y-121772200D01*
X103926779Y-121772200D02*
X103879160Y-121724580D01*
X103879160Y-121724580D02*
X103831541Y-121629342D01*
X103831541Y-121629342D02*
X103831541Y-121343628D01*
X103831541Y-121343628D02*
X103879160Y-121248390D01*
X103879160Y-121248390D02*
X103926779Y-121200771D01*
X103926779Y-121200771D02*
X104022017Y-121153152D01*
X104022017Y-121153152D02*
X104164874Y-121153152D01*
X104164874Y-121153152D02*
X104260112Y-121200771D01*
X104260112Y-121200771D02*
X104307731Y-121248390D01*
X104307731Y-121248390D02*
X104355350Y-121343628D01*
X104355350Y-121343628D02*
X104355350Y-121629342D01*
X104355350Y-121629342D02*
X104307731Y-121724580D01*
X104307731Y-121724580D02*
X104260112Y-121772200D01*
X104260112Y-121772200D02*
X104164874Y-121819819D01*
X104164874Y-121819819D02*
X104022017Y-121819819D01*
X105212493Y-121819819D02*
X105212493Y-121296009D01*
X105212493Y-121296009D02*
X105164874Y-121200771D01*
X105164874Y-121200771D02*
X105069636Y-121153152D01*
X105069636Y-121153152D02*
X104879160Y-121153152D01*
X104879160Y-121153152D02*
X104783922Y-121200771D01*
X105212493Y-121772200D02*
X105117255Y-121819819D01*
X105117255Y-121819819D02*
X104879160Y-121819819D01*
X104879160Y-121819819D02*
X104783922Y-121772200D01*
X104783922Y-121772200D02*
X104736303Y-121676961D01*
X104736303Y-121676961D02*
X104736303Y-121581723D01*
X104736303Y-121581723D02*
X104783922Y-121486485D01*
X104783922Y-121486485D02*
X104879160Y-121438866D01*
X104879160Y-121438866D02*
X105117255Y-121438866D01*
X105117255Y-121438866D02*
X105212493Y-121391247D01*
X105688684Y-121153152D02*
X105688684Y-122153152D01*
X105688684Y-121200771D02*
X105783922Y-121153152D01*
X105783922Y-121153152D02*
X105974398Y-121153152D01*
X105974398Y-121153152D02*
X106069636Y-121200771D01*
X106069636Y-121200771D02*
X106117255Y-121248390D01*
X106117255Y-121248390D02*
X106164874Y-121343628D01*
X106164874Y-121343628D02*
X106164874Y-121629342D01*
X106164874Y-121629342D02*
X106117255Y-121724580D01*
X106117255Y-121724580D02*
X106069636Y-121772200D01*
X106069636Y-121772200D02*
X105974398Y-121819819D01*
X105974398Y-121819819D02*
X105783922Y-121819819D01*
X105783922Y-121819819D02*
X105688684Y-121772200D01*
X112131065Y-120819819D02*
X112321541Y-120819819D01*
X112321541Y-120819819D02*
X112416779Y-120867438D01*
X112416779Y-120867438D02*
X112512017Y-120962676D01*
X112512017Y-120962676D02*
X112559636Y-121153152D01*
X112559636Y-121153152D02*
X112559636Y-121486485D01*
X112559636Y-121486485D02*
X112512017Y-121676961D01*
X112512017Y-121676961D02*
X112416779Y-121772200D01*
X112416779Y-121772200D02*
X112321541Y-121819819D01*
X112321541Y-121819819D02*
X112131065Y-121819819D01*
X112131065Y-121819819D02*
X112035827Y-121772200D01*
X112035827Y-121772200D02*
X111940589Y-121676961D01*
X111940589Y-121676961D02*
X111892970Y-121486485D01*
X111892970Y-121486485D02*
X111892970Y-121153152D01*
X111892970Y-121153152D02*
X111940589Y-120962676D01*
X111940589Y-120962676D02*
X112035827Y-120867438D01*
X112035827Y-120867438D02*
X112131065Y-120819819D01*
X112988208Y-121153152D02*
X112988208Y-121819819D01*
X112988208Y-121248390D02*
X113035827Y-121200771D01*
X113035827Y-121200771D02*
X113131065Y-121153152D01*
X113131065Y-121153152D02*
X113273922Y-121153152D01*
X113273922Y-121153152D02*
X113369160Y-121200771D01*
X113369160Y-121200771D02*
X113416779Y-121296009D01*
X113416779Y-121296009D02*
X113416779Y-121819819D01*
D11*
X90905000Y-115280000D02*
X118035000Y-115280000D01*
X118035000Y-122640000D01*
X90905000Y-122640000D01*
X90905000Y-115280000D01*
X91053884Y-123493014D02*
X91053884Y-122743014D01*
X91530074Y-122993014D02*
X91530074Y-123493014D01*
X91530074Y-123064442D02*
X91577693Y-123028728D01*
X91577693Y-123028728D02*
X91672931Y-122993014D01*
X91672931Y-122993014D02*
X91815788Y-122993014D01*
X91815788Y-122993014D02*
X91911026Y-123028728D01*
X91911026Y-123028728D02*
X91958645Y-123100157D01*
X91958645Y-123100157D02*
X91958645Y-123493014D01*
X92863407Y-123493014D02*
X92863407Y-122743014D01*
X92863407Y-123457300D02*
X92768169Y-123493014D01*
X92768169Y-123493014D02*
X92577693Y-123493014D01*
X92577693Y-123493014D02*
X92482455Y-123457300D01*
X92482455Y-123457300D02*
X92434836Y-123421585D01*
X92434836Y-123421585D02*
X92387217Y-123350157D01*
X92387217Y-123350157D02*
X92387217Y-123135871D01*
X92387217Y-123135871D02*
X92434836Y-123064442D01*
X92434836Y-123064442D02*
X92482455Y-123028728D01*
X92482455Y-123028728D02*
X92577693Y-122993014D01*
X92577693Y-122993014D02*
X92768169Y-122993014D01*
X92768169Y-122993014D02*
X92863407Y-123028728D01*
X93339598Y-123493014D02*
X93339598Y-122993014D01*
X93339598Y-122743014D02*
X93291979Y-122778728D01*
X93291979Y-122778728D02*
X93339598Y-122814442D01*
X93339598Y-122814442D02*
X93387217Y-122778728D01*
X93387217Y-122778728D02*
X93339598Y-122743014D01*
X93339598Y-122743014D02*
X93339598Y-122814442D01*
X94244359Y-123457300D02*
X94149121Y-123493014D01*
X94149121Y-123493014D02*
X93958645Y-123493014D01*
X93958645Y-123493014D02*
X93863407Y-123457300D01*
X93863407Y-123457300D02*
X93815788Y-123421585D01*
X93815788Y-123421585D02*
X93768169Y-123350157D01*
X93768169Y-123350157D02*
X93768169Y-123135871D01*
X93768169Y-123135871D02*
X93815788Y-123064442D01*
X93815788Y-123064442D02*
X93863407Y-123028728D01*
X93863407Y-123028728D02*
X93958645Y-122993014D01*
X93958645Y-122993014D02*
X94149121Y-122993014D01*
X94149121Y-122993014D02*
X94244359Y-123028728D01*
X95101502Y-123493014D02*
X95101502Y-123100157D01*
X95101502Y-123100157D02*
X95053883Y-123028728D01*
X95053883Y-123028728D02*
X94958645Y-122993014D01*
X94958645Y-122993014D02*
X94768169Y-122993014D01*
X94768169Y-122993014D02*
X94672931Y-123028728D01*
X95101502Y-123457300D02*
X95006264Y-123493014D01*
X95006264Y-123493014D02*
X94768169Y-123493014D01*
X94768169Y-123493014D02*
X94672931Y-123457300D01*
X94672931Y-123457300D02*
X94625312Y-123385871D01*
X94625312Y-123385871D02*
X94625312Y-123314442D01*
X94625312Y-123314442D02*
X94672931Y-123243014D01*
X94672931Y-123243014D02*
X94768169Y-123207300D01*
X94768169Y-123207300D02*
X95006264Y-123207300D01*
X95006264Y-123207300D02*
X95101502Y-123171585D01*
X95434836Y-122993014D02*
X95815788Y-122993014D01*
X95577693Y-122743014D02*
X95577693Y-123385871D01*
X95577693Y-123385871D02*
X95625312Y-123457300D01*
X95625312Y-123457300D02*
X95720550Y-123493014D01*
X95720550Y-123493014D02*
X95815788Y-123493014D01*
X96291979Y-123493014D02*
X96196741Y-123457300D01*
X96196741Y-123457300D02*
X96149122Y-123421585D01*
X96149122Y-123421585D02*
X96101503Y-123350157D01*
X96101503Y-123350157D02*
X96101503Y-123135871D01*
X96101503Y-123135871D02*
X96149122Y-123064442D01*
X96149122Y-123064442D02*
X96196741Y-123028728D01*
X96196741Y-123028728D02*
X96291979Y-122993014D01*
X96291979Y-122993014D02*
X96434836Y-122993014D01*
X96434836Y-122993014D02*
X96530074Y-123028728D01*
X96530074Y-123028728D02*
X96577693Y-123064442D01*
X96577693Y-123064442D02*
X96625312Y-123135871D01*
X96625312Y-123135871D02*
X96625312Y-123350157D01*
X96625312Y-123350157D02*
X96577693Y-123421585D01*
X96577693Y-123421585D02*
X96530074Y-123457300D01*
X96530074Y-123457300D02*
X96434836Y-123493014D01*
X96434836Y-123493014D02*
X96291979Y-123493014D01*
X97053884Y-123493014D02*
X97053884Y-122993014D01*
X97053884Y-123135871D02*
X97101503Y-123064442D01*
X97101503Y-123064442D02*
X97149122Y-123028728D01*
X97149122Y-123028728D02*
X97244360Y-122993014D01*
X97244360Y-122993014D02*
X97339598Y-122993014D01*
X98911027Y-123493014D02*
X98434837Y-123493014D01*
X98434837Y-123493014D02*
X98434837Y-122743014D01*
X99244361Y-123493014D02*
X99244361Y-122993014D01*
X99244361Y-122743014D02*
X99196742Y-122778728D01*
X99196742Y-122778728D02*
X99244361Y-122814442D01*
X99244361Y-122814442D02*
X99291980Y-122778728D01*
X99291980Y-122778728D02*
X99244361Y-122743014D01*
X99244361Y-122743014D02*
X99244361Y-122814442D01*
X100149122Y-122993014D02*
X100149122Y-123600157D01*
X100149122Y-123600157D02*
X100101503Y-123671585D01*
X100101503Y-123671585D02*
X100053884Y-123707300D01*
X100053884Y-123707300D02*
X99958646Y-123743014D01*
X99958646Y-123743014D02*
X99815789Y-123743014D01*
X99815789Y-123743014D02*
X99720551Y-123707300D01*
X100149122Y-123457300D02*
X100053884Y-123493014D01*
X100053884Y-123493014D02*
X99863408Y-123493014D01*
X99863408Y-123493014D02*
X99768170Y-123457300D01*
X99768170Y-123457300D02*
X99720551Y-123421585D01*
X99720551Y-123421585D02*
X99672932Y-123350157D01*
X99672932Y-123350157D02*
X99672932Y-123135871D01*
X99672932Y-123135871D02*
X99720551Y-123064442D01*
X99720551Y-123064442D02*
X99768170Y-123028728D01*
X99768170Y-123028728D02*
X99863408Y-122993014D01*
X99863408Y-122993014D02*
X100053884Y-122993014D01*
X100053884Y-122993014D02*
X100149122Y-123028728D01*
X100625313Y-123493014D02*
X100625313Y-122743014D01*
X101053884Y-123493014D02*
X101053884Y-123100157D01*
X101053884Y-123100157D02*
X101006265Y-123028728D01*
X101006265Y-123028728D02*
X100911027Y-122993014D01*
X100911027Y-122993014D02*
X100768170Y-122993014D01*
X100768170Y-122993014D02*
X100672932Y-123028728D01*
X100672932Y-123028728D02*
X100625313Y-123064442D01*
X101387218Y-122993014D02*
X101768170Y-122993014D01*
X101530075Y-122743014D02*
X101530075Y-123385871D01*
X101530075Y-123385871D02*
X101577694Y-123457300D01*
X101577694Y-123457300D02*
X101672932Y-123493014D01*
X101672932Y-123493014D02*
X101768170Y-123493014D01*
X102053885Y-123457300D02*
X102149123Y-123493014D01*
X102149123Y-123493014D02*
X102339599Y-123493014D01*
X102339599Y-123493014D02*
X102434837Y-123457300D01*
X102434837Y-123457300D02*
X102482456Y-123385871D01*
X102482456Y-123385871D02*
X102482456Y-123350157D01*
X102482456Y-123350157D02*
X102434837Y-123278728D01*
X102434837Y-123278728D02*
X102339599Y-123243014D01*
X102339599Y-123243014D02*
X102196742Y-123243014D01*
X102196742Y-123243014D02*
X102101504Y-123207300D01*
X102101504Y-123207300D02*
X102053885Y-123135871D01*
X102053885Y-123135871D02*
X102053885Y-123100157D01*
X102053885Y-123100157D02*
X102101504Y-123028728D01*
X102101504Y-123028728D02*
X102196742Y-122993014D01*
X102196742Y-122993014D02*
X102339599Y-122993014D01*
X102339599Y-122993014D02*
X102434837Y-123028728D01*
D10*
X162027887Y-78206411D02*
X161960543Y-78206411D01*
X161960543Y-78206411D02*
X161825856Y-78139067D01*
X161825856Y-78139067D02*
X161758513Y-78071724D01*
X161758513Y-78071724D02*
X161691169Y-77937037D01*
X161691169Y-77937037D02*
X161691169Y-77802350D01*
X161691169Y-77802350D02*
X161724841Y-77701335D01*
X161724841Y-77701335D02*
X161825856Y-77532976D01*
X161825856Y-77532976D02*
X161926871Y-77431961D01*
X161926871Y-77431961D02*
X162095230Y-77330945D01*
X162095230Y-77330945D02*
X162196245Y-77297274D01*
X162196245Y-77297274D02*
X162330932Y-77297274D01*
X162330932Y-77297274D02*
X162465619Y-77364617D01*
X162465619Y-77364617D02*
X162532963Y-77431961D01*
X162532963Y-77431961D02*
X162600306Y-77566648D01*
X162600306Y-77566648D02*
X162600306Y-77633991D01*
X162633978Y-78947189D02*
X162229917Y-78543128D01*
X162431948Y-78745159D02*
X163139054Y-78038052D01*
X163139054Y-78038052D02*
X162970696Y-78071724D01*
X162970696Y-78071724D02*
X162836009Y-78071724D01*
X162836009Y-78071724D02*
X162734993Y-78038052D01*
X102664820Y-101893333D02*
X103379105Y-101893333D01*
X103379105Y-101893333D02*
X103521962Y-101940952D01*
X103521962Y-101940952D02*
X103617201Y-102036190D01*
X103617201Y-102036190D02*
X103664820Y-102179047D01*
X103664820Y-102179047D02*
X103664820Y-102274285D01*
X103664820Y-100893333D02*
X103664820Y-101464761D01*
X103664820Y-101179047D02*
X102664820Y-101179047D01*
X102664820Y-101179047D02*
X102807677Y-101274285D01*
X102807677Y-101274285D02*
X102902915Y-101369523D01*
X102902915Y-101369523D02*
X102950534Y-101464761D01*
X143050476Y-64294819D02*
X143050476Y-65009104D01*
X143050476Y-65009104D02*
X143002857Y-65151961D01*
X143002857Y-65151961D02*
X142907619Y-65247200D01*
X142907619Y-65247200D02*
X142764762Y-65294819D01*
X142764762Y-65294819D02*
X142669524Y-65294819D01*
X144050476Y-65294819D02*
X143479048Y-65294819D01*
X143764762Y-65294819D02*
X143764762Y-64294819D01*
X143764762Y-64294819D02*
X143669524Y-64437676D01*
X143669524Y-64437676D02*
X143574286Y-64532914D01*
X143574286Y-64532914D02*
X143479048Y-64580533D01*
X144383810Y-64294819D02*
X145002857Y-64294819D01*
X145002857Y-64294819D02*
X144669524Y-64675771D01*
X144669524Y-64675771D02*
X144812381Y-64675771D01*
X144812381Y-64675771D02*
X144907619Y-64723390D01*
X144907619Y-64723390D02*
X144955238Y-64771009D01*
X144955238Y-64771009D02*
X145002857Y-64866247D01*
X145002857Y-64866247D02*
X145002857Y-65104342D01*
X145002857Y-65104342D02*
X144955238Y-65199580D01*
X144955238Y-65199580D02*
X144907619Y-65247200D01*
X144907619Y-65247200D02*
X144812381Y-65294819D01*
X144812381Y-65294819D02*
X144526667Y-65294819D01*
X144526667Y-65294819D02*
X144431429Y-65247200D01*
X144431429Y-65247200D02*
X144383810Y-65199580D01*
X169992261Y-100530056D02*
X169897023Y-100482437D01*
X169897023Y-100482437D02*
X169801785Y-100387199D01*
X169801785Y-100387199D02*
X169658928Y-100244341D01*
X169658928Y-100244341D02*
X169563690Y-100196722D01*
X169563690Y-100196722D02*
X169468452Y-100196722D01*
X169516071Y-100434818D02*
X169420833Y-100387199D01*
X169420833Y-100387199D02*
X169325595Y-100291960D01*
X169325595Y-100291960D02*
X169277976Y-100101484D01*
X169277976Y-100101484D02*
X169277976Y-99768151D01*
X169277976Y-99768151D02*
X169325595Y-99577675D01*
X169325595Y-99577675D02*
X169420833Y-99482437D01*
X169420833Y-99482437D02*
X169516071Y-99434818D01*
X169516071Y-99434818D02*
X169706547Y-99434818D01*
X169706547Y-99434818D02*
X169801785Y-99482437D01*
X169801785Y-99482437D02*
X169897023Y-99577675D01*
X169897023Y-99577675D02*
X169944642Y-99768151D01*
X169944642Y-99768151D02*
X169944642Y-100101484D01*
X169944642Y-100101484D02*
X169897023Y-100291960D01*
X169897023Y-100291960D02*
X169801785Y-100387199D01*
X169801785Y-100387199D02*
X169706547Y-100434818D01*
X169706547Y-100434818D02*
X169516071Y-100434818D01*
X170325595Y-99530056D02*
X170373214Y-99482437D01*
X170373214Y-99482437D02*
X170468452Y-99434818D01*
X170468452Y-99434818D02*
X170706547Y-99434818D01*
X170706547Y-99434818D02*
X170801785Y-99482437D01*
X170801785Y-99482437D02*
X170849404Y-99530056D01*
X170849404Y-99530056D02*
X170897023Y-99625294D01*
X170897023Y-99625294D02*
X170897023Y-99720532D01*
X170897023Y-99720532D02*
X170849404Y-99863389D01*
X170849404Y-99863389D02*
X170277976Y-100434818D01*
X170277976Y-100434818D02*
X170897023Y-100434818D01*
X167964819Y-87448094D02*
X166964819Y-87448094D01*
X166964819Y-87448094D02*
X166964819Y-87209999D01*
X166964819Y-87209999D02*
X167012438Y-87067142D01*
X167012438Y-87067142D02*
X167107676Y-86971904D01*
X167107676Y-86971904D02*
X167202914Y-86924285D01*
X167202914Y-86924285D02*
X167393390Y-86876666D01*
X167393390Y-86876666D02*
X167536247Y-86876666D01*
X167536247Y-86876666D02*
X167726723Y-86924285D01*
X167726723Y-86924285D02*
X167821961Y-86971904D01*
X167821961Y-86971904D02*
X167917200Y-87067142D01*
X167917200Y-87067142D02*
X167964819Y-87209999D01*
X167964819Y-87209999D02*
X167964819Y-87448094D01*
X167060057Y-86495713D02*
X167012438Y-86448094D01*
X167012438Y-86448094D02*
X166964819Y-86352856D01*
X166964819Y-86352856D02*
X166964819Y-86114761D01*
X166964819Y-86114761D02*
X167012438Y-86019523D01*
X167012438Y-86019523D02*
X167060057Y-85971904D01*
X167060057Y-85971904D02*
X167155295Y-85924285D01*
X167155295Y-85924285D02*
X167250533Y-85924285D01*
X167250533Y-85924285D02*
X167393390Y-85971904D01*
X167393390Y-85971904D02*
X167964819Y-86543332D01*
X167964819Y-86543332D02*
X167964819Y-85924285D01*
X172862319Y-82531903D02*
X171862319Y-82531903D01*
X172862319Y-81960475D02*
X172290890Y-82389046D01*
X171862319Y-81960475D02*
X172433747Y-82531903D01*
X156394140Y-70348363D02*
X155821720Y-70920783D01*
X155821720Y-70920783D02*
X155788048Y-71021798D01*
X155788048Y-71021798D02*
X155788048Y-71089142D01*
X155788048Y-71089142D02*
X155821720Y-71190157D01*
X155821720Y-71190157D02*
X155956407Y-71324844D01*
X155956407Y-71324844D02*
X156057422Y-71358516D01*
X156057422Y-71358516D02*
X156124766Y-71358516D01*
X156124766Y-71358516D02*
X156225781Y-71324844D01*
X156225781Y-71324844D02*
X156798201Y-70752424D01*
X157067575Y-71021798D02*
X157505307Y-71459531D01*
X157505307Y-71459531D02*
X157000231Y-71493203D01*
X157000231Y-71493203D02*
X157101246Y-71594218D01*
X157101246Y-71594218D02*
X157134918Y-71695233D01*
X157134918Y-71695233D02*
X157134918Y-71762577D01*
X157134918Y-71762577D02*
X157101246Y-71863592D01*
X157101246Y-71863592D02*
X156932888Y-72031951D01*
X156932888Y-72031951D02*
X156831872Y-72065623D01*
X156831872Y-72065623D02*
X156764529Y-72065623D01*
X156764529Y-72065623D02*
X156663514Y-72031951D01*
X156663514Y-72031951D02*
X156461483Y-71829920D01*
X156461483Y-71829920D02*
X156427811Y-71728905D01*
X156427811Y-71728905D02*
X156427811Y-71661562D01*
X93996666Y-115684819D02*
X93996666Y-116399104D01*
X93996666Y-116399104D02*
X93949047Y-116541961D01*
X93949047Y-116541961D02*
X93853809Y-116637200D01*
X93853809Y-116637200D02*
X93710952Y-116684819D01*
X93710952Y-116684819D02*
X93615714Y-116684819D01*
X94949047Y-115684819D02*
X94472857Y-115684819D01*
X94472857Y-115684819D02*
X94425238Y-116161009D01*
X94425238Y-116161009D02*
X94472857Y-116113390D01*
X94472857Y-116113390D02*
X94568095Y-116065771D01*
X94568095Y-116065771D02*
X94806190Y-116065771D01*
X94806190Y-116065771D02*
X94901428Y-116113390D01*
X94901428Y-116113390D02*
X94949047Y-116161009D01*
X94949047Y-116161009D02*
X94996666Y-116256247D01*
X94996666Y-116256247D02*
X94996666Y-116494342D01*
X94996666Y-116494342D02*
X94949047Y-116589580D01*
X94949047Y-116589580D02*
X94901428Y-116637200D01*
X94901428Y-116637200D02*
X94806190Y-116684819D01*
X94806190Y-116684819D02*
X94568095Y-116684819D01*
X94568095Y-116684819D02*
X94472857Y-116637200D01*
X94472857Y-116637200D02*
X94425238Y-116589580D01*
X129836666Y-115684819D02*
X129836666Y-116399104D01*
X129836666Y-116399104D02*
X129789047Y-116541961D01*
X129789047Y-116541961D02*
X129693809Y-116637200D01*
X129693809Y-116637200D02*
X129550952Y-116684819D01*
X129550952Y-116684819D02*
X129455714Y-116684819D01*
X130360476Y-116684819D02*
X130550952Y-116684819D01*
X130550952Y-116684819D02*
X130646190Y-116637200D01*
X130646190Y-116637200D02*
X130693809Y-116589580D01*
X130693809Y-116589580D02*
X130789047Y-116446723D01*
X130789047Y-116446723D02*
X130836666Y-116256247D01*
X130836666Y-116256247D02*
X130836666Y-115875295D01*
X130836666Y-115875295D02*
X130789047Y-115780057D01*
X130789047Y-115780057D02*
X130741428Y-115732438D01*
X130741428Y-115732438D02*
X130646190Y-115684819D01*
X130646190Y-115684819D02*
X130455714Y-115684819D01*
X130455714Y-115684819D02*
X130360476Y-115732438D01*
X130360476Y-115732438D02*
X130312857Y-115780057D01*
X130312857Y-115780057D02*
X130265238Y-115875295D01*
X130265238Y-115875295D02*
X130265238Y-116113390D01*
X130265238Y-116113390D02*
X130312857Y-116208628D01*
X130312857Y-116208628D02*
X130360476Y-116256247D01*
X130360476Y-116256247D02*
X130455714Y-116303866D01*
X130455714Y-116303866D02*
X130646190Y-116303866D01*
X130646190Y-116303866D02*
X130741428Y-116256247D01*
X130741428Y-116256247D02*
X130789047Y-116208628D01*
X130789047Y-116208628D02*
X130836666Y-116113390D01*
X86084819Y-110342857D02*
X85608628Y-110676190D01*
X86084819Y-110914285D02*
X85084819Y-110914285D01*
X85084819Y-110914285D02*
X85084819Y-110533333D01*
X85084819Y-110533333D02*
X85132438Y-110438095D01*
X85132438Y-110438095D02*
X85180057Y-110390476D01*
X85180057Y-110390476D02*
X85275295Y-110342857D01*
X85275295Y-110342857D02*
X85418152Y-110342857D01*
X85418152Y-110342857D02*
X85513390Y-110390476D01*
X85513390Y-110390476D02*
X85561009Y-110438095D01*
X85561009Y-110438095D02*
X85608628Y-110533333D01*
X85608628Y-110533333D02*
X85608628Y-110914285D01*
X86084819Y-109390476D02*
X86084819Y-109961904D01*
X86084819Y-109676190D02*
X85084819Y-109676190D01*
X85084819Y-109676190D02*
X85227676Y-109771428D01*
X85227676Y-109771428D02*
X85322914Y-109866666D01*
X85322914Y-109866666D02*
X85370533Y-109961904D01*
X86084819Y-108438095D02*
X86084819Y-109009523D01*
X86084819Y-108723809D02*
X85084819Y-108723809D01*
X85084819Y-108723809D02*
X85227676Y-108819047D01*
X85227676Y-108819047D02*
X85322914Y-108914285D01*
X85322914Y-108914285D02*
X85370533Y-109009523D01*
X169992261Y-79110055D02*
X169897023Y-79062436D01*
X169897023Y-79062436D02*
X169801785Y-78967198D01*
X169801785Y-78967198D02*
X169658928Y-78824340D01*
X169658928Y-78824340D02*
X169563690Y-78776721D01*
X169563690Y-78776721D02*
X169468452Y-78776721D01*
X169516071Y-79014817D02*
X169420833Y-78967198D01*
X169420833Y-78967198D02*
X169325595Y-78871959D01*
X169325595Y-78871959D02*
X169277976Y-78681483D01*
X169277976Y-78681483D02*
X169277976Y-78348150D01*
X169277976Y-78348150D02*
X169325595Y-78157674D01*
X169325595Y-78157674D02*
X169420833Y-78062436D01*
X169420833Y-78062436D02*
X169516071Y-78014817D01*
X169516071Y-78014817D02*
X169706547Y-78014817D01*
X169706547Y-78014817D02*
X169801785Y-78062436D01*
X169801785Y-78062436D02*
X169897023Y-78157674D01*
X169897023Y-78157674D02*
X169944642Y-78348150D01*
X169944642Y-78348150D02*
X169944642Y-78681483D01*
X169944642Y-78681483D02*
X169897023Y-78871959D01*
X169897023Y-78871959D02*
X169801785Y-78967198D01*
X169801785Y-78967198D02*
X169706547Y-79014817D01*
X169706547Y-79014817D02*
X169516071Y-79014817D01*
X170897023Y-79014817D02*
X170325595Y-79014817D01*
X170611309Y-79014817D02*
X170611309Y-78014817D01*
X170611309Y-78014817D02*
X170516071Y-78157674D01*
X170516071Y-78157674D02*
X170420833Y-78252912D01*
X170420833Y-78252912D02*
X170325595Y-78300531D01*
X139583333Y-86654819D02*
X139250000Y-86178628D01*
X139011905Y-86654819D02*
X139011905Y-85654819D01*
X139011905Y-85654819D02*
X139392857Y-85654819D01*
X139392857Y-85654819D02*
X139488095Y-85702438D01*
X139488095Y-85702438D02*
X139535714Y-85750057D01*
X139535714Y-85750057D02*
X139583333Y-85845295D01*
X139583333Y-85845295D02*
X139583333Y-85988152D01*
X139583333Y-85988152D02*
X139535714Y-86083390D01*
X139535714Y-86083390D02*
X139488095Y-86131009D01*
X139488095Y-86131009D02*
X139392857Y-86178628D01*
X139392857Y-86178628D02*
X139011905Y-86178628D01*
X140440476Y-85988152D02*
X140440476Y-86654819D01*
X140202381Y-85607200D02*
X139964286Y-86321485D01*
X139964286Y-86321485D02*
X140583333Y-86321485D01*
X106824819Y-62966666D02*
X106348628Y-63299999D01*
X106824819Y-63538094D02*
X105824819Y-63538094D01*
X105824819Y-63538094D02*
X105824819Y-63157142D01*
X105824819Y-63157142D02*
X105872438Y-63061904D01*
X105872438Y-63061904D02*
X105920057Y-63014285D01*
X105920057Y-63014285D02*
X106015295Y-62966666D01*
X106015295Y-62966666D02*
X106158152Y-62966666D01*
X106158152Y-62966666D02*
X106253390Y-63014285D01*
X106253390Y-63014285D02*
X106301009Y-63061904D01*
X106301009Y-63061904D02*
X106348628Y-63157142D01*
X106348628Y-63157142D02*
X106348628Y-63538094D01*
X105920057Y-62585713D02*
X105872438Y-62538094D01*
X105872438Y-62538094D02*
X105824819Y-62442856D01*
X105824819Y-62442856D02*
X105824819Y-62204761D01*
X105824819Y-62204761D02*
X105872438Y-62109523D01*
X105872438Y-62109523D02*
X105920057Y-62061904D01*
X105920057Y-62061904D02*
X106015295Y-62014285D01*
X106015295Y-62014285D02*
X106110533Y-62014285D01*
X106110533Y-62014285D02*
X106253390Y-62061904D01*
X106253390Y-62061904D02*
X106824819Y-62633332D01*
X106824819Y-62633332D02*
X106824819Y-62014285D01*
X149217887Y-65426411D02*
X149150543Y-65426411D01*
X149150543Y-65426411D02*
X149015856Y-65359067D01*
X149015856Y-65359067D02*
X148948513Y-65291724D01*
X148948513Y-65291724D02*
X148881169Y-65157037D01*
X148881169Y-65157037D02*
X148881169Y-65022350D01*
X148881169Y-65022350D02*
X148914841Y-64921335D01*
X148914841Y-64921335D02*
X149015856Y-64752976D01*
X149015856Y-64752976D02*
X149116871Y-64651961D01*
X149116871Y-64651961D02*
X149285230Y-64550945D01*
X149285230Y-64550945D02*
X149386245Y-64517274D01*
X149386245Y-64517274D02*
X149520932Y-64517274D01*
X149520932Y-64517274D02*
X149655619Y-64584617D01*
X149655619Y-64584617D02*
X149722963Y-64651961D01*
X149722963Y-64651961D02*
X149790306Y-64786648D01*
X149790306Y-64786648D02*
X149790306Y-64853991D01*
X150059680Y-65123365D02*
X150127024Y-65123365D01*
X150127024Y-65123365D02*
X150228039Y-65157037D01*
X150228039Y-65157037D02*
X150396398Y-65325396D01*
X150396398Y-65325396D02*
X150430070Y-65426411D01*
X150430070Y-65426411D02*
X150430070Y-65493754D01*
X150430070Y-65493754D02*
X150396398Y-65594770D01*
X150396398Y-65594770D02*
X150329054Y-65662113D01*
X150329054Y-65662113D02*
X150194367Y-65729457D01*
X150194367Y-65729457D02*
X149386245Y-65729457D01*
X149386245Y-65729457D02*
X149823978Y-66167189D01*
X180804819Y-66099522D02*
X181519104Y-66099522D01*
X181519104Y-66099522D02*
X181661961Y-66147141D01*
X181661961Y-66147141D02*
X181757200Y-66242379D01*
X181757200Y-66242379D02*
X181804819Y-66385236D01*
X181804819Y-66385236D02*
X181804819Y-66480474D01*
X181804819Y-65099522D02*
X181804819Y-65670950D01*
X181804819Y-65385236D02*
X180804819Y-65385236D01*
X180804819Y-65385236D02*
X180947676Y-65480474D01*
X180947676Y-65480474D02*
X181042914Y-65575712D01*
X181042914Y-65575712D02*
X181090533Y-65670950D01*
X181804819Y-64147141D02*
X181804819Y-64718569D01*
X181804819Y-64432855D02*
X180804819Y-64432855D01*
X180804819Y-64432855D02*
X180947676Y-64528093D01*
X180947676Y-64528093D02*
X181042914Y-64623331D01*
X181042914Y-64623331D02*
X181090533Y-64718569D01*
X136263333Y-86654819D02*
X135930000Y-86178628D01*
X135691905Y-86654819D02*
X135691905Y-85654819D01*
X135691905Y-85654819D02*
X136072857Y-85654819D01*
X136072857Y-85654819D02*
X136168095Y-85702438D01*
X136168095Y-85702438D02*
X136215714Y-85750057D01*
X136215714Y-85750057D02*
X136263333Y-85845295D01*
X136263333Y-85845295D02*
X136263333Y-85988152D01*
X136263333Y-85988152D02*
X136215714Y-86083390D01*
X136215714Y-86083390D02*
X136168095Y-86131009D01*
X136168095Y-86131009D02*
X136072857Y-86178628D01*
X136072857Y-86178628D02*
X135691905Y-86178628D01*
X137168095Y-85654819D02*
X136691905Y-85654819D01*
X136691905Y-85654819D02*
X136644286Y-86131009D01*
X136644286Y-86131009D02*
X136691905Y-86083390D01*
X136691905Y-86083390D02*
X136787143Y-86035771D01*
X136787143Y-86035771D02*
X137025238Y-86035771D01*
X137025238Y-86035771D02*
X137120476Y-86083390D01*
X137120476Y-86083390D02*
X137168095Y-86131009D01*
X137168095Y-86131009D02*
X137215714Y-86226247D01*
X137215714Y-86226247D02*
X137215714Y-86464342D01*
X137215714Y-86464342D02*
X137168095Y-86559580D01*
X137168095Y-86559580D02*
X137120476Y-86607200D01*
X137120476Y-86607200D02*
X137025238Y-86654819D01*
X137025238Y-86654819D02*
X136787143Y-86654819D01*
X136787143Y-86654819D02*
X136691905Y-86607200D01*
X136691905Y-86607200D02*
X136644286Y-86559580D01*
X106009819Y-110156666D02*
X105533628Y-110489999D01*
X106009819Y-110728094D02*
X105009819Y-110728094D01*
X105009819Y-110728094D02*
X105009819Y-110347142D01*
X105009819Y-110347142D02*
X105057438Y-110251904D01*
X105057438Y-110251904D02*
X105105057Y-110204285D01*
X105105057Y-110204285D02*
X105200295Y-110156666D01*
X105200295Y-110156666D02*
X105343152Y-110156666D01*
X105343152Y-110156666D02*
X105438390Y-110204285D01*
X105438390Y-110204285D02*
X105486009Y-110251904D01*
X105486009Y-110251904D02*
X105533628Y-110347142D01*
X105533628Y-110347142D02*
X105533628Y-110728094D01*
X105438390Y-109585237D02*
X105390771Y-109680475D01*
X105390771Y-109680475D02*
X105343152Y-109728094D01*
X105343152Y-109728094D02*
X105247914Y-109775713D01*
X105247914Y-109775713D02*
X105200295Y-109775713D01*
X105200295Y-109775713D02*
X105105057Y-109728094D01*
X105105057Y-109728094D02*
X105057438Y-109680475D01*
X105057438Y-109680475D02*
X105009819Y-109585237D01*
X105009819Y-109585237D02*
X105009819Y-109394761D01*
X105009819Y-109394761D02*
X105057438Y-109299523D01*
X105057438Y-109299523D02*
X105105057Y-109251904D01*
X105105057Y-109251904D02*
X105200295Y-109204285D01*
X105200295Y-109204285D02*
X105247914Y-109204285D01*
X105247914Y-109204285D02*
X105343152Y-109251904D01*
X105343152Y-109251904D02*
X105390771Y-109299523D01*
X105390771Y-109299523D02*
X105438390Y-109394761D01*
X105438390Y-109394761D02*
X105438390Y-109585237D01*
X105438390Y-109585237D02*
X105486009Y-109680475D01*
X105486009Y-109680475D02*
X105533628Y-109728094D01*
X105533628Y-109728094D02*
X105628866Y-109775713D01*
X105628866Y-109775713D02*
X105819342Y-109775713D01*
X105819342Y-109775713D02*
X105914580Y-109728094D01*
X105914580Y-109728094D02*
X105962200Y-109680475D01*
X105962200Y-109680475D02*
X106009819Y-109585237D01*
X106009819Y-109585237D02*
X106009819Y-109394761D01*
X106009819Y-109394761D02*
X105962200Y-109299523D01*
X105962200Y-109299523D02*
X105914580Y-109251904D01*
X105914580Y-109251904D02*
X105819342Y-109204285D01*
X105819342Y-109204285D02*
X105628866Y-109204285D01*
X105628866Y-109204285D02*
X105533628Y-109251904D01*
X105533628Y-109251904D02*
X105486009Y-109299523D01*
X105486009Y-109299523D02*
X105438390Y-109394761D01*
X142903333Y-86654819D02*
X142570000Y-86178628D01*
X142331905Y-86654819D02*
X142331905Y-85654819D01*
X142331905Y-85654819D02*
X142712857Y-85654819D01*
X142712857Y-85654819D02*
X142808095Y-85702438D01*
X142808095Y-85702438D02*
X142855714Y-85750057D01*
X142855714Y-85750057D02*
X142903333Y-85845295D01*
X142903333Y-85845295D02*
X142903333Y-85988152D01*
X142903333Y-85988152D02*
X142855714Y-86083390D01*
X142855714Y-86083390D02*
X142808095Y-86131009D01*
X142808095Y-86131009D02*
X142712857Y-86178628D01*
X142712857Y-86178628D02*
X142331905Y-86178628D01*
X143236667Y-85654819D02*
X143903333Y-85654819D01*
X143903333Y-85654819D02*
X143474762Y-86654819D01*
X153094819Y-118943333D02*
X153809104Y-118943333D01*
X153809104Y-118943333D02*
X153951961Y-118990952D01*
X153951961Y-118990952D02*
X154047200Y-119086190D01*
X154047200Y-119086190D02*
X154094819Y-119229047D01*
X154094819Y-119229047D02*
X154094819Y-119324285D01*
X153094819Y-118562380D02*
X153094819Y-117943333D01*
X153094819Y-117943333D02*
X153475771Y-118276666D01*
X153475771Y-118276666D02*
X153475771Y-118133809D01*
X153475771Y-118133809D02*
X153523390Y-118038571D01*
X153523390Y-118038571D02*
X153571009Y-117990952D01*
X153571009Y-117990952D02*
X153666247Y-117943333D01*
X153666247Y-117943333D02*
X153904342Y-117943333D01*
X153904342Y-117943333D02*
X153999580Y-117990952D01*
X153999580Y-117990952D02*
X154047200Y-118038571D01*
X154047200Y-118038571D02*
X154094819Y-118133809D01*
X154094819Y-118133809D02*
X154094819Y-118419523D01*
X154094819Y-118419523D02*
X154047200Y-118514761D01*
X154047200Y-118514761D02*
X153999580Y-118562380D01*
X112076666Y-115684819D02*
X112076666Y-116399104D01*
X112076666Y-116399104D02*
X112029047Y-116541961D01*
X112029047Y-116541961D02*
X111933809Y-116637200D01*
X111933809Y-116637200D02*
X111790952Y-116684819D01*
X111790952Y-116684819D02*
X111695714Y-116684819D01*
X112457619Y-115684819D02*
X113124285Y-115684819D01*
X113124285Y-115684819D02*
X112695714Y-116684819D01*
X114199819Y-110356666D02*
X113723628Y-110689999D01*
X114199819Y-110928094D02*
X113199819Y-110928094D01*
X113199819Y-110928094D02*
X113199819Y-110547142D01*
X113199819Y-110547142D02*
X113247438Y-110451904D01*
X113247438Y-110451904D02*
X113295057Y-110404285D01*
X113295057Y-110404285D02*
X113390295Y-110356666D01*
X113390295Y-110356666D02*
X113533152Y-110356666D01*
X113533152Y-110356666D02*
X113628390Y-110404285D01*
X113628390Y-110404285D02*
X113676009Y-110451904D01*
X113676009Y-110451904D02*
X113723628Y-110547142D01*
X113723628Y-110547142D02*
X113723628Y-110928094D01*
X113199819Y-110023332D02*
X113199819Y-109404285D01*
X113199819Y-109404285D02*
X113580771Y-109737618D01*
X113580771Y-109737618D02*
X113580771Y-109594761D01*
X113580771Y-109594761D02*
X113628390Y-109499523D01*
X113628390Y-109499523D02*
X113676009Y-109451904D01*
X113676009Y-109451904D02*
X113771247Y-109404285D01*
X113771247Y-109404285D02*
X114009342Y-109404285D01*
X114009342Y-109404285D02*
X114104580Y-109451904D01*
X114104580Y-109451904D02*
X114152200Y-109499523D01*
X114152200Y-109499523D02*
X114199819Y-109594761D01*
X114199819Y-109594761D02*
X114199819Y-109880475D01*
X114199819Y-109880475D02*
X114152200Y-109975713D01*
X114152200Y-109975713D02*
X114104580Y-110023332D01*
X180804819Y-87519523D02*
X181519104Y-87519523D01*
X181519104Y-87519523D02*
X181661961Y-87567142D01*
X181661961Y-87567142D02*
X181757200Y-87662380D01*
X181757200Y-87662380D02*
X181804819Y-87805237D01*
X181804819Y-87805237D02*
X181804819Y-87900475D01*
X181804819Y-86519523D02*
X181804819Y-87090951D01*
X181804819Y-86805237D02*
X180804819Y-86805237D01*
X180804819Y-86805237D02*
X180947676Y-86900475D01*
X180947676Y-86900475D02*
X181042914Y-86995713D01*
X181042914Y-86995713D02*
X181090533Y-87090951D01*
X180900057Y-86138570D02*
X180852438Y-86090951D01*
X180852438Y-86090951D02*
X180804819Y-85995713D01*
X180804819Y-85995713D02*
X180804819Y-85757618D01*
X180804819Y-85757618D02*
X180852438Y-85662380D01*
X180852438Y-85662380D02*
X180900057Y-85614761D01*
X180900057Y-85614761D02*
X180995295Y-85567142D01*
X180995295Y-85567142D02*
X181090533Y-85567142D01*
X181090533Y-85567142D02*
X181233390Y-85614761D01*
X181233390Y-85614761D02*
X181804819Y-86186189D01*
X181804819Y-86186189D02*
X181804819Y-85567142D01*
X134718095Y-99994819D02*
X134718095Y-100804342D01*
X134718095Y-100804342D02*
X134765714Y-100899580D01*
X134765714Y-100899580D02*
X134813333Y-100947200D01*
X134813333Y-100947200D02*
X134908571Y-100994819D01*
X134908571Y-100994819D02*
X135099047Y-100994819D01*
X135099047Y-100994819D02*
X135194285Y-100947200D01*
X135194285Y-100947200D02*
X135241904Y-100899580D01*
X135241904Y-100899580D02*
X135289523Y-100804342D01*
X135289523Y-100804342D02*
X135289523Y-99994819D01*
X136289523Y-100994819D02*
X135718095Y-100994819D01*
X136003809Y-100994819D02*
X136003809Y-99994819D01*
X136003809Y-99994819D02*
X135908571Y-100137676D01*
X135908571Y-100137676D02*
X135813333Y-100232914D01*
X135813333Y-100232914D02*
X135718095Y-100280533D01*
X123679104Y-83247142D02*
X123679104Y-82770952D01*
X123964819Y-83342380D02*
X122964819Y-83009047D01*
X122964819Y-83009047D02*
X123964819Y-82675714D01*
X123964819Y-82342380D02*
X123298152Y-82342380D01*
X123488628Y-82342380D02*
X123393390Y-82294761D01*
X123393390Y-82294761D02*
X123345771Y-82247142D01*
X123345771Y-82247142D02*
X123298152Y-82151904D01*
X123298152Y-82151904D02*
X123298152Y-82056666D01*
X123964819Y-81294761D02*
X122964819Y-81294761D01*
X123917200Y-81294761D02*
X123964819Y-81389999D01*
X123964819Y-81389999D02*
X123964819Y-81580475D01*
X123964819Y-81580475D02*
X123917200Y-81675713D01*
X123917200Y-81675713D02*
X123869580Y-81723332D01*
X123869580Y-81723332D02*
X123774342Y-81770951D01*
X123774342Y-81770951D02*
X123488628Y-81770951D01*
X123488628Y-81770951D02*
X123393390Y-81723332D01*
X123393390Y-81723332D02*
X123345771Y-81675713D01*
X123345771Y-81675713D02*
X123298152Y-81580475D01*
X123298152Y-81580475D02*
X123298152Y-81389999D01*
X123298152Y-81389999D02*
X123345771Y-81294761D01*
X123298152Y-80389999D02*
X123964819Y-80389999D01*
X123298152Y-80818570D02*
X123821961Y-80818570D01*
X123821961Y-80818570D02*
X123917200Y-80770951D01*
X123917200Y-80770951D02*
X123964819Y-80675713D01*
X123964819Y-80675713D02*
X123964819Y-80532856D01*
X123964819Y-80532856D02*
X123917200Y-80437618D01*
X123917200Y-80437618D02*
X123869580Y-80389999D01*
X123964819Y-79913808D02*
X123298152Y-79913808D01*
X122964819Y-79913808D02*
X123012438Y-79961427D01*
X123012438Y-79961427D02*
X123060057Y-79913808D01*
X123060057Y-79913808D02*
X123012438Y-79866189D01*
X123012438Y-79866189D02*
X122964819Y-79913808D01*
X122964819Y-79913808D02*
X123060057Y-79913808D01*
X123298152Y-79437618D02*
X123964819Y-79437618D01*
X123393390Y-79437618D02*
X123345771Y-79389999D01*
X123345771Y-79389999D02*
X123298152Y-79294761D01*
X123298152Y-79294761D02*
X123298152Y-79151904D01*
X123298152Y-79151904D02*
X123345771Y-79056666D01*
X123345771Y-79056666D02*
X123441009Y-79009047D01*
X123441009Y-79009047D02*
X123964819Y-79009047D01*
X123964819Y-78389999D02*
X123917200Y-78485237D01*
X123917200Y-78485237D02*
X123869580Y-78532856D01*
X123869580Y-78532856D02*
X123774342Y-78580475D01*
X123774342Y-78580475D02*
X123488628Y-78580475D01*
X123488628Y-78580475D02*
X123393390Y-78532856D01*
X123393390Y-78532856D02*
X123345771Y-78485237D01*
X123345771Y-78485237D02*
X123298152Y-78389999D01*
X123298152Y-78389999D02*
X123298152Y-78247142D01*
X123298152Y-78247142D02*
X123345771Y-78151904D01*
X123345771Y-78151904D02*
X123393390Y-78104285D01*
X123393390Y-78104285D02*
X123488628Y-78056666D01*
X123488628Y-78056666D02*
X123774342Y-78056666D01*
X123774342Y-78056666D02*
X123869580Y-78104285D01*
X123869580Y-78104285D02*
X123917200Y-78151904D01*
X123917200Y-78151904D02*
X123964819Y-78247142D01*
X123964819Y-78247142D02*
X123964819Y-78389999D01*
X124060057Y-77866190D02*
X124060057Y-77104285D01*
X123964819Y-76866189D02*
X122964819Y-76866189D01*
X122964819Y-76866189D02*
X123964819Y-76294761D01*
X123964819Y-76294761D02*
X122964819Y-76294761D01*
X123964819Y-75389999D02*
X123441009Y-75389999D01*
X123441009Y-75389999D02*
X123345771Y-75437618D01*
X123345771Y-75437618D02*
X123298152Y-75532856D01*
X123298152Y-75532856D02*
X123298152Y-75723332D01*
X123298152Y-75723332D02*
X123345771Y-75818570D01*
X123917200Y-75389999D02*
X123964819Y-75485237D01*
X123964819Y-75485237D02*
X123964819Y-75723332D01*
X123964819Y-75723332D02*
X123917200Y-75818570D01*
X123917200Y-75818570D02*
X123821961Y-75866189D01*
X123821961Y-75866189D02*
X123726723Y-75866189D01*
X123726723Y-75866189D02*
X123631485Y-75818570D01*
X123631485Y-75818570D02*
X123583866Y-75723332D01*
X123583866Y-75723332D02*
X123583866Y-75485237D01*
X123583866Y-75485237D02*
X123536247Y-75389999D01*
X123298152Y-74913808D02*
X123964819Y-74913808D01*
X123393390Y-74913808D02*
X123345771Y-74866189D01*
X123345771Y-74866189D02*
X123298152Y-74770951D01*
X123298152Y-74770951D02*
X123298152Y-74628094D01*
X123298152Y-74628094D02*
X123345771Y-74532856D01*
X123345771Y-74532856D02*
X123441009Y-74485237D01*
X123441009Y-74485237D02*
X123964819Y-74485237D01*
X123964819Y-73866189D02*
X123917200Y-73961427D01*
X123917200Y-73961427D02*
X123869580Y-74009046D01*
X123869580Y-74009046D02*
X123774342Y-74056665D01*
X123774342Y-74056665D02*
X123488628Y-74056665D01*
X123488628Y-74056665D02*
X123393390Y-74009046D01*
X123393390Y-74009046D02*
X123345771Y-73961427D01*
X123345771Y-73961427D02*
X123298152Y-73866189D01*
X123298152Y-73866189D02*
X123298152Y-73723332D01*
X123298152Y-73723332D02*
X123345771Y-73628094D01*
X123345771Y-73628094D02*
X123393390Y-73580475D01*
X123393390Y-73580475D02*
X123488628Y-73532856D01*
X123488628Y-73532856D02*
X123774342Y-73532856D01*
X123774342Y-73532856D02*
X123869580Y-73580475D01*
X123869580Y-73580475D02*
X123917200Y-73628094D01*
X123917200Y-73628094D02*
X123964819Y-73723332D01*
X123964819Y-73723332D02*
X123964819Y-73866189D01*
X126041904Y-62425180D02*
X126041904Y-61615657D01*
X126041904Y-61615657D02*
X125994285Y-61520419D01*
X125994285Y-61520419D02*
X125946666Y-61472800D01*
X125946666Y-61472800D02*
X125851428Y-61425180D01*
X125851428Y-61425180D02*
X125660952Y-61425180D01*
X125660952Y-61425180D02*
X125565714Y-61472800D01*
X125565714Y-61472800D02*
X125518095Y-61520419D01*
X125518095Y-61520419D02*
X125470476Y-61615657D01*
X125470476Y-61615657D02*
X125470476Y-62425180D01*
X125041904Y-61472800D02*
X124899047Y-61425180D01*
X124899047Y-61425180D02*
X124660952Y-61425180D01*
X124660952Y-61425180D02*
X124565714Y-61472800D01*
X124565714Y-61472800D02*
X124518095Y-61520419D01*
X124518095Y-61520419D02*
X124470476Y-61615657D01*
X124470476Y-61615657D02*
X124470476Y-61710895D01*
X124470476Y-61710895D02*
X124518095Y-61806133D01*
X124518095Y-61806133D02*
X124565714Y-61853752D01*
X124565714Y-61853752D02*
X124660952Y-61901371D01*
X124660952Y-61901371D02*
X124851428Y-61948990D01*
X124851428Y-61948990D02*
X124946666Y-61996609D01*
X124946666Y-61996609D02*
X124994285Y-62044228D01*
X124994285Y-62044228D02*
X125041904Y-62139466D01*
X125041904Y-62139466D02*
X125041904Y-62234704D01*
X125041904Y-62234704D02*
X124994285Y-62329942D01*
X124994285Y-62329942D02*
X124946666Y-62377561D01*
X124946666Y-62377561D02*
X124851428Y-62425180D01*
X124851428Y-62425180D02*
X124613333Y-62425180D01*
X124613333Y-62425180D02*
X124470476Y-62377561D01*
X123708571Y-61948990D02*
X123565714Y-61901371D01*
X123565714Y-61901371D02*
X123518095Y-61853752D01*
X123518095Y-61853752D02*
X123470476Y-61758514D01*
X123470476Y-61758514D02*
X123470476Y-61615657D01*
X123470476Y-61615657D02*
X123518095Y-61520419D01*
X123518095Y-61520419D02*
X123565714Y-61472800D01*
X123565714Y-61472800D02*
X123660952Y-61425180D01*
X123660952Y-61425180D02*
X124041904Y-61425180D01*
X124041904Y-61425180D02*
X124041904Y-62425180D01*
X124041904Y-62425180D02*
X123708571Y-62425180D01*
X123708571Y-62425180D02*
X123613333Y-62377561D01*
X123613333Y-62377561D02*
X123565714Y-62329942D01*
X123565714Y-62329942D02*
X123518095Y-62234704D01*
X123518095Y-62234704D02*
X123518095Y-62139466D01*
X123518095Y-62139466D02*
X123565714Y-62044228D01*
X123565714Y-62044228D02*
X123613333Y-61996609D01*
X123613333Y-61996609D02*
X123708571Y-61948990D01*
X123708571Y-61948990D02*
X124041904Y-61948990D01*
X103826666Y-115684819D02*
X103826666Y-116399104D01*
X103826666Y-116399104D02*
X103779047Y-116541961D01*
X103779047Y-116541961D02*
X103683809Y-116637200D01*
X103683809Y-116637200D02*
X103540952Y-116684819D01*
X103540952Y-116684819D02*
X103445714Y-116684819D01*
X104731428Y-115684819D02*
X104540952Y-115684819D01*
X104540952Y-115684819D02*
X104445714Y-115732438D01*
X104445714Y-115732438D02*
X104398095Y-115780057D01*
X104398095Y-115780057D02*
X104302857Y-115922914D01*
X104302857Y-115922914D02*
X104255238Y-116113390D01*
X104255238Y-116113390D02*
X104255238Y-116494342D01*
X104255238Y-116494342D02*
X104302857Y-116589580D01*
X104302857Y-116589580D02*
X104350476Y-116637200D01*
X104350476Y-116637200D02*
X104445714Y-116684819D01*
X104445714Y-116684819D02*
X104636190Y-116684819D01*
X104636190Y-116684819D02*
X104731428Y-116637200D01*
X104731428Y-116637200D02*
X104779047Y-116589580D01*
X104779047Y-116589580D02*
X104826666Y-116494342D01*
X104826666Y-116494342D02*
X104826666Y-116256247D01*
X104826666Y-116256247D02*
X104779047Y-116161009D01*
X104779047Y-116161009D02*
X104731428Y-116113390D01*
X104731428Y-116113390D02*
X104636190Y-116065771D01*
X104636190Y-116065771D02*
X104445714Y-116065771D01*
X104445714Y-116065771D02*
X104350476Y-116113390D01*
X104350476Y-116113390D02*
X104302857Y-116161009D01*
X104302857Y-116161009D02*
X104255238Y-116256247D01*
X121326666Y-115684819D02*
X121326666Y-116399104D01*
X121326666Y-116399104D02*
X121279047Y-116541961D01*
X121279047Y-116541961D02*
X121183809Y-116637200D01*
X121183809Y-116637200D02*
X121040952Y-116684819D01*
X121040952Y-116684819D02*
X120945714Y-116684819D01*
X121945714Y-116113390D02*
X121850476Y-116065771D01*
X121850476Y-116065771D02*
X121802857Y-116018152D01*
X121802857Y-116018152D02*
X121755238Y-115922914D01*
X121755238Y-115922914D02*
X121755238Y-115875295D01*
X121755238Y-115875295D02*
X121802857Y-115780057D01*
X121802857Y-115780057D02*
X121850476Y-115732438D01*
X121850476Y-115732438D02*
X121945714Y-115684819D01*
X121945714Y-115684819D02*
X122136190Y-115684819D01*
X122136190Y-115684819D02*
X122231428Y-115732438D01*
X122231428Y-115732438D02*
X122279047Y-115780057D01*
X122279047Y-115780057D02*
X122326666Y-115875295D01*
X122326666Y-115875295D02*
X122326666Y-115922914D01*
X122326666Y-115922914D02*
X122279047Y-116018152D01*
X122279047Y-116018152D02*
X122231428Y-116065771D01*
X122231428Y-116065771D02*
X122136190Y-116113390D01*
X122136190Y-116113390D02*
X121945714Y-116113390D01*
X121945714Y-116113390D02*
X121850476Y-116161009D01*
X121850476Y-116161009D02*
X121802857Y-116208628D01*
X121802857Y-116208628D02*
X121755238Y-116303866D01*
X121755238Y-116303866D02*
X121755238Y-116494342D01*
X121755238Y-116494342D02*
X121802857Y-116589580D01*
X121802857Y-116589580D02*
X121850476Y-116637200D01*
X121850476Y-116637200D02*
X121945714Y-116684819D01*
X121945714Y-116684819D02*
X122136190Y-116684819D01*
X122136190Y-116684819D02*
X122231428Y-116637200D01*
X122231428Y-116637200D02*
X122279047Y-116589580D01*
X122279047Y-116589580D02*
X122326666Y-116494342D01*
X122326666Y-116494342D02*
X122326666Y-116303866D01*
X122326666Y-116303866D02*
X122279047Y-116208628D01*
X122279047Y-116208628D02*
X122231428Y-116161009D01*
X122231428Y-116161009D02*
X122136190Y-116113390D01*
X110064819Y-62966666D02*
X109588628Y-63299999D01*
X110064819Y-63538094D02*
X109064819Y-63538094D01*
X109064819Y-63538094D02*
X109064819Y-63157142D01*
X109064819Y-63157142D02*
X109112438Y-63061904D01*
X109112438Y-63061904D02*
X109160057Y-63014285D01*
X109160057Y-63014285D02*
X109255295Y-62966666D01*
X109255295Y-62966666D02*
X109398152Y-62966666D01*
X109398152Y-62966666D02*
X109493390Y-63014285D01*
X109493390Y-63014285D02*
X109541009Y-63061904D01*
X109541009Y-63061904D02*
X109588628Y-63157142D01*
X109588628Y-63157142D02*
X109588628Y-63538094D01*
X110064819Y-62014285D02*
X110064819Y-62585713D01*
X110064819Y-62299999D02*
X109064819Y-62299999D01*
X109064819Y-62299999D02*
X109207676Y-62395237D01*
X109207676Y-62395237D02*
X109302914Y-62490475D01*
X109302914Y-62490475D02*
X109350533Y-62585713D01*
X96579819Y-110216666D02*
X96103628Y-110549999D01*
X96579819Y-110788094D02*
X95579819Y-110788094D01*
X95579819Y-110788094D02*
X95579819Y-110407142D01*
X95579819Y-110407142D02*
X95627438Y-110311904D01*
X95627438Y-110311904D02*
X95675057Y-110264285D01*
X95675057Y-110264285D02*
X95770295Y-110216666D01*
X95770295Y-110216666D02*
X95913152Y-110216666D01*
X95913152Y-110216666D02*
X96008390Y-110264285D01*
X96008390Y-110264285D02*
X96056009Y-110311904D01*
X96056009Y-110311904D02*
X96103628Y-110407142D01*
X96103628Y-110407142D02*
X96103628Y-110788094D01*
X96579819Y-109740475D02*
X96579819Y-109549999D01*
X96579819Y-109549999D02*
X96532200Y-109454761D01*
X96532200Y-109454761D02*
X96484580Y-109407142D01*
X96484580Y-109407142D02*
X96341723Y-109311904D01*
X96341723Y-109311904D02*
X96151247Y-109264285D01*
X96151247Y-109264285D02*
X95770295Y-109264285D01*
X95770295Y-109264285D02*
X95675057Y-109311904D01*
X95675057Y-109311904D02*
X95627438Y-109359523D01*
X95627438Y-109359523D02*
X95579819Y-109454761D01*
X95579819Y-109454761D02*
X95579819Y-109645237D01*
X95579819Y-109645237D02*
X95627438Y-109740475D01*
X95627438Y-109740475D02*
X95675057Y-109788094D01*
X95675057Y-109788094D02*
X95770295Y-109835713D01*
X95770295Y-109835713D02*
X96008390Y-109835713D01*
X96008390Y-109835713D02*
X96103628Y-109788094D01*
X96103628Y-109788094D02*
X96151247Y-109740475D01*
X96151247Y-109740475D02*
X96198866Y-109645237D01*
X96198866Y-109645237D02*
X96198866Y-109454761D01*
X96198866Y-109454761D02*
X96151247Y-109359523D01*
X96151247Y-109359523D02*
X96103628Y-109311904D01*
X96103628Y-109311904D02*
X96008390Y-109264285D01*
X76744819Y-110342857D02*
X76268628Y-110676190D01*
X76744819Y-110914285D02*
X75744819Y-110914285D01*
X75744819Y-110914285D02*
X75744819Y-110533333D01*
X75744819Y-110533333D02*
X75792438Y-110438095D01*
X75792438Y-110438095D02*
X75840057Y-110390476D01*
X75840057Y-110390476D02*
X75935295Y-110342857D01*
X75935295Y-110342857D02*
X76078152Y-110342857D01*
X76078152Y-110342857D02*
X76173390Y-110390476D01*
X76173390Y-110390476D02*
X76221009Y-110438095D01*
X76221009Y-110438095D02*
X76268628Y-110533333D01*
X76268628Y-110533333D02*
X76268628Y-110914285D01*
X76744819Y-109390476D02*
X76744819Y-109961904D01*
X76744819Y-109676190D02*
X75744819Y-109676190D01*
X75744819Y-109676190D02*
X75887676Y-109771428D01*
X75887676Y-109771428D02*
X75982914Y-109866666D01*
X75982914Y-109866666D02*
X76030533Y-109961904D01*
X75744819Y-108771428D02*
X75744819Y-108676190D01*
X75744819Y-108676190D02*
X75792438Y-108580952D01*
X75792438Y-108580952D02*
X75840057Y-108533333D01*
X75840057Y-108533333D02*
X75935295Y-108485714D01*
X75935295Y-108485714D02*
X76125771Y-108438095D01*
X76125771Y-108438095D02*
X76363866Y-108438095D01*
X76363866Y-108438095D02*
X76554342Y-108485714D01*
X76554342Y-108485714D02*
X76649580Y-108533333D01*
X76649580Y-108533333D02*
X76697200Y-108580952D01*
X76697200Y-108580952D02*
X76744819Y-108676190D01*
X76744819Y-108676190D02*
X76744819Y-108771428D01*
X76744819Y-108771428D02*
X76697200Y-108866666D01*
X76697200Y-108866666D02*
X76649580Y-108914285D01*
X76649580Y-108914285D02*
X76554342Y-108961904D01*
X76554342Y-108961904D02*
X76363866Y-109009523D01*
X76363866Y-109009523D02*
X76125771Y-109009523D01*
X76125771Y-109009523D02*
X75935295Y-108961904D01*
X75935295Y-108961904D02*
X75840057Y-108914285D01*
X75840057Y-108914285D02*
X75792438Y-108866666D01*
X75792438Y-108866666D02*
X75744819Y-108771428D01*
X167604819Y-118943333D02*
X168319104Y-118943333D01*
X168319104Y-118943333D02*
X168461961Y-118990952D01*
X168461961Y-118990952D02*
X168557200Y-119086190D01*
X168557200Y-119086190D02*
X168604819Y-119229047D01*
X168604819Y-119229047D02*
X168604819Y-119324285D01*
X167700057Y-118514761D02*
X167652438Y-118467142D01*
X167652438Y-118467142D02*
X167604819Y-118371904D01*
X167604819Y-118371904D02*
X167604819Y-118133809D01*
X167604819Y-118133809D02*
X167652438Y-118038571D01*
X167652438Y-118038571D02*
X167700057Y-117990952D01*
X167700057Y-117990952D02*
X167795295Y-117943333D01*
X167795295Y-117943333D02*
X167890533Y-117943333D01*
X167890533Y-117943333D02*
X168033390Y-117990952D01*
X168033390Y-117990952D02*
X168604819Y-118562380D01*
X168604819Y-118562380D02*
X168604819Y-117943333D01*
X168044819Y-65938094D02*
X167044819Y-65938094D01*
X167044819Y-65938094D02*
X167044819Y-65699999D01*
X167044819Y-65699999D02*
X167092438Y-65557142D01*
X167092438Y-65557142D02*
X167187676Y-65461904D01*
X167187676Y-65461904D02*
X167282914Y-65414285D01*
X167282914Y-65414285D02*
X167473390Y-65366666D01*
X167473390Y-65366666D02*
X167616247Y-65366666D01*
X167616247Y-65366666D02*
X167806723Y-65414285D01*
X167806723Y-65414285D02*
X167901961Y-65461904D01*
X167901961Y-65461904D02*
X167997200Y-65557142D01*
X167997200Y-65557142D02*
X168044819Y-65699999D01*
X168044819Y-65699999D02*
X168044819Y-65938094D01*
X168044819Y-64414285D02*
X168044819Y-64985713D01*
X168044819Y-64699999D02*
X167044819Y-64699999D01*
X167044819Y-64699999D02*
X167187676Y-64795237D01*
X167187676Y-64795237D02*
X167282914Y-64890475D01*
X167282914Y-64890475D02*
X167330533Y-64985713D01*
X172704819Y-60381904D02*
X171704819Y-60381904D01*
X172704819Y-59810476D02*
X172133390Y-60239047D01*
X171704819Y-59810476D02*
X172276247Y-60381904D01*
D11*
X77361905Y-83333610D02*
X77695238Y-83333610D01*
X77838095Y-83857420D02*
X77361905Y-83857420D01*
X77361905Y-83857420D02*
X77361905Y-82857420D01*
X77361905Y-82857420D02*
X77838095Y-82857420D01*
X78219048Y-83809801D02*
X78361905Y-83857420D01*
X78361905Y-83857420D02*
X78600000Y-83857420D01*
X78600000Y-83857420D02*
X78695238Y-83809801D01*
X78695238Y-83809801D02*
X78742857Y-83762181D01*
X78742857Y-83762181D02*
X78790476Y-83666943D01*
X78790476Y-83666943D02*
X78790476Y-83571705D01*
X78790476Y-83571705D02*
X78742857Y-83476467D01*
X78742857Y-83476467D02*
X78695238Y-83428848D01*
X78695238Y-83428848D02*
X78600000Y-83381229D01*
X78600000Y-83381229D02*
X78409524Y-83333610D01*
X78409524Y-83333610D02*
X78314286Y-83285991D01*
X78314286Y-83285991D02*
X78266667Y-83238372D01*
X78266667Y-83238372D02*
X78219048Y-83143134D01*
X78219048Y-83143134D02*
X78219048Y-83047896D01*
X78219048Y-83047896D02*
X78266667Y-82952658D01*
X78266667Y-82952658D02*
X78314286Y-82905039D01*
X78314286Y-82905039D02*
X78409524Y-82857420D01*
X78409524Y-82857420D02*
X78647619Y-82857420D01*
X78647619Y-82857420D02*
X78790476Y-82905039D01*
X79219048Y-83857420D02*
X79219048Y-82857420D01*
X79219048Y-82857420D02*
X79600000Y-82857420D01*
X79600000Y-82857420D02*
X79695238Y-82905039D01*
X79695238Y-82905039D02*
X79742857Y-82952658D01*
X79742857Y-82952658D02*
X79790476Y-83047896D01*
X79790476Y-83047896D02*
X79790476Y-83190753D01*
X79790476Y-83190753D02*
X79742857Y-83285991D01*
X79742857Y-83285991D02*
X79695238Y-83333610D01*
X79695238Y-83333610D02*
X79600000Y-83381229D01*
X79600000Y-83381229D02*
X79219048Y-83381229D01*
X80219048Y-83476467D02*
X80980953Y-83476467D01*
X81361905Y-82857420D02*
X81980952Y-82857420D01*
X81980952Y-82857420D02*
X81647619Y-83238372D01*
X81647619Y-83238372D02*
X81790476Y-83238372D01*
X81790476Y-83238372D02*
X81885714Y-83285991D01*
X81885714Y-83285991D02*
X81933333Y-83333610D01*
X81933333Y-83333610D02*
X81980952Y-83428848D01*
X81980952Y-83428848D02*
X81980952Y-83666943D01*
X81980952Y-83666943D02*
X81933333Y-83762181D01*
X81933333Y-83762181D02*
X81885714Y-83809801D01*
X81885714Y-83809801D02*
X81790476Y-83857420D01*
X81790476Y-83857420D02*
X81504762Y-83857420D01*
X81504762Y-83857420D02*
X81409524Y-83809801D01*
X81409524Y-83809801D02*
X81361905Y-83762181D01*
X82361905Y-82952658D02*
X82409524Y-82905039D01*
X82409524Y-82905039D02*
X82504762Y-82857420D01*
X82504762Y-82857420D02*
X82742857Y-82857420D01*
X82742857Y-82857420D02*
X82838095Y-82905039D01*
X82838095Y-82905039D02*
X82885714Y-82952658D01*
X82885714Y-82952658D02*
X82933333Y-83047896D01*
X82933333Y-83047896D02*
X82933333Y-83143134D01*
X82933333Y-83143134D02*
X82885714Y-83285991D01*
X82885714Y-83285991D02*
X82314286Y-83857420D01*
X82314286Y-83857420D02*
X82933333Y-83857420D01*
X83361905Y-83857420D02*
X83361905Y-82857420D01*
X83361905Y-82857420D02*
X83600000Y-82857420D01*
X83600000Y-82857420D02*
X83742857Y-82905039D01*
X83742857Y-82905039D02*
X83838095Y-83000277D01*
X83838095Y-83000277D02*
X83885714Y-83095515D01*
X83885714Y-83095515D02*
X83933333Y-83285991D01*
X83933333Y-83285991D02*
X83933333Y-83428848D01*
X83933333Y-83428848D02*
X83885714Y-83619324D01*
X83885714Y-83619324D02*
X83838095Y-83714562D01*
X83838095Y-83714562D02*
X83742857Y-83809801D01*
X83742857Y-83809801D02*
X83600000Y-83857420D01*
X83600000Y-83857420D02*
X83361905Y-83857420D01*
X84885714Y-83857420D02*
X84314286Y-83857420D01*
X84600000Y-83857420D02*
X84600000Y-82857420D01*
X84600000Y-82857420D02*
X84504762Y-83000277D01*
X84504762Y-83000277D02*
X84409524Y-83095515D01*
X84409524Y-83095515D02*
X84314286Y-83143134D01*
D10*
X132634820Y-108923333D02*
X133349105Y-108923333D01*
X133349105Y-108923333D02*
X133491962Y-108970952D01*
X133491962Y-108970952D02*
X133587201Y-109066190D01*
X133587201Y-109066190D02*
X133634820Y-109209047D01*
X133634820Y-109209047D02*
X133634820Y-109304285D01*
X132968153Y-108018571D02*
X133634820Y-108018571D01*
X132587201Y-108256666D02*
X133301486Y-108494761D01*
X133301486Y-108494761D02*
X133301486Y-107875714D01*
X146223333Y-86654819D02*
X145890000Y-86178628D01*
X145651905Y-86654819D02*
X145651905Y-85654819D01*
X145651905Y-85654819D02*
X146032857Y-85654819D01*
X146032857Y-85654819D02*
X146128095Y-85702438D01*
X146128095Y-85702438D02*
X146175714Y-85750057D01*
X146175714Y-85750057D02*
X146223333Y-85845295D01*
X146223333Y-85845295D02*
X146223333Y-85988152D01*
X146223333Y-85988152D02*
X146175714Y-86083390D01*
X146175714Y-86083390D02*
X146128095Y-86131009D01*
X146128095Y-86131009D02*
X146032857Y-86178628D01*
X146032857Y-86178628D02*
X145651905Y-86178628D01*
X147080476Y-85654819D02*
X146890000Y-85654819D01*
X146890000Y-85654819D02*
X146794762Y-85702438D01*
X146794762Y-85702438D02*
X146747143Y-85750057D01*
X146747143Y-85750057D02*
X146651905Y-85892914D01*
X146651905Y-85892914D02*
X146604286Y-86083390D01*
X146604286Y-86083390D02*
X146604286Y-86464342D01*
X146604286Y-86464342D02*
X146651905Y-86559580D01*
X146651905Y-86559580D02*
X146699524Y-86607200D01*
X146699524Y-86607200D02*
X146794762Y-86654819D01*
X146794762Y-86654819D02*
X146985238Y-86654819D01*
X146985238Y-86654819D02*
X147080476Y-86607200D01*
X147080476Y-86607200D02*
X147128095Y-86559580D01*
X147128095Y-86559580D02*
X147175714Y-86464342D01*
X147175714Y-86464342D02*
X147175714Y-86226247D01*
X147175714Y-86226247D02*
X147128095Y-86131009D01*
X147128095Y-86131009D02*
X147080476Y-86083390D01*
X147080476Y-86083390D02*
X146985238Y-86035771D01*
X146985238Y-86035771D02*
X146794762Y-86035771D01*
X146794762Y-86035771D02*
X146699524Y-86083390D01*
X146699524Y-86083390D02*
X146651905Y-86131009D01*
X146651905Y-86131009D02*
X146604286Y-86226247D01*
D12*
%TO.C,C1*%
X157830346Y-80846826D02*
X158113189Y-81129669D01*
X157830346Y-81129669D02*
X158113189Y-80846826D01*
X158809548Y-78898888D02*
X159686360Y-79775700D01*
X158837832Y-78870604D02*
X159714645Y-79747416D01*
X158867531Y-78843733D02*
X159742929Y-79719132D01*
X158896522Y-78816156D02*
X159771213Y-79690847D01*
X158926928Y-78789993D02*
X159799497Y-79662563D01*
X158957333Y-78763830D02*
X159827782Y-79634279D01*
X158989153Y-78739082D02*
X159856066Y-79605995D01*
X159020973Y-78714333D02*
X159884350Y-79577710D01*
X159052793Y-78689584D02*
X159912635Y-79549426D01*
X159086027Y-78666250D02*
X159940919Y-79521142D01*
X159119261Y-78642915D02*
X159969203Y-79492858D01*
X159153202Y-78620288D02*
X159997487Y-79464573D01*
X159187850Y-78598367D02*
X160025772Y-79436289D01*
X159223205Y-78577154D02*
X160054056Y-79408005D01*
X159258561Y-78555941D02*
X160082340Y-79379720D01*
X159295330Y-78536142D02*
X160110624Y-79351436D01*
X159332100Y-78516343D02*
X160138909Y-79323152D01*
X159369577Y-78497251D02*
X160167193Y-79294868D01*
X159407760Y-78478866D02*
X160195477Y-79266583D01*
X159446651Y-78461189D02*
X160223762Y-79238299D01*
X159486249Y-78444218D02*
X160252046Y-79210015D01*
X159526554Y-78427955D02*
X160280330Y-79181731D01*
X159566859Y-78411691D02*
X160308614Y-79153446D01*
X159608579Y-78396842D02*
X160336899Y-79125162D01*
X159651005Y-78382700D02*
X160365183Y-79096878D01*
X159694139Y-78369265D02*
X160393467Y-79068593D01*
X159737979Y-78356537D02*
X160421751Y-79040309D01*
X159782527Y-78344516D02*
X160450036Y-79012025D01*
X159827782Y-78333202D02*
X160478320Y-78983741D01*
X159874451Y-78323303D02*
X160506604Y-78955456D01*
X159921120Y-78313403D02*
X160534889Y-78927172D01*
X159969203Y-78304918D02*
X160563173Y-78898888D01*
X160018701Y-78297847D02*
X160591457Y-78870604D01*
X160068905Y-78291483D02*
X160619741Y-78842319D01*
X160120524Y-78286533D02*
X160648026Y-78814035D01*
X160172850Y-78282291D02*
X160676310Y-78785751D01*
X160226590Y-78279462D02*
X160704594Y-78757466D01*
X160281744Y-78278048D02*
X160732878Y-78729182D01*
X160338313Y-78278048D02*
X160761163Y-78700898D01*
X160396296Y-78279462D02*
X160789447Y-78672614D01*
X160456400Y-78282998D02*
X162367002Y-80193600D01*
X160518625Y-78288655D02*
X162361345Y-80131375D01*
X160582265Y-78295726D02*
X162354274Y-80067735D01*
X160648733Y-78305625D02*
X162344375Y-80001267D01*
X160717322Y-78317646D02*
X162332354Y-79932678D01*
X160789447Y-78333202D02*
X162316798Y-79860553D01*
X160865107Y-78352294D02*
X162297706Y-79784893D01*
X160874300Y-80963640D02*
X161751112Y-81840452D01*
X160902584Y-80935355D02*
X161779396Y-81812168D01*
X160930868Y-80907071D02*
X161806267Y-81782469D01*
X160945010Y-78375629D02*
X162274371Y-79704990D01*
X160959153Y-80878787D02*
X161833844Y-81753478D01*
X160987437Y-80850503D02*
X161860007Y-81723072D01*
X161015721Y-80822218D02*
X161886170Y-81692667D01*
X161030570Y-78404620D02*
X162245380Y-79619430D01*
X161044005Y-80793934D02*
X161910918Y-81660847D01*
X161072290Y-80765650D02*
X161935667Y-81629027D01*
X161100574Y-80737365D02*
X161960416Y-81597207D01*
X161123201Y-78440683D02*
X162209317Y-79526799D01*
X161128858Y-80709081D02*
X161983750Y-81563973D01*
X161157142Y-80680797D02*
X162007085Y-81530739D01*
X161185427Y-80652513D02*
X162029712Y-81496798D01*
X161213711Y-80624228D02*
X162051633Y-81462150D01*
X161225732Y-78486645D02*
X162163355Y-79424268D01*
X161241995Y-80595944D02*
X162072846Y-81426795D01*
X161270280Y-80567660D02*
X162094059Y-81391439D01*
X161298564Y-80539376D02*
X162113858Y-81354670D01*
X161326848Y-80511091D02*
X162133657Y-81317900D01*
X161343112Y-78547456D02*
X162102544Y-79306888D01*
X161355132Y-80482807D02*
X162152749Y-81280423D01*
X161383417Y-80454523D02*
X162171134Y-81242240D01*
X161411701Y-80426238D02*
X162188811Y-81203349D01*
X161439985Y-80397954D02*
X162205782Y-81163751D01*
X161468269Y-80369670D02*
X162222045Y-81123446D01*
X161489483Y-78637258D02*
X162012742Y-79160517D01*
X161496554Y-80341386D02*
X162238309Y-81083141D01*
X161524838Y-80313101D02*
X162253158Y-81041421D01*
X161553122Y-80284817D02*
X162267300Y-80998995D01*
X161581407Y-80256533D02*
X162280735Y-80955861D01*
X161609691Y-80228249D02*
X162293463Y-80912021D01*
X161637975Y-80199964D02*
X162305484Y-80867473D01*
X161666259Y-80171680D02*
X162316798Y-80822218D01*
X161694544Y-80143396D02*
X162326697Y-80775549D01*
X161722828Y-80115111D02*
X162336597Y-80728880D01*
X161751112Y-80086827D02*
X162345082Y-80680797D01*
X161779396Y-80058543D02*
X162352153Y-80631299D01*
X161807681Y-80030259D02*
X162358517Y-80581095D01*
X161835965Y-80001974D02*
X162363467Y-80529476D01*
X161864249Y-79973690D02*
X162367709Y-80477150D01*
X161892534Y-79945406D02*
X162370538Y-80423410D01*
X161920818Y-79917122D02*
X162371952Y-80368256D01*
X161949102Y-79888837D02*
X162371952Y-80311687D01*
X161977386Y-79860553D02*
X162370538Y-80253704D01*
X162400329Y-80369670D02*
G75*
G02*
X158160331Y-80369670I-2119999J0D01*
G01*
X158160331Y-80369670D02*
G75*
G02*
X162400329Y-80369670I2119999J0D01*
G01*
%TO.C,J1*%
X104210001Y-102940000D02*
X104210002Y-101560000D01*
X105590001Y-102939999D02*
X104210001Y-102940000D01*
X106860001Y-100180000D02*
X114590001Y-100180001D01*
X106860001Y-102940000D02*
X106860001Y-100180000D01*
X106860001Y-102940000D02*
X114590001Y-102939999D01*
X114590001Y-102939999D02*
X114590001Y-100180001D01*
%TO.C,J13*%
X139260000Y-48540000D02*
X148460000Y-48540000D01*
X139260000Y-57140000D02*
X139260000Y-48540000D01*
X139260000Y-63040000D02*
X139260000Y-61740000D01*
X141260000Y-63040000D02*
X139260000Y-63040000D01*
X147060000Y-63340000D02*
X148760000Y-63340000D01*
X148460000Y-48540000D02*
X148460000Y-63040000D01*
X148460000Y-63040000D02*
X146460000Y-63040000D01*
X148760000Y-63340000D02*
X148760000Y-62040000D01*
%TO.C,Q2*%
X164977500Y-94519999D02*
X175197500Y-94519999D01*
X164977500Y-99139999D02*
X164977500Y-94519999D01*
X168237500Y-99139999D02*
X168237500Y-97759999D01*
X171937500Y-99139999D02*
X171937500Y-97759999D01*
X175197500Y-94519999D02*
X175197500Y-99140000D01*
X175197500Y-97759999D02*
X164977500Y-97759999D01*
X175197500Y-99140000D02*
X164977500Y-99139999D01*
%TO.C,D2*%
X170087500Y-82970000D02*
X170087500Y-83990000D01*
X170087500Y-90450000D02*
X170087500Y-89430000D01*
X171557500Y-84770000D02*
X168617500Y-84770000D01*
X171557500Y-84890000D02*
X168617500Y-84890000D01*
X171557500Y-85010000D02*
X168617500Y-85010000D01*
X171557500Y-89430000D02*
X168617500Y-89430000D01*
X168617500Y-83990000D01*
X171557500Y-83990000D01*
X171557500Y-89430000D01*
%TO.C,U3*%
X149073268Y-71520101D02*
X152340102Y-68253267D01*
X151364294Y-69229075D02*
X158590926Y-76455706D01*
X152340102Y-68253267D02*
X159566733Y-75479899D01*
X154645270Y-70558436D02*
X153669462Y-71534243D01*
X156299900Y-78746732D02*
X149073268Y-71520101D01*
X157261565Y-73174731D02*
X156285758Y-74150538D01*
X159566733Y-75479899D02*
X156299900Y-78746732D01*
%TO.C,J5*%
X92370000Y-119990000D02*
X92370001Y-118610000D01*
X93750000Y-119989999D02*
X92370000Y-119990000D01*
X95020000Y-117230000D02*
X97670000Y-117230000D01*
X95020000Y-119990000D02*
X95020000Y-117230000D01*
X95020000Y-119990000D02*
X97670000Y-119990000D01*
X97670000Y-119990000D02*
X97670000Y-117230000D01*
%TO.C,J9*%
X127760000Y-119990000D02*
X127760001Y-118610000D01*
X129140000Y-119989999D02*
X127760000Y-119990000D01*
X130410000Y-117230000D02*
X133060000Y-117230000D01*
X130410000Y-119990000D02*
X130410000Y-117230000D01*
X130410000Y-119990000D02*
X133060000Y-119990000D01*
X133060000Y-119990000D02*
X133060000Y-117230000D01*
%TO.C,R11*%
X81340000Y-106430000D02*
X81670000Y-106430000D01*
X81340000Y-112970000D02*
X81340000Y-106430000D01*
X81670000Y-112970000D02*
X81340000Y-112970000D01*
X83750000Y-112970000D02*
X84080000Y-112970000D01*
X84080000Y-106430000D02*
X83750000Y-106430000D01*
X84080000Y-112970000D02*
X84080000Y-106430000D01*
%TO.C,Q1*%
X164977500Y-73099998D02*
X175197500Y-73099998D01*
X164977500Y-77719998D02*
X164977500Y-73099998D01*
X168237500Y-77719998D02*
X168237500Y-76339998D01*
X171937500Y-77719998D02*
X171937500Y-76339998D01*
X175197500Y-73099998D02*
X175197500Y-77719999D01*
X175197500Y-76339998D02*
X164977500Y-76339998D01*
X175197500Y-77719999D02*
X164977500Y-77719998D01*
%TO.C,R4*%
X138362222Y-76980000D02*
X138362222Y-83520000D01*
X138362222Y-83520000D02*
X138692222Y-83520000D01*
X138692222Y-76980000D02*
X138362222Y-76980000D01*
X140772222Y-76980000D02*
X141102222Y-76980000D01*
X141102222Y-76980000D02*
X141102222Y-83520000D01*
X141102222Y-83520000D02*
X140772222Y-83520000D01*
%TO.C,R2*%
X107370000Y-59530000D02*
X107700000Y-59530000D01*
X107370000Y-66070000D02*
X107370000Y-59530000D01*
X107700000Y-66070000D02*
X107370000Y-66070000D01*
X109780000Y-66070000D02*
X110110000Y-66070000D01*
X110110000Y-59530000D02*
X109780000Y-59530000D01*
X110110000Y-66070000D02*
X110110000Y-59530000D01*
%TO.C,C2*%
X144987508Y-68067156D02*
X145270351Y-68349999D01*
X144987508Y-68349999D02*
X145270351Y-68067156D01*
X145966710Y-66119218D02*
X146843522Y-66996030D01*
X145994994Y-66090934D02*
X146871807Y-66967746D01*
X146024693Y-66064063D02*
X146900091Y-66939462D01*
X146053684Y-66036486D02*
X146928375Y-66911177D01*
X146084090Y-66010323D02*
X146956659Y-66882893D01*
X146114495Y-65984160D02*
X146984944Y-66854609D01*
X146146315Y-65959412D02*
X147013228Y-66826325D01*
X146178135Y-65934663D02*
X147041512Y-66798040D01*
X146209955Y-65909914D02*
X147069797Y-66769756D01*
X146243189Y-65886580D02*
X147098081Y-66741472D01*
X146276423Y-65863245D02*
X147126365Y-66713188D01*
X146310364Y-65840618D02*
X147154649Y-66684903D01*
X146345012Y-65818697D02*
X147182934Y-66656619D01*
X146380367Y-65797484D02*
X147211218Y-66628335D01*
X146415723Y-65776271D02*
X147239502Y-66600050D01*
X146452492Y-65756472D02*
X147267786Y-66571766D01*
X146489262Y-65736673D02*
X147296071Y-66543482D01*
X146526739Y-65717581D02*
X147324355Y-66515198D01*
X146564922Y-65699196D02*
X147352639Y-66486913D01*
X146603813Y-65681519D02*
X147380924Y-66458629D01*
X146643411Y-65664548D02*
X147409208Y-66430345D01*
X146683716Y-65648285D02*
X147437492Y-66402061D01*
X146724021Y-65632021D02*
X147465776Y-66373776D01*
X146765741Y-65617172D02*
X147494061Y-66345492D01*
X146808167Y-65603030D02*
X147522345Y-66317208D01*
X146851301Y-65589595D02*
X147550629Y-66288923D01*
X146895141Y-65576867D02*
X147578913Y-66260639D01*
X146939689Y-65564846D02*
X147607198Y-66232355D01*
X146984944Y-65553532D02*
X147635482Y-66204071D01*
X147031613Y-65543633D02*
X147663766Y-66175786D01*
X147078282Y-65533733D02*
X147692051Y-66147502D01*
X147126365Y-65525248D02*
X147720335Y-66119218D01*
X147175863Y-65518177D02*
X147748619Y-66090934D01*
X147226067Y-65511813D02*
X147776903Y-66062649D01*
X147277686Y-65506863D02*
X147805188Y-66034365D01*
X147330012Y-65502621D02*
X147833472Y-66006081D01*
X147383752Y-65499792D02*
X147861756Y-65977796D01*
X147438906Y-65498378D02*
X147890040Y-65949512D01*
X147495475Y-65498378D02*
X147918325Y-65921228D01*
X147553458Y-65499792D02*
X147946609Y-65892944D01*
X147613562Y-65503328D02*
X149524164Y-67413930D01*
X147675787Y-65508985D02*
X149518507Y-67351705D01*
X147739427Y-65516056D02*
X149511436Y-67288065D01*
X147805895Y-65525955D02*
X149501537Y-67221597D01*
X147874484Y-65537976D02*
X149489516Y-67153008D01*
X147946609Y-65553532D02*
X149473960Y-67080883D01*
X148022269Y-65572624D02*
X149454868Y-67005223D01*
X148031462Y-68183970D02*
X148908274Y-69060782D01*
X148059746Y-68155685D02*
X148936558Y-69032498D01*
X148088030Y-68127401D02*
X148963429Y-69002799D01*
X148102172Y-65595959D02*
X149431533Y-66925320D01*
X148116315Y-68099117D02*
X148991006Y-68973808D01*
X148144599Y-68070833D02*
X149017169Y-68943402D01*
X148172883Y-68042548D02*
X149043332Y-68912997D01*
X148187732Y-65624950D02*
X149402542Y-66839760D01*
X148201167Y-68014264D02*
X149068080Y-68881177D01*
X148229452Y-67985980D02*
X149092829Y-68849357D01*
X148257736Y-67957695D02*
X149117578Y-68817537D01*
X148280363Y-65661013D02*
X149366479Y-66747129D01*
X148286020Y-67929411D02*
X149140912Y-68784303D01*
X148314304Y-67901127D02*
X149164247Y-68751069D01*
X148342589Y-67872843D02*
X149186874Y-68717128D01*
X148370873Y-67844558D02*
X149208795Y-68682480D01*
X148382894Y-65706975D02*
X149320517Y-66644598D01*
X148399157Y-67816274D02*
X149230008Y-68647125D01*
X148427442Y-67787990D02*
X149251221Y-68611769D01*
X148455726Y-67759706D02*
X149271020Y-68575000D01*
X148484010Y-67731421D02*
X149290819Y-68538230D01*
X148500274Y-65767786D02*
X149259706Y-66527218D01*
X148512294Y-67703137D02*
X149309911Y-68500753D01*
X148540579Y-67674853D02*
X149328296Y-68462570D01*
X148568863Y-67646568D02*
X149345973Y-68423679D01*
X148597147Y-67618284D02*
X149362944Y-68384081D01*
X148625431Y-67590000D02*
X149379207Y-68343776D01*
X148646645Y-65857588D02*
X149169904Y-66380847D01*
X148653716Y-67561716D02*
X149395471Y-68303471D01*
X148682000Y-67533431D02*
X149410320Y-68261751D01*
X148710284Y-67505147D02*
X149424462Y-68219325D01*
X148738569Y-67476863D02*
X149437897Y-68176191D01*
X148766853Y-67448579D02*
X149450625Y-68132351D01*
X148795137Y-67420294D02*
X149462646Y-68087803D01*
X148823421Y-67392010D02*
X149473960Y-68042548D01*
X148851706Y-67363726D02*
X149483859Y-67995879D01*
X148879990Y-67335441D02*
X149493759Y-67949210D01*
X148908274Y-67307157D02*
X149502244Y-67901127D01*
X148936558Y-67278873D02*
X149509315Y-67851629D01*
X148964843Y-67250589D02*
X149515679Y-67801425D01*
X148993127Y-67222304D02*
X149520629Y-67749806D01*
X149021411Y-67194020D02*
X149524871Y-67697480D01*
X149049696Y-67165736D02*
X149527700Y-67643740D01*
X149077980Y-67137452D02*
X149529114Y-67588586D01*
X149106264Y-67109167D02*
X149529114Y-67532017D01*
X149134548Y-67080883D02*
X149527700Y-67474034D01*
X149557491Y-67590000D02*
G75*
G02*
X145317493Y-67590000I-2119999J0D01*
G01*
X145317493Y-67590000D02*
G75*
G02*
X149557491Y-67590000I2119999J0D01*
G01*
%TO.C,J11*%
X173610000Y-62399999D02*
X180350000Y-62399999D01*
X173610000Y-63719999D02*
X173610000Y-62399999D01*
X173610000Y-68179999D02*
X173610000Y-64319999D01*
X174130000Y-62399999D02*
X174130000Y-68179999D01*
X179230000Y-62399999D02*
X179230000Y-68179999D01*
X180350000Y-62399999D02*
X180350000Y-68179999D01*
X180350000Y-68179999D02*
X173610000Y-68179999D01*
X173610000Y-64019999D02*
X173000000Y-64459999D01*
X173000000Y-63579999D01*
X173610000Y-64019999D01*
G36*
X173610000Y-64019999D02*
G01*
X173000000Y-64459999D01*
X173000000Y-63579999D01*
X173610000Y-64019999D01*
G37*
%TO.C,R5*%
X135113333Y-76980000D02*
X135113333Y-83520000D01*
X135113333Y-83520000D02*
X135443333Y-83520000D01*
X135443333Y-76980000D02*
X135113333Y-76980000D01*
X137523333Y-76980000D02*
X137853333Y-76980000D01*
X137853333Y-76980000D02*
X137853333Y-83520000D01*
X137853333Y-83520000D02*
X137523333Y-83520000D01*
%TO.C,R8*%
X101815000Y-106720000D02*
X101815000Y-113260000D01*
X101815000Y-113260000D02*
X102145000Y-113260000D01*
X102145000Y-106720000D02*
X101815000Y-106720000D01*
X104225000Y-106720000D02*
X104555000Y-106720000D01*
X104555000Y-106720000D02*
X104555000Y-113260000D01*
X104555000Y-113260000D02*
X104225000Y-113260000D01*
%TO.C,R7*%
X141611111Y-76980000D02*
X141611111Y-83520000D01*
X141611111Y-83520000D02*
X141941111Y-83520000D01*
X141941111Y-76980000D02*
X141611111Y-76980000D01*
X144021111Y-76980000D02*
X144351111Y-76980000D01*
X144351111Y-76980000D02*
X144351111Y-83520000D01*
X144351111Y-83520000D02*
X144021111Y-83520000D01*
%TO.C,J3*%
X154640000Y-119990000D02*
X154640001Y-118610000D01*
X156020000Y-119989999D02*
X154640000Y-119990000D01*
X157290000Y-117230000D02*
X165020000Y-117230001D01*
X157290000Y-119990000D02*
X157290000Y-117230000D01*
X157290000Y-119990000D02*
X165020000Y-119989999D01*
X165020000Y-119989999D02*
X165020000Y-117230001D01*
%TO.C,J7*%
X110050000Y-119990000D02*
X110050001Y-118610000D01*
X111430000Y-119989999D02*
X110050000Y-119990000D01*
X112700000Y-117230000D02*
X115350000Y-117230000D01*
X112700000Y-119990000D02*
X112700000Y-117230000D01*
X112700000Y-119990000D02*
X115350000Y-119990000D01*
X115350000Y-119990000D02*
X115350000Y-117230000D01*
%TO.C,R3*%
X110005000Y-106920000D02*
X110005000Y-113460000D01*
X110005000Y-113460000D02*
X110335000Y-113460000D01*
X110335000Y-106920000D02*
X110005000Y-106920000D01*
X112415000Y-106920000D02*
X112745000Y-106920000D01*
X112745000Y-106920000D02*
X112745000Y-113460000D01*
X112745000Y-113460000D02*
X112415000Y-113460000D01*
%TO.C,J12*%
X173610000Y-83820000D02*
X180350000Y-83820000D01*
X173610000Y-85140000D02*
X173610000Y-83820000D01*
X173610000Y-89600000D02*
X173610000Y-85740000D01*
X174130000Y-83820000D02*
X174130000Y-89600000D01*
X179230000Y-83820000D02*
X179230000Y-89600000D01*
X180350000Y-83820000D02*
X180350000Y-89600000D01*
X180350000Y-89600000D02*
X173610000Y-89600000D01*
X173610000Y-85440000D02*
X173000000Y-85880000D01*
X173000000Y-85000000D01*
X173610000Y-85440000D01*
G36*
X173610000Y-85440000D02*
G01*
X173000000Y-85880000D01*
X173000000Y-85000000D01*
X173610000Y-85440000D01*
G37*
%TO.C,U1*%
X115760000Y-57940000D02*
X115760000Y-101380000D01*
X115760000Y-57940000D02*
X120840000Y-57940001D01*
X115760000Y-101380000D02*
X133800000Y-101380000D01*
X118430000Y-60610000D02*
X115760000Y-60610000D01*
X118430000Y-98710000D02*
X115760000Y-98710000D01*
X118430000Y-98710000D02*
X118430000Y-60610000D01*
X120840000Y-65820000D02*
X120840001Y-55400000D01*
X120840001Y-55400000D02*
X128720000Y-55400000D01*
X128720000Y-55400000D02*
X128720000Y-65820001D01*
X128720000Y-65820001D02*
X120840000Y-65820000D01*
X131130000Y-60610000D02*
X133800000Y-60610000D01*
X131130000Y-96170000D02*
X131130000Y-60610000D01*
X131130000Y-96170000D02*
X131130000Y-98710000D01*
X131130000Y-96170000D02*
X133800000Y-96170000D01*
X131130000Y-98710000D02*
X133800000Y-98710000D01*
X133800000Y-57940001D02*
X128720000Y-57940000D01*
X133800000Y-96170000D02*
X133800000Y-57940001D01*
X133800000Y-101380000D02*
X133800000Y-98710000D01*
%TO.C,J6*%
X101670000Y-119990000D02*
X101670001Y-118610000D01*
X103050000Y-119989999D02*
X101670000Y-119990000D01*
X104320000Y-117230000D02*
X106970000Y-117230000D01*
X104320000Y-119990000D02*
X104320000Y-117230000D01*
X104320000Y-119990000D02*
X106970000Y-119990000D01*
X106970000Y-119990000D02*
X106970000Y-117230000D01*
%TO.C,J8*%
X119185000Y-119990000D02*
X119185001Y-118610000D01*
X120565000Y-119989999D02*
X119185000Y-119990000D01*
X121835000Y-117230000D02*
X124485000Y-117230000D01*
X121835000Y-119990000D02*
X121835000Y-117230000D01*
X121835000Y-119990000D02*
X124485000Y-119990000D01*
X124485000Y-119990000D02*
X124485000Y-117230000D01*
%TO.C,R1*%
X110610000Y-59530000D02*
X110940000Y-59530000D01*
X110610000Y-66070000D02*
X110610000Y-59530000D01*
X110940000Y-66070000D02*
X110610000Y-66070000D01*
X113020000Y-66070000D02*
X113350000Y-66070000D01*
X113350000Y-59530000D02*
X113020000Y-59530000D01*
X113350000Y-66070000D02*
X113350000Y-59530000D01*
%TO.C,R9*%
X92385000Y-106780000D02*
X92385000Y-113320000D01*
X92385000Y-113320000D02*
X92715000Y-113320000D01*
X92715000Y-106780000D02*
X92385000Y-106780000D01*
X94795000Y-106780000D02*
X95125000Y-106780000D01*
X95125000Y-106780000D02*
X95125000Y-113320000D01*
X95125000Y-113320000D02*
X94795000Y-113320000D01*
%TO.C,R10*%
X77290000Y-106430000D02*
X77620000Y-106430000D01*
X77290000Y-112970000D02*
X77290000Y-106430000D01*
X77620000Y-112970000D02*
X77290000Y-112970000D01*
X79700000Y-112970000D02*
X80030000Y-112970000D01*
X80030000Y-106430000D02*
X79700000Y-106430000D01*
X80030000Y-112970000D02*
X80030000Y-106430000D01*
%TO.C,J2*%
X169150000Y-119990000D02*
X169150001Y-118610000D01*
X170530000Y-119989999D02*
X169150000Y-119990000D01*
X171800000Y-117230000D02*
X179530000Y-117230001D01*
X171800000Y-119990000D02*
X171800000Y-117230000D01*
X171800000Y-119990000D02*
X179530000Y-119989999D01*
X179530000Y-119989999D02*
X179530000Y-117230001D01*
%TO.C,D1*%
X170150000Y-61460000D02*
X170150000Y-62480000D01*
X170150000Y-68940000D02*
X170150000Y-67920000D01*
X171620000Y-63260000D02*
X168680000Y-63260000D01*
X171620000Y-63380000D02*
X168680000Y-63380000D01*
X171620000Y-63500000D02*
X168680000Y-63500000D01*
X171620000Y-67920000D02*
X168680000Y-67920000D01*
X168680000Y-62480000D01*
X171620000Y-62480000D01*
X171620000Y-67920000D01*
D13*
%TO.C,ESP-32D1*%
X67150000Y-54800000D02*
X67150000Y-103000000D01*
X67150000Y-103000000D02*
X95050000Y-103000000D01*
X77040000Y-54800000D02*
X67150000Y-54800000D01*
X85170000Y-54800000D02*
X77040000Y-54800000D01*
X95050000Y-54800000D02*
X85170000Y-54800000D01*
X95050000Y-103000000D02*
X95050000Y-54800000D01*
D14*
X95770000Y-101870000D02*
G75*
G02*
X95570000Y-101870000I-100000J0D01*
G01*
X95570000Y-101870000D02*
G75*
G02*
X95770000Y-101870000I100000J0D01*
G01*
D12*
%TO.C,J4*%
X134180001Y-109970000D02*
X134180002Y-108590000D01*
X135560001Y-109969999D02*
X134180001Y-109970000D01*
X136830001Y-107210000D02*
X142020001Y-107210000D01*
X136830001Y-109970000D02*
X136830001Y-107210000D01*
X136830001Y-109970000D02*
X142020001Y-109970000D01*
X142020001Y-109970000D02*
X142020001Y-107210000D01*
%TO.C,R6*%
X144860000Y-76980000D02*
X144860000Y-83520000D01*
X144860000Y-83520000D02*
X145190000Y-83520000D01*
X145190000Y-76980000D02*
X144860000Y-76980000D01*
X147270000Y-76980000D02*
X147600000Y-76980000D01*
X147600000Y-76980000D02*
X147600000Y-83520000D01*
X147600000Y-83520000D02*
X147270000Y-83520000D01*
%TD*%
M02*
