%TF.GenerationSoftware,KiCad,Pcbnew,9.0.5*%
%TF.CreationDate,2026-02-03T15:15:51-07:00*%
%TF.ProjectId,Full Hydration Station,46756c6c-2048-4796-9472-6174696f6e20,rev?*%
%TF.SameCoordinates,Original*%
%TF.FileFunction,Legend,Top*%
%TF.FilePolarity,Positive*%
%FSLAX46Y46*%
G04 Gerber Fmt 4.6, Leading zero omitted, Abs format (unit mm)*
G04 Created by KiCad (PCBNEW 9.0.5) date 2026-02-03 15:15:51*
%MOMM*%
%LPD*%
G01*
G04 APERTURE LIST*
%ADD10C,0.100000*%
%ADD11C,0.150000*%
%ADD12C,0.120000*%
%ADD13C,0.127000*%
%ADD14C,0.200000*%
G04 APERTURE END LIST*
D10*
X90905000Y-115280000D02*
X118035000Y-115280000D01*
X118035000Y-122640000D01*
X90905000Y-122640000D01*
X90905000Y-115280000D01*
X91208884Y-115152419D02*
X91208884Y-114152419D01*
X91685074Y-114485752D02*
X91685074Y-115152419D01*
X91685074Y-114580990D02*
X91732693Y-114533371D01*
X91732693Y-114533371D02*
X91827931Y-114485752D01*
X91827931Y-114485752D02*
X91970788Y-114485752D01*
X91970788Y-114485752D02*
X92066026Y-114533371D01*
X92066026Y-114533371D02*
X92113645Y-114628609D01*
X92113645Y-114628609D02*
X92113645Y-115152419D01*
X93018407Y-115152419D02*
X93018407Y-114152419D01*
X93018407Y-115104800D02*
X92923169Y-115152419D01*
X92923169Y-115152419D02*
X92732693Y-115152419D01*
X92732693Y-115152419D02*
X92637455Y-115104800D01*
X92637455Y-115104800D02*
X92589836Y-115057180D01*
X92589836Y-115057180D02*
X92542217Y-114961942D01*
X92542217Y-114961942D02*
X92542217Y-114676228D01*
X92542217Y-114676228D02*
X92589836Y-114580990D01*
X92589836Y-114580990D02*
X92637455Y-114533371D01*
X92637455Y-114533371D02*
X92732693Y-114485752D01*
X92732693Y-114485752D02*
X92923169Y-114485752D01*
X92923169Y-114485752D02*
X93018407Y-114533371D01*
X93494598Y-115152419D02*
X93494598Y-114485752D01*
X93494598Y-114152419D02*
X93446979Y-114200038D01*
X93446979Y-114200038D02*
X93494598Y-114247657D01*
X93494598Y-114247657D02*
X93542217Y-114200038D01*
X93542217Y-114200038D02*
X93494598Y-114152419D01*
X93494598Y-114152419D02*
X93494598Y-114247657D01*
X94399359Y-115104800D02*
X94304121Y-115152419D01*
X94304121Y-115152419D02*
X94113645Y-115152419D01*
X94113645Y-115152419D02*
X94018407Y-115104800D01*
X94018407Y-115104800D02*
X93970788Y-115057180D01*
X93970788Y-115057180D02*
X93923169Y-114961942D01*
X93923169Y-114961942D02*
X93923169Y-114676228D01*
X93923169Y-114676228D02*
X93970788Y-114580990D01*
X93970788Y-114580990D02*
X94018407Y-114533371D01*
X94018407Y-114533371D02*
X94113645Y-114485752D01*
X94113645Y-114485752D02*
X94304121Y-114485752D01*
X94304121Y-114485752D02*
X94399359Y-114533371D01*
X95256502Y-115152419D02*
X95256502Y-114628609D01*
X95256502Y-114628609D02*
X95208883Y-114533371D01*
X95208883Y-114533371D02*
X95113645Y-114485752D01*
X95113645Y-114485752D02*
X94923169Y-114485752D01*
X94923169Y-114485752D02*
X94827931Y-114533371D01*
X95256502Y-115104800D02*
X95161264Y-115152419D01*
X95161264Y-115152419D02*
X94923169Y-115152419D01*
X94923169Y-115152419D02*
X94827931Y-115104800D01*
X94827931Y-115104800D02*
X94780312Y-115009561D01*
X94780312Y-115009561D02*
X94780312Y-114914323D01*
X94780312Y-114914323D02*
X94827931Y-114819085D01*
X94827931Y-114819085D02*
X94923169Y-114771466D01*
X94923169Y-114771466D02*
X95161264Y-114771466D01*
X95161264Y-114771466D02*
X95256502Y-114723847D01*
X95589836Y-114485752D02*
X95970788Y-114485752D01*
X95732693Y-114152419D02*
X95732693Y-115009561D01*
X95732693Y-115009561D02*
X95780312Y-115104800D01*
X95780312Y-115104800D02*
X95875550Y-115152419D01*
X95875550Y-115152419D02*
X95970788Y-115152419D01*
X96446979Y-115152419D02*
X96351741Y-115104800D01*
X96351741Y-115104800D02*
X96304122Y-115057180D01*
X96304122Y-115057180D02*
X96256503Y-114961942D01*
X96256503Y-114961942D02*
X96256503Y-114676228D01*
X96256503Y-114676228D02*
X96304122Y-114580990D01*
X96304122Y-114580990D02*
X96351741Y-114533371D01*
X96351741Y-114533371D02*
X96446979Y-114485752D01*
X96446979Y-114485752D02*
X96589836Y-114485752D01*
X96589836Y-114485752D02*
X96685074Y-114533371D01*
X96685074Y-114533371D02*
X96732693Y-114580990D01*
X96732693Y-114580990D02*
X96780312Y-114676228D01*
X96780312Y-114676228D02*
X96780312Y-114961942D01*
X96780312Y-114961942D02*
X96732693Y-115057180D01*
X96732693Y-115057180D02*
X96685074Y-115104800D01*
X96685074Y-115104800D02*
X96589836Y-115152419D01*
X96589836Y-115152419D02*
X96446979Y-115152419D01*
X97208884Y-115152419D02*
X97208884Y-114485752D01*
X97208884Y-114676228D02*
X97256503Y-114580990D01*
X97256503Y-114580990D02*
X97304122Y-114533371D01*
X97304122Y-114533371D02*
X97399360Y-114485752D01*
X97399360Y-114485752D02*
X97494598Y-114485752D01*
X99066027Y-115152419D02*
X98589837Y-115152419D01*
X98589837Y-115152419D02*
X98589837Y-114152419D01*
X99399361Y-115152419D02*
X99399361Y-114485752D01*
X99399361Y-114152419D02*
X99351742Y-114200038D01*
X99351742Y-114200038D02*
X99399361Y-114247657D01*
X99399361Y-114247657D02*
X99446980Y-114200038D01*
X99446980Y-114200038D02*
X99399361Y-114152419D01*
X99399361Y-114152419D02*
X99399361Y-114247657D01*
X100304122Y-114485752D02*
X100304122Y-115295276D01*
X100304122Y-115295276D02*
X100256503Y-115390514D01*
X100256503Y-115390514D02*
X100208884Y-115438133D01*
X100208884Y-115438133D02*
X100113646Y-115485752D01*
X100113646Y-115485752D02*
X99970789Y-115485752D01*
X99970789Y-115485752D02*
X99875551Y-115438133D01*
X100304122Y-115104800D02*
X100208884Y-115152419D01*
X100208884Y-115152419D02*
X100018408Y-115152419D01*
X100018408Y-115152419D02*
X99923170Y-115104800D01*
X99923170Y-115104800D02*
X99875551Y-115057180D01*
X99875551Y-115057180D02*
X99827932Y-114961942D01*
X99827932Y-114961942D02*
X99827932Y-114676228D01*
X99827932Y-114676228D02*
X99875551Y-114580990D01*
X99875551Y-114580990D02*
X99923170Y-114533371D01*
X99923170Y-114533371D02*
X100018408Y-114485752D01*
X100018408Y-114485752D02*
X100208884Y-114485752D01*
X100208884Y-114485752D02*
X100304122Y-114533371D01*
X100780313Y-115152419D02*
X100780313Y-114152419D01*
X101208884Y-115152419D02*
X101208884Y-114628609D01*
X101208884Y-114628609D02*
X101161265Y-114533371D01*
X101161265Y-114533371D02*
X101066027Y-114485752D01*
X101066027Y-114485752D02*
X100923170Y-114485752D01*
X100923170Y-114485752D02*
X100827932Y-114533371D01*
X100827932Y-114533371D02*
X100780313Y-114580990D01*
X101542218Y-114485752D02*
X101923170Y-114485752D01*
X101685075Y-114152419D02*
X101685075Y-115009561D01*
X101685075Y-115009561D02*
X101732694Y-115104800D01*
X101732694Y-115104800D02*
X101827932Y-115152419D01*
X101827932Y-115152419D02*
X101923170Y-115152419D01*
X102208885Y-115104800D02*
X102304123Y-115152419D01*
X102304123Y-115152419D02*
X102494599Y-115152419D01*
X102494599Y-115152419D02*
X102589837Y-115104800D01*
X102589837Y-115104800D02*
X102637456Y-115009561D01*
X102637456Y-115009561D02*
X102637456Y-114961942D01*
X102637456Y-114961942D02*
X102589837Y-114866704D01*
X102589837Y-114866704D02*
X102494599Y-114819085D01*
X102494599Y-114819085D02*
X102351742Y-114819085D01*
X102351742Y-114819085D02*
X102256504Y-114771466D01*
X102256504Y-114771466D02*
X102208885Y-114676228D01*
X102208885Y-114676228D02*
X102208885Y-114628609D01*
X102208885Y-114628609D02*
X102256504Y-114533371D01*
X102256504Y-114533371D02*
X102351742Y-114485752D01*
X102351742Y-114485752D02*
X102494599Y-114485752D01*
X102494599Y-114485752D02*
X102589837Y-114533371D01*
D11*
X158118644Y-78443685D02*
X158118644Y-78511029D01*
X158118644Y-78511029D02*
X158051300Y-78645716D01*
X158051300Y-78645716D02*
X157983957Y-78713059D01*
X157983957Y-78713059D02*
X157849270Y-78780403D01*
X157849270Y-78780403D02*
X157714583Y-78780403D01*
X157714583Y-78780403D02*
X157613568Y-78746731D01*
X157613568Y-78746731D02*
X157445209Y-78645716D01*
X157445209Y-78645716D02*
X157344194Y-78544701D01*
X157344194Y-78544701D02*
X157243178Y-78376342D01*
X157243178Y-78376342D02*
X157209507Y-78275327D01*
X157209507Y-78275327D02*
X157209507Y-78140640D01*
X157209507Y-78140640D02*
X157276850Y-78005953D01*
X157276850Y-78005953D02*
X157344194Y-77938609D01*
X157344194Y-77938609D02*
X157478881Y-77871266D01*
X157478881Y-77871266D02*
X157546224Y-77871266D01*
X158859422Y-77837594D02*
X158455361Y-78241655D01*
X158657392Y-78039624D02*
X157950285Y-77332518D01*
X157950285Y-77332518D02*
X157983957Y-77500876D01*
X157983957Y-77500876D02*
X157983957Y-77635563D01*
X157983957Y-77635563D02*
X157950285Y-77736579D01*
X102664820Y-101893333D02*
X103379105Y-101893333D01*
X103379105Y-101893333D02*
X103521962Y-101940952D01*
X103521962Y-101940952D02*
X103617201Y-102036190D01*
X103617201Y-102036190D02*
X103664820Y-102179047D01*
X103664820Y-102179047D02*
X103664820Y-102274285D01*
X103664820Y-100893333D02*
X103664820Y-101464761D01*
X103664820Y-101179047D02*
X102664820Y-101179047D01*
X102664820Y-101179047D02*
X102807677Y-101274285D01*
X102807677Y-101274285D02*
X102902915Y-101369523D01*
X102902915Y-101369523D02*
X102950534Y-101464761D01*
X143050476Y-64294819D02*
X143050476Y-65009104D01*
X143050476Y-65009104D02*
X143002857Y-65151961D01*
X143002857Y-65151961D02*
X142907619Y-65247200D01*
X142907619Y-65247200D02*
X142764762Y-65294819D01*
X142764762Y-65294819D02*
X142669524Y-65294819D01*
X144050476Y-65294819D02*
X143479048Y-65294819D01*
X143764762Y-65294819D02*
X143764762Y-64294819D01*
X143764762Y-64294819D02*
X143669524Y-64437676D01*
X143669524Y-64437676D02*
X143574286Y-64532914D01*
X143574286Y-64532914D02*
X143479048Y-64580533D01*
X144383810Y-64294819D02*
X145002857Y-64294819D01*
X145002857Y-64294819D02*
X144669524Y-64675771D01*
X144669524Y-64675771D02*
X144812381Y-64675771D01*
X144812381Y-64675771D02*
X144907619Y-64723390D01*
X144907619Y-64723390D02*
X144955238Y-64771009D01*
X144955238Y-64771009D02*
X145002857Y-64866247D01*
X145002857Y-64866247D02*
X145002857Y-65104342D01*
X145002857Y-65104342D02*
X144955238Y-65199580D01*
X144955238Y-65199580D02*
X144907619Y-65247200D01*
X144907619Y-65247200D02*
X144812381Y-65294819D01*
X144812381Y-65294819D02*
X144526667Y-65294819D01*
X144526667Y-65294819D02*
X144431429Y-65247200D01*
X144431429Y-65247200D02*
X144383810Y-65199580D01*
X169992261Y-100530056D02*
X169897023Y-100482437D01*
X169897023Y-100482437D02*
X169801785Y-100387199D01*
X169801785Y-100387199D02*
X169658928Y-100244341D01*
X169658928Y-100244341D02*
X169563690Y-100196722D01*
X169563690Y-100196722D02*
X169468452Y-100196722D01*
X169516071Y-100434818D02*
X169420833Y-100387199D01*
X169420833Y-100387199D02*
X169325595Y-100291960D01*
X169325595Y-100291960D02*
X169277976Y-100101484D01*
X169277976Y-100101484D02*
X169277976Y-99768151D01*
X169277976Y-99768151D02*
X169325595Y-99577675D01*
X169325595Y-99577675D02*
X169420833Y-99482437D01*
X169420833Y-99482437D02*
X169516071Y-99434818D01*
X169516071Y-99434818D02*
X169706547Y-99434818D01*
X169706547Y-99434818D02*
X169801785Y-99482437D01*
X169801785Y-99482437D02*
X169897023Y-99577675D01*
X169897023Y-99577675D02*
X169944642Y-99768151D01*
X169944642Y-99768151D02*
X169944642Y-100101484D01*
X169944642Y-100101484D02*
X169897023Y-100291960D01*
X169897023Y-100291960D02*
X169801785Y-100387199D01*
X169801785Y-100387199D02*
X169706547Y-100434818D01*
X169706547Y-100434818D02*
X169516071Y-100434818D01*
X170325595Y-99530056D02*
X170373214Y-99482437D01*
X170373214Y-99482437D02*
X170468452Y-99434818D01*
X170468452Y-99434818D02*
X170706547Y-99434818D01*
X170706547Y-99434818D02*
X170801785Y-99482437D01*
X170801785Y-99482437D02*
X170849404Y-99530056D01*
X170849404Y-99530056D02*
X170897023Y-99625294D01*
X170897023Y-99625294D02*
X170897023Y-99720532D01*
X170897023Y-99720532D02*
X170849404Y-99863389D01*
X170849404Y-99863389D02*
X170277976Y-100434818D01*
X170277976Y-100434818D02*
X170897023Y-100434818D01*
X173012319Y-87448094D02*
X172012319Y-87448094D01*
X172012319Y-87448094D02*
X172012319Y-87209999D01*
X172012319Y-87209999D02*
X172059938Y-87067142D01*
X172059938Y-87067142D02*
X172155176Y-86971904D01*
X172155176Y-86971904D02*
X172250414Y-86924285D01*
X172250414Y-86924285D02*
X172440890Y-86876666D01*
X172440890Y-86876666D02*
X172583747Y-86876666D01*
X172583747Y-86876666D02*
X172774223Y-86924285D01*
X172774223Y-86924285D02*
X172869461Y-86971904D01*
X172869461Y-86971904D02*
X172964700Y-87067142D01*
X172964700Y-87067142D02*
X173012319Y-87209999D01*
X173012319Y-87209999D02*
X173012319Y-87448094D01*
X172107557Y-86495713D02*
X172059938Y-86448094D01*
X172059938Y-86448094D02*
X172012319Y-86352856D01*
X172012319Y-86352856D02*
X172012319Y-86114761D01*
X172012319Y-86114761D02*
X172059938Y-86019523D01*
X172059938Y-86019523D02*
X172107557Y-85971904D01*
X172107557Y-85971904D02*
X172202795Y-85924285D01*
X172202795Y-85924285D02*
X172298033Y-85924285D01*
X172298033Y-85924285D02*
X172440890Y-85971904D01*
X172440890Y-85971904D02*
X173012319Y-86543332D01*
X173012319Y-86543332D02*
X173012319Y-85924285D01*
X172862319Y-82531903D02*
X171862319Y-82531903D01*
X172862319Y-81960475D02*
X172290890Y-82389046D01*
X171862319Y-81960475D02*
X172433747Y-82531903D01*
X156394140Y-70348363D02*
X155821720Y-70920783D01*
X155821720Y-70920783D02*
X155788048Y-71021798D01*
X155788048Y-71021798D02*
X155788048Y-71089142D01*
X155788048Y-71089142D02*
X155821720Y-71190157D01*
X155821720Y-71190157D02*
X155956407Y-71324844D01*
X155956407Y-71324844D02*
X156057422Y-71358516D01*
X156057422Y-71358516D02*
X156124766Y-71358516D01*
X156124766Y-71358516D02*
X156225781Y-71324844D01*
X156225781Y-71324844D02*
X156798201Y-70752424D01*
X157067575Y-71021798D02*
X157505307Y-71459531D01*
X157505307Y-71459531D02*
X157000231Y-71493203D01*
X157000231Y-71493203D02*
X157101246Y-71594218D01*
X157101246Y-71594218D02*
X157134918Y-71695233D01*
X157134918Y-71695233D02*
X157134918Y-71762577D01*
X157134918Y-71762577D02*
X157101246Y-71863592D01*
X157101246Y-71863592D02*
X156932888Y-72031951D01*
X156932888Y-72031951D02*
X156831872Y-72065623D01*
X156831872Y-72065623D02*
X156764529Y-72065623D01*
X156764529Y-72065623D02*
X156663514Y-72031951D01*
X156663514Y-72031951D02*
X156461483Y-71829920D01*
X156461483Y-71829920D02*
X156427811Y-71728905D01*
X156427811Y-71728905D02*
X156427811Y-71661562D01*
X90824819Y-118943333D02*
X91539104Y-118943333D01*
X91539104Y-118943333D02*
X91681961Y-118990952D01*
X91681961Y-118990952D02*
X91777200Y-119086190D01*
X91777200Y-119086190D02*
X91824819Y-119229047D01*
X91824819Y-119229047D02*
X91824819Y-119324285D01*
X90824819Y-117990952D02*
X90824819Y-118467142D01*
X90824819Y-118467142D02*
X91301009Y-118514761D01*
X91301009Y-118514761D02*
X91253390Y-118467142D01*
X91253390Y-118467142D02*
X91205771Y-118371904D01*
X91205771Y-118371904D02*
X91205771Y-118133809D01*
X91205771Y-118133809D02*
X91253390Y-118038571D01*
X91253390Y-118038571D02*
X91301009Y-117990952D01*
X91301009Y-117990952D02*
X91396247Y-117943333D01*
X91396247Y-117943333D02*
X91634342Y-117943333D01*
X91634342Y-117943333D02*
X91729580Y-117990952D01*
X91729580Y-117990952D02*
X91777200Y-118038571D01*
X91777200Y-118038571D02*
X91824819Y-118133809D01*
X91824819Y-118133809D02*
X91824819Y-118371904D01*
X91824819Y-118371904D02*
X91777200Y-118467142D01*
X91777200Y-118467142D02*
X91729580Y-118514761D01*
X126214819Y-118943333D02*
X126929104Y-118943333D01*
X126929104Y-118943333D02*
X127071961Y-118990952D01*
X127071961Y-118990952D02*
X127167200Y-119086190D01*
X127167200Y-119086190D02*
X127214819Y-119229047D01*
X127214819Y-119229047D02*
X127214819Y-119324285D01*
X127214819Y-118419523D02*
X127214819Y-118229047D01*
X127214819Y-118229047D02*
X127167200Y-118133809D01*
X127167200Y-118133809D02*
X127119580Y-118086190D01*
X127119580Y-118086190D02*
X126976723Y-117990952D01*
X126976723Y-117990952D02*
X126786247Y-117943333D01*
X126786247Y-117943333D02*
X126405295Y-117943333D01*
X126405295Y-117943333D02*
X126310057Y-117990952D01*
X126310057Y-117990952D02*
X126262438Y-118038571D01*
X126262438Y-118038571D02*
X126214819Y-118133809D01*
X126214819Y-118133809D02*
X126214819Y-118324285D01*
X126214819Y-118324285D02*
X126262438Y-118419523D01*
X126262438Y-118419523D02*
X126310057Y-118467142D01*
X126310057Y-118467142D02*
X126405295Y-118514761D01*
X126405295Y-118514761D02*
X126643390Y-118514761D01*
X126643390Y-118514761D02*
X126738628Y-118467142D01*
X126738628Y-118467142D02*
X126786247Y-118419523D01*
X126786247Y-118419523D02*
X126833866Y-118324285D01*
X126833866Y-118324285D02*
X126833866Y-118133809D01*
X126833866Y-118133809D02*
X126786247Y-118038571D01*
X126786247Y-118038571D02*
X126738628Y-117990952D01*
X126738628Y-117990952D02*
X126643390Y-117943333D01*
X80794819Y-110342857D02*
X80318628Y-110676190D01*
X80794819Y-110914285D02*
X79794819Y-110914285D01*
X79794819Y-110914285D02*
X79794819Y-110533333D01*
X79794819Y-110533333D02*
X79842438Y-110438095D01*
X79842438Y-110438095D02*
X79890057Y-110390476D01*
X79890057Y-110390476D02*
X79985295Y-110342857D01*
X79985295Y-110342857D02*
X80128152Y-110342857D01*
X80128152Y-110342857D02*
X80223390Y-110390476D01*
X80223390Y-110390476D02*
X80271009Y-110438095D01*
X80271009Y-110438095D02*
X80318628Y-110533333D01*
X80318628Y-110533333D02*
X80318628Y-110914285D01*
X80794819Y-109390476D02*
X80794819Y-109961904D01*
X80794819Y-109676190D02*
X79794819Y-109676190D01*
X79794819Y-109676190D02*
X79937676Y-109771428D01*
X79937676Y-109771428D02*
X80032914Y-109866666D01*
X80032914Y-109866666D02*
X80080533Y-109961904D01*
X80794819Y-108438095D02*
X80794819Y-109009523D01*
X80794819Y-108723809D02*
X79794819Y-108723809D01*
X79794819Y-108723809D02*
X79937676Y-108819047D01*
X79937676Y-108819047D02*
X80032914Y-108914285D01*
X80032914Y-108914285D02*
X80080533Y-109009523D01*
X169992261Y-79110055D02*
X169897023Y-79062436D01*
X169897023Y-79062436D02*
X169801785Y-78967198D01*
X169801785Y-78967198D02*
X169658928Y-78824340D01*
X169658928Y-78824340D02*
X169563690Y-78776721D01*
X169563690Y-78776721D02*
X169468452Y-78776721D01*
X169516071Y-79014817D02*
X169420833Y-78967198D01*
X169420833Y-78967198D02*
X169325595Y-78871959D01*
X169325595Y-78871959D02*
X169277976Y-78681483D01*
X169277976Y-78681483D02*
X169277976Y-78348150D01*
X169277976Y-78348150D02*
X169325595Y-78157674D01*
X169325595Y-78157674D02*
X169420833Y-78062436D01*
X169420833Y-78062436D02*
X169516071Y-78014817D01*
X169516071Y-78014817D02*
X169706547Y-78014817D01*
X169706547Y-78014817D02*
X169801785Y-78062436D01*
X169801785Y-78062436D02*
X169897023Y-78157674D01*
X169897023Y-78157674D02*
X169944642Y-78348150D01*
X169944642Y-78348150D02*
X169944642Y-78681483D01*
X169944642Y-78681483D02*
X169897023Y-78871959D01*
X169897023Y-78871959D02*
X169801785Y-78967198D01*
X169801785Y-78967198D02*
X169706547Y-79014817D01*
X169706547Y-79014817D02*
X169516071Y-79014817D01*
X170897023Y-79014817D02*
X170325595Y-79014817D01*
X170611309Y-79014817D02*
X170611309Y-78014817D01*
X170611309Y-78014817D02*
X170516071Y-78157674D01*
X170516071Y-78157674D02*
X170420833Y-78252912D01*
X170420833Y-78252912D02*
X170325595Y-78300531D01*
X142557041Y-80416666D02*
X142080850Y-80749999D01*
X142557041Y-80988094D02*
X141557041Y-80988094D01*
X141557041Y-80988094D02*
X141557041Y-80607142D01*
X141557041Y-80607142D02*
X141604660Y-80511904D01*
X141604660Y-80511904D02*
X141652279Y-80464285D01*
X141652279Y-80464285D02*
X141747517Y-80416666D01*
X141747517Y-80416666D02*
X141890374Y-80416666D01*
X141890374Y-80416666D02*
X141985612Y-80464285D01*
X141985612Y-80464285D02*
X142033231Y-80511904D01*
X142033231Y-80511904D02*
X142080850Y-80607142D01*
X142080850Y-80607142D02*
X142080850Y-80988094D01*
X141890374Y-79559523D02*
X142557041Y-79559523D01*
X141509422Y-79797618D02*
X142223707Y-80035713D01*
X142223707Y-80035713D02*
X142223707Y-79416666D01*
X106824819Y-62966666D02*
X106348628Y-63299999D01*
X106824819Y-63538094D02*
X105824819Y-63538094D01*
X105824819Y-63538094D02*
X105824819Y-63157142D01*
X105824819Y-63157142D02*
X105872438Y-63061904D01*
X105872438Y-63061904D02*
X105920057Y-63014285D01*
X105920057Y-63014285D02*
X106015295Y-62966666D01*
X106015295Y-62966666D02*
X106158152Y-62966666D01*
X106158152Y-62966666D02*
X106253390Y-63014285D01*
X106253390Y-63014285D02*
X106301009Y-63061904D01*
X106301009Y-63061904D02*
X106348628Y-63157142D01*
X106348628Y-63157142D02*
X106348628Y-63538094D01*
X105920057Y-62585713D02*
X105872438Y-62538094D01*
X105872438Y-62538094D02*
X105824819Y-62442856D01*
X105824819Y-62442856D02*
X105824819Y-62204761D01*
X105824819Y-62204761D02*
X105872438Y-62109523D01*
X105872438Y-62109523D02*
X105920057Y-62061904D01*
X105920057Y-62061904D02*
X106015295Y-62014285D01*
X106015295Y-62014285D02*
X106110533Y-62014285D01*
X106110533Y-62014285D02*
X106253390Y-62061904D01*
X106253390Y-62061904D02*
X106824819Y-62633332D01*
X106824819Y-62633332D02*
X106824819Y-62014285D01*
X145275806Y-65664015D02*
X145275806Y-65731359D01*
X145275806Y-65731359D02*
X145208462Y-65866046D01*
X145208462Y-65866046D02*
X145141119Y-65933389D01*
X145141119Y-65933389D02*
X145006432Y-66000733D01*
X145006432Y-66000733D02*
X144871745Y-66000733D01*
X144871745Y-66000733D02*
X144770730Y-65967061D01*
X144770730Y-65967061D02*
X144602371Y-65866046D01*
X144602371Y-65866046D02*
X144501356Y-65765031D01*
X144501356Y-65765031D02*
X144400340Y-65596672D01*
X144400340Y-65596672D02*
X144366669Y-65495657D01*
X144366669Y-65495657D02*
X144366669Y-65360970D01*
X144366669Y-65360970D02*
X144434012Y-65226283D01*
X144434012Y-65226283D02*
X144501356Y-65158939D01*
X144501356Y-65158939D02*
X144636043Y-65091596D01*
X144636043Y-65091596D02*
X144703386Y-65091596D01*
X144972760Y-64822222D02*
X144972760Y-64754878D01*
X144972760Y-64754878D02*
X145006432Y-64653863D01*
X145006432Y-64653863D02*
X145174791Y-64485504D01*
X145174791Y-64485504D02*
X145275806Y-64451832D01*
X145275806Y-64451832D02*
X145343149Y-64451832D01*
X145343149Y-64451832D02*
X145444165Y-64485504D01*
X145444165Y-64485504D02*
X145511508Y-64552848D01*
X145511508Y-64552848D02*
X145578852Y-64687535D01*
X145578852Y-64687535D02*
X145578852Y-65495657D01*
X145578852Y-65495657D02*
X146016584Y-65057924D01*
X180804819Y-66099522D02*
X181519104Y-66099522D01*
X181519104Y-66099522D02*
X181661961Y-66147141D01*
X181661961Y-66147141D02*
X181757200Y-66242379D01*
X181757200Y-66242379D02*
X181804819Y-66385236D01*
X181804819Y-66385236D02*
X181804819Y-66480474D01*
X181804819Y-65099522D02*
X181804819Y-65670950D01*
X181804819Y-65385236D02*
X180804819Y-65385236D01*
X180804819Y-65385236D02*
X180947676Y-65480474D01*
X180947676Y-65480474D02*
X181042914Y-65575712D01*
X181042914Y-65575712D02*
X181090533Y-65670950D01*
X181804819Y-64147141D02*
X181804819Y-64718569D01*
X181804819Y-64432855D02*
X180804819Y-64432855D01*
X180804819Y-64432855D02*
X180947676Y-64528093D01*
X180947676Y-64528093D02*
X181042914Y-64623331D01*
X181042914Y-64623331D02*
X181090533Y-64718569D01*
X139308152Y-80416666D02*
X138831961Y-80749999D01*
X139308152Y-80988094D02*
X138308152Y-80988094D01*
X138308152Y-80988094D02*
X138308152Y-80607142D01*
X138308152Y-80607142D02*
X138355771Y-80511904D01*
X138355771Y-80511904D02*
X138403390Y-80464285D01*
X138403390Y-80464285D02*
X138498628Y-80416666D01*
X138498628Y-80416666D02*
X138641485Y-80416666D01*
X138641485Y-80416666D02*
X138736723Y-80464285D01*
X138736723Y-80464285D02*
X138784342Y-80511904D01*
X138784342Y-80511904D02*
X138831961Y-80607142D01*
X138831961Y-80607142D02*
X138831961Y-80988094D01*
X138308152Y-79511904D02*
X138308152Y-79988094D01*
X138308152Y-79988094D02*
X138784342Y-80035713D01*
X138784342Y-80035713D02*
X138736723Y-79988094D01*
X138736723Y-79988094D02*
X138689104Y-79892856D01*
X138689104Y-79892856D02*
X138689104Y-79654761D01*
X138689104Y-79654761D02*
X138736723Y-79559523D01*
X138736723Y-79559523D02*
X138784342Y-79511904D01*
X138784342Y-79511904D02*
X138879580Y-79464285D01*
X138879580Y-79464285D02*
X139117675Y-79464285D01*
X139117675Y-79464285D02*
X139212913Y-79511904D01*
X139212913Y-79511904D02*
X139260533Y-79559523D01*
X139260533Y-79559523D02*
X139308152Y-79654761D01*
X139308152Y-79654761D02*
X139308152Y-79892856D01*
X139308152Y-79892856D02*
X139260533Y-79988094D01*
X139260533Y-79988094D02*
X139212913Y-80035713D01*
X106009819Y-110156666D02*
X105533628Y-110489999D01*
X106009819Y-110728094D02*
X105009819Y-110728094D01*
X105009819Y-110728094D02*
X105009819Y-110347142D01*
X105009819Y-110347142D02*
X105057438Y-110251904D01*
X105057438Y-110251904D02*
X105105057Y-110204285D01*
X105105057Y-110204285D02*
X105200295Y-110156666D01*
X105200295Y-110156666D02*
X105343152Y-110156666D01*
X105343152Y-110156666D02*
X105438390Y-110204285D01*
X105438390Y-110204285D02*
X105486009Y-110251904D01*
X105486009Y-110251904D02*
X105533628Y-110347142D01*
X105533628Y-110347142D02*
X105533628Y-110728094D01*
X105438390Y-109585237D02*
X105390771Y-109680475D01*
X105390771Y-109680475D02*
X105343152Y-109728094D01*
X105343152Y-109728094D02*
X105247914Y-109775713D01*
X105247914Y-109775713D02*
X105200295Y-109775713D01*
X105200295Y-109775713D02*
X105105057Y-109728094D01*
X105105057Y-109728094D02*
X105057438Y-109680475D01*
X105057438Y-109680475D02*
X105009819Y-109585237D01*
X105009819Y-109585237D02*
X105009819Y-109394761D01*
X105009819Y-109394761D02*
X105057438Y-109299523D01*
X105057438Y-109299523D02*
X105105057Y-109251904D01*
X105105057Y-109251904D02*
X105200295Y-109204285D01*
X105200295Y-109204285D02*
X105247914Y-109204285D01*
X105247914Y-109204285D02*
X105343152Y-109251904D01*
X105343152Y-109251904D02*
X105390771Y-109299523D01*
X105390771Y-109299523D02*
X105438390Y-109394761D01*
X105438390Y-109394761D02*
X105438390Y-109585237D01*
X105438390Y-109585237D02*
X105486009Y-109680475D01*
X105486009Y-109680475D02*
X105533628Y-109728094D01*
X105533628Y-109728094D02*
X105628866Y-109775713D01*
X105628866Y-109775713D02*
X105819342Y-109775713D01*
X105819342Y-109775713D02*
X105914580Y-109728094D01*
X105914580Y-109728094D02*
X105962200Y-109680475D01*
X105962200Y-109680475D02*
X106009819Y-109585237D01*
X106009819Y-109585237D02*
X106009819Y-109394761D01*
X106009819Y-109394761D02*
X105962200Y-109299523D01*
X105962200Y-109299523D02*
X105914580Y-109251904D01*
X105914580Y-109251904D02*
X105819342Y-109204285D01*
X105819342Y-109204285D02*
X105628866Y-109204285D01*
X105628866Y-109204285D02*
X105533628Y-109251904D01*
X105533628Y-109251904D02*
X105486009Y-109299523D01*
X105486009Y-109299523D02*
X105438390Y-109394761D01*
X145805930Y-80416666D02*
X145329739Y-80749999D01*
X145805930Y-80988094D02*
X144805930Y-80988094D01*
X144805930Y-80988094D02*
X144805930Y-80607142D01*
X144805930Y-80607142D02*
X144853549Y-80511904D01*
X144853549Y-80511904D02*
X144901168Y-80464285D01*
X144901168Y-80464285D02*
X144996406Y-80416666D01*
X144996406Y-80416666D02*
X145139263Y-80416666D01*
X145139263Y-80416666D02*
X145234501Y-80464285D01*
X145234501Y-80464285D02*
X145282120Y-80511904D01*
X145282120Y-80511904D02*
X145329739Y-80607142D01*
X145329739Y-80607142D02*
X145329739Y-80988094D01*
X144805930Y-80083332D02*
X144805930Y-79416666D01*
X144805930Y-79416666D02*
X145805930Y-79845237D01*
X153094819Y-118943333D02*
X153809104Y-118943333D01*
X153809104Y-118943333D02*
X153951961Y-118990952D01*
X153951961Y-118990952D02*
X154047200Y-119086190D01*
X154047200Y-119086190D02*
X154094819Y-119229047D01*
X154094819Y-119229047D02*
X154094819Y-119324285D01*
X153094819Y-118562380D02*
X153094819Y-117943333D01*
X153094819Y-117943333D02*
X153475771Y-118276666D01*
X153475771Y-118276666D02*
X153475771Y-118133809D01*
X153475771Y-118133809D02*
X153523390Y-118038571D01*
X153523390Y-118038571D02*
X153571009Y-117990952D01*
X153571009Y-117990952D02*
X153666247Y-117943333D01*
X153666247Y-117943333D02*
X153904342Y-117943333D01*
X153904342Y-117943333D02*
X153999580Y-117990952D01*
X153999580Y-117990952D02*
X154047200Y-118038571D01*
X154047200Y-118038571D02*
X154094819Y-118133809D01*
X154094819Y-118133809D02*
X154094819Y-118419523D01*
X154094819Y-118419523D02*
X154047200Y-118514761D01*
X154047200Y-118514761D02*
X153999580Y-118562380D01*
X108504819Y-118943333D02*
X109219104Y-118943333D01*
X109219104Y-118943333D02*
X109361961Y-118990952D01*
X109361961Y-118990952D02*
X109457200Y-119086190D01*
X109457200Y-119086190D02*
X109504819Y-119229047D01*
X109504819Y-119229047D02*
X109504819Y-119324285D01*
X108504819Y-118562380D02*
X108504819Y-117895714D01*
X108504819Y-117895714D02*
X109504819Y-118324285D01*
X114199819Y-110356666D02*
X113723628Y-110689999D01*
X114199819Y-110928094D02*
X113199819Y-110928094D01*
X113199819Y-110928094D02*
X113199819Y-110547142D01*
X113199819Y-110547142D02*
X113247438Y-110451904D01*
X113247438Y-110451904D02*
X113295057Y-110404285D01*
X113295057Y-110404285D02*
X113390295Y-110356666D01*
X113390295Y-110356666D02*
X113533152Y-110356666D01*
X113533152Y-110356666D02*
X113628390Y-110404285D01*
X113628390Y-110404285D02*
X113676009Y-110451904D01*
X113676009Y-110451904D02*
X113723628Y-110547142D01*
X113723628Y-110547142D02*
X113723628Y-110928094D01*
X113199819Y-110023332D02*
X113199819Y-109404285D01*
X113199819Y-109404285D02*
X113580771Y-109737618D01*
X113580771Y-109737618D02*
X113580771Y-109594761D01*
X113580771Y-109594761D02*
X113628390Y-109499523D01*
X113628390Y-109499523D02*
X113676009Y-109451904D01*
X113676009Y-109451904D02*
X113771247Y-109404285D01*
X113771247Y-109404285D02*
X114009342Y-109404285D01*
X114009342Y-109404285D02*
X114104580Y-109451904D01*
X114104580Y-109451904D02*
X114152200Y-109499523D01*
X114152200Y-109499523D02*
X114199819Y-109594761D01*
X114199819Y-109594761D02*
X114199819Y-109880475D01*
X114199819Y-109880475D02*
X114152200Y-109975713D01*
X114152200Y-109975713D02*
X114104580Y-110023332D01*
X180804819Y-87519523D02*
X181519104Y-87519523D01*
X181519104Y-87519523D02*
X181661961Y-87567142D01*
X181661961Y-87567142D02*
X181757200Y-87662380D01*
X181757200Y-87662380D02*
X181804819Y-87805237D01*
X181804819Y-87805237D02*
X181804819Y-87900475D01*
X181804819Y-86519523D02*
X181804819Y-87090951D01*
X181804819Y-86805237D02*
X180804819Y-86805237D01*
X180804819Y-86805237D02*
X180947676Y-86900475D01*
X180947676Y-86900475D02*
X181042914Y-86995713D01*
X181042914Y-86995713D02*
X181090533Y-87090951D01*
X180900057Y-86138570D02*
X180852438Y-86090951D01*
X180852438Y-86090951D02*
X180804819Y-85995713D01*
X180804819Y-85995713D02*
X180804819Y-85757618D01*
X180804819Y-85757618D02*
X180852438Y-85662380D01*
X180852438Y-85662380D02*
X180900057Y-85614761D01*
X180900057Y-85614761D02*
X180995295Y-85567142D01*
X180995295Y-85567142D02*
X181090533Y-85567142D01*
X181090533Y-85567142D02*
X181233390Y-85614761D01*
X181233390Y-85614761D02*
X181804819Y-86186189D01*
X181804819Y-86186189D02*
X181804819Y-85567142D01*
X145568095Y-101944819D02*
X145568095Y-102754342D01*
X145568095Y-102754342D02*
X145615714Y-102849580D01*
X145615714Y-102849580D02*
X145663333Y-102897200D01*
X145663333Y-102897200D02*
X145758571Y-102944819D01*
X145758571Y-102944819D02*
X145949047Y-102944819D01*
X145949047Y-102944819D02*
X146044285Y-102897200D01*
X146044285Y-102897200D02*
X146091904Y-102849580D01*
X146091904Y-102849580D02*
X146139523Y-102754342D01*
X146139523Y-102754342D02*
X146139523Y-101944819D01*
X147139523Y-102944819D02*
X146568095Y-102944819D01*
X146853809Y-102944819D02*
X146853809Y-101944819D01*
X146853809Y-101944819D02*
X146758571Y-102087676D01*
X146758571Y-102087676D02*
X146663333Y-102182914D01*
X146663333Y-102182914D02*
X146568095Y-102230533D01*
X126041904Y-62425180D02*
X126041904Y-61615657D01*
X126041904Y-61615657D02*
X125994285Y-61520419D01*
X125994285Y-61520419D02*
X125946666Y-61472800D01*
X125946666Y-61472800D02*
X125851428Y-61425180D01*
X125851428Y-61425180D02*
X125660952Y-61425180D01*
X125660952Y-61425180D02*
X125565714Y-61472800D01*
X125565714Y-61472800D02*
X125518095Y-61520419D01*
X125518095Y-61520419D02*
X125470476Y-61615657D01*
X125470476Y-61615657D02*
X125470476Y-62425180D01*
X125041904Y-61472800D02*
X124899047Y-61425180D01*
X124899047Y-61425180D02*
X124660952Y-61425180D01*
X124660952Y-61425180D02*
X124565714Y-61472800D01*
X124565714Y-61472800D02*
X124518095Y-61520419D01*
X124518095Y-61520419D02*
X124470476Y-61615657D01*
X124470476Y-61615657D02*
X124470476Y-61710895D01*
X124470476Y-61710895D02*
X124518095Y-61806133D01*
X124518095Y-61806133D02*
X124565714Y-61853752D01*
X124565714Y-61853752D02*
X124660952Y-61901371D01*
X124660952Y-61901371D02*
X124851428Y-61948990D01*
X124851428Y-61948990D02*
X124946666Y-61996609D01*
X124946666Y-61996609D02*
X124994285Y-62044228D01*
X124994285Y-62044228D02*
X125041904Y-62139466D01*
X125041904Y-62139466D02*
X125041904Y-62234704D01*
X125041904Y-62234704D02*
X124994285Y-62329942D01*
X124994285Y-62329942D02*
X124946666Y-62377561D01*
X124946666Y-62377561D02*
X124851428Y-62425180D01*
X124851428Y-62425180D02*
X124613333Y-62425180D01*
X124613333Y-62425180D02*
X124470476Y-62377561D01*
X123708571Y-61948990D02*
X123565714Y-61901371D01*
X123565714Y-61901371D02*
X123518095Y-61853752D01*
X123518095Y-61853752D02*
X123470476Y-61758514D01*
X123470476Y-61758514D02*
X123470476Y-61615657D01*
X123470476Y-61615657D02*
X123518095Y-61520419D01*
X123518095Y-61520419D02*
X123565714Y-61472800D01*
X123565714Y-61472800D02*
X123660952Y-61425180D01*
X123660952Y-61425180D02*
X124041904Y-61425180D01*
X124041904Y-61425180D02*
X124041904Y-62425180D01*
X124041904Y-62425180D02*
X123708571Y-62425180D01*
X123708571Y-62425180D02*
X123613333Y-62377561D01*
X123613333Y-62377561D02*
X123565714Y-62329942D01*
X123565714Y-62329942D02*
X123518095Y-62234704D01*
X123518095Y-62234704D02*
X123518095Y-62139466D01*
X123518095Y-62139466D02*
X123565714Y-62044228D01*
X123565714Y-62044228D02*
X123613333Y-61996609D01*
X123613333Y-61996609D02*
X123708571Y-61948990D01*
X123708571Y-61948990D02*
X124041904Y-61948990D01*
X100124819Y-118943333D02*
X100839104Y-118943333D01*
X100839104Y-118943333D02*
X100981961Y-118990952D01*
X100981961Y-118990952D02*
X101077200Y-119086190D01*
X101077200Y-119086190D02*
X101124819Y-119229047D01*
X101124819Y-119229047D02*
X101124819Y-119324285D01*
X100124819Y-118038571D02*
X100124819Y-118229047D01*
X100124819Y-118229047D02*
X100172438Y-118324285D01*
X100172438Y-118324285D02*
X100220057Y-118371904D01*
X100220057Y-118371904D02*
X100362914Y-118467142D01*
X100362914Y-118467142D02*
X100553390Y-118514761D01*
X100553390Y-118514761D02*
X100934342Y-118514761D01*
X100934342Y-118514761D02*
X101029580Y-118467142D01*
X101029580Y-118467142D02*
X101077200Y-118419523D01*
X101077200Y-118419523D02*
X101124819Y-118324285D01*
X101124819Y-118324285D02*
X101124819Y-118133809D01*
X101124819Y-118133809D02*
X101077200Y-118038571D01*
X101077200Y-118038571D02*
X101029580Y-117990952D01*
X101029580Y-117990952D02*
X100934342Y-117943333D01*
X100934342Y-117943333D02*
X100696247Y-117943333D01*
X100696247Y-117943333D02*
X100601009Y-117990952D01*
X100601009Y-117990952D02*
X100553390Y-118038571D01*
X100553390Y-118038571D02*
X100505771Y-118133809D01*
X100505771Y-118133809D02*
X100505771Y-118324285D01*
X100505771Y-118324285D02*
X100553390Y-118419523D01*
X100553390Y-118419523D02*
X100601009Y-118467142D01*
X100601009Y-118467142D02*
X100696247Y-118514761D01*
X117639819Y-118943333D02*
X118354104Y-118943333D01*
X118354104Y-118943333D02*
X118496961Y-118990952D01*
X118496961Y-118990952D02*
X118592200Y-119086190D01*
X118592200Y-119086190D02*
X118639819Y-119229047D01*
X118639819Y-119229047D02*
X118639819Y-119324285D01*
X118068390Y-118324285D02*
X118020771Y-118419523D01*
X118020771Y-118419523D02*
X117973152Y-118467142D01*
X117973152Y-118467142D02*
X117877914Y-118514761D01*
X117877914Y-118514761D02*
X117830295Y-118514761D01*
X117830295Y-118514761D02*
X117735057Y-118467142D01*
X117735057Y-118467142D02*
X117687438Y-118419523D01*
X117687438Y-118419523D02*
X117639819Y-118324285D01*
X117639819Y-118324285D02*
X117639819Y-118133809D01*
X117639819Y-118133809D02*
X117687438Y-118038571D01*
X117687438Y-118038571D02*
X117735057Y-117990952D01*
X117735057Y-117990952D02*
X117830295Y-117943333D01*
X117830295Y-117943333D02*
X117877914Y-117943333D01*
X117877914Y-117943333D02*
X117973152Y-117990952D01*
X117973152Y-117990952D02*
X118020771Y-118038571D01*
X118020771Y-118038571D02*
X118068390Y-118133809D01*
X118068390Y-118133809D02*
X118068390Y-118324285D01*
X118068390Y-118324285D02*
X118116009Y-118419523D01*
X118116009Y-118419523D02*
X118163628Y-118467142D01*
X118163628Y-118467142D02*
X118258866Y-118514761D01*
X118258866Y-118514761D02*
X118449342Y-118514761D01*
X118449342Y-118514761D02*
X118544580Y-118467142D01*
X118544580Y-118467142D02*
X118592200Y-118419523D01*
X118592200Y-118419523D02*
X118639819Y-118324285D01*
X118639819Y-118324285D02*
X118639819Y-118133809D01*
X118639819Y-118133809D02*
X118592200Y-118038571D01*
X118592200Y-118038571D02*
X118544580Y-117990952D01*
X118544580Y-117990952D02*
X118449342Y-117943333D01*
X118449342Y-117943333D02*
X118258866Y-117943333D01*
X118258866Y-117943333D02*
X118163628Y-117990952D01*
X118163628Y-117990952D02*
X118116009Y-118038571D01*
X118116009Y-118038571D02*
X118068390Y-118133809D01*
X110064819Y-62966666D02*
X109588628Y-63299999D01*
X110064819Y-63538094D02*
X109064819Y-63538094D01*
X109064819Y-63538094D02*
X109064819Y-63157142D01*
X109064819Y-63157142D02*
X109112438Y-63061904D01*
X109112438Y-63061904D02*
X109160057Y-63014285D01*
X109160057Y-63014285D02*
X109255295Y-62966666D01*
X109255295Y-62966666D02*
X109398152Y-62966666D01*
X109398152Y-62966666D02*
X109493390Y-63014285D01*
X109493390Y-63014285D02*
X109541009Y-63061904D01*
X109541009Y-63061904D02*
X109588628Y-63157142D01*
X109588628Y-63157142D02*
X109588628Y-63538094D01*
X110064819Y-62014285D02*
X110064819Y-62585713D01*
X110064819Y-62299999D02*
X109064819Y-62299999D01*
X109064819Y-62299999D02*
X109207676Y-62395237D01*
X109207676Y-62395237D02*
X109302914Y-62490475D01*
X109302914Y-62490475D02*
X109350533Y-62585713D01*
X96579819Y-110216666D02*
X96103628Y-110549999D01*
X96579819Y-110788094D02*
X95579819Y-110788094D01*
X95579819Y-110788094D02*
X95579819Y-110407142D01*
X95579819Y-110407142D02*
X95627438Y-110311904D01*
X95627438Y-110311904D02*
X95675057Y-110264285D01*
X95675057Y-110264285D02*
X95770295Y-110216666D01*
X95770295Y-110216666D02*
X95913152Y-110216666D01*
X95913152Y-110216666D02*
X96008390Y-110264285D01*
X96008390Y-110264285D02*
X96056009Y-110311904D01*
X96056009Y-110311904D02*
X96103628Y-110407142D01*
X96103628Y-110407142D02*
X96103628Y-110788094D01*
X96579819Y-109740475D02*
X96579819Y-109549999D01*
X96579819Y-109549999D02*
X96532200Y-109454761D01*
X96532200Y-109454761D02*
X96484580Y-109407142D01*
X96484580Y-109407142D02*
X96341723Y-109311904D01*
X96341723Y-109311904D02*
X96151247Y-109264285D01*
X96151247Y-109264285D02*
X95770295Y-109264285D01*
X95770295Y-109264285D02*
X95675057Y-109311904D01*
X95675057Y-109311904D02*
X95627438Y-109359523D01*
X95627438Y-109359523D02*
X95579819Y-109454761D01*
X95579819Y-109454761D02*
X95579819Y-109645237D01*
X95579819Y-109645237D02*
X95627438Y-109740475D01*
X95627438Y-109740475D02*
X95675057Y-109788094D01*
X95675057Y-109788094D02*
X95770295Y-109835713D01*
X95770295Y-109835713D02*
X96008390Y-109835713D01*
X96008390Y-109835713D02*
X96103628Y-109788094D01*
X96103628Y-109788094D02*
X96151247Y-109740475D01*
X96151247Y-109740475D02*
X96198866Y-109645237D01*
X96198866Y-109645237D02*
X96198866Y-109454761D01*
X96198866Y-109454761D02*
X96151247Y-109359523D01*
X96151247Y-109359523D02*
X96103628Y-109311904D01*
X96103628Y-109311904D02*
X96008390Y-109264285D01*
X76744819Y-110342857D02*
X76268628Y-110676190D01*
X76744819Y-110914285D02*
X75744819Y-110914285D01*
X75744819Y-110914285D02*
X75744819Y-110533333D01*
X75744819Y-110533333D02*
X75792438Y-110438095D01*
X75792438Y-110438095D02*
X75840057Y-110390476D01*
X75840057Y-110390476D02*
X75935295Y-110342857D01*
X75935295Y-110342857D02*
X76078152Y-110342857D01*
X76078152Y-110342857D02*
X76173390Y-110390476D01*
X76173390Y-110390476D02*
X76221009Y-110438095D01*
X76221009Y-110438095D02*
X76268628Y-110533333D01*
X76268628Y-110533333D02*
X76268628Y-110914285D01*
X76744819Y-109390476D02*
X76744819Y-109961904D01*
X76744819Y-109676190D02*
X75744819Y-109676190D01*
X75744819Y-109676190D02*
X75887676Y-109771428D01*
X75887676Y-109771428D02*
X75982914Y-109866666D01*
X75982914Y-109866666D02*
X76030533Y-109961904D01*
X75744819Y-108771428D02*
X75744819Y-108676190D01*
X75744819Y-108676190D02*
X75792438Y-108580952D01*
X75792438Y-108580952D02*
X75840057Y-108533333D01*
X75840057Y-108533333D02*
X75935295Y-108485714D01*
X75935295Y-108485714D02*
X76125771Y-108438095D01*
X76125771Y-108438095D02*
X76363866Y-108438095D01*
X76363866Y-108438095D02*
X76554342Y-108485714D01*
X76554342Y-108485714D02*
X76649580Y-108533333D01*
X76649580Y-108533333D02*
X76697200Y-108580952D01*
X76697200Y-108580952D02*
X76744819Y-108676190D01*
X76744819Y-108676190D02*
X76744819Y-108771428D01*
X76744819Y-108771428D02*
X76697200Y-108866666D01*
X76697200Y-108866666D02*
X76649580Y-108914285D01*
X76649580Y-108914285D02*
X76554342Y-108961904D01*
X76554342Y-108961904D02*
X76363866Y-109009523D01*
X76363866Y-109009523D02*
X76125771Y-109009523D01*
X76125771Y-109009523D02*
X75935295Y-108961904D01*
X75935295Y-108961904D02*
X75840057Y-108914285D01*
X75840057Y-108914285D02*
X75792438Y-108866666D01*
X75792438Y-108866666D02*
X75744819Y-108771428D01*
X167604819Y-118943333D02*
X168319104Y-118943333D01*
X168319104Y-118943333D02*
X168461961Y-118990952D01*
X168461961Y-118990952D02*
X168557200Y-119086190D01*
X168557200Y-119086190D02*
X168604819Y-119229047D01*
X168604819Y-119229047D02*
X168604819Y-119324285D01*
X167700057Y-118514761D02*
X167652438Y-118467142D01*
X167652438Y-118467142D02*
X167604819Y-118371904D01*
X167604819Y-118371904D02*
X167604819Y-118133809D01*
X167604819Y-118133809D02*
X167652438Y-118038571D01*
X167652438Y-118038571D02*
X167700057Y-117990952D01*
X167700057Y-117990952D02*
X167795295Y-117943333D01*
X167795295Y-117943333D02*
X167890533Y-117943333D01*
X167890533Y-117943333D02*
X168033390Y-117990952D01*
X168033390Y-117990952D02*
X168604819Y-118562380D01*
X168604819Y-118562380D02*
X168604819Y-117943333D01*
X173074819Y-65938094D02*
X172074819Y-65938094D01*
X172074819Y-65938094D02*
X172074819Y-65699999D01*
X172074819Y-65699999D02*
X172122438Y-65557142D01*
X172122438Y-65557142D02*
X172217676Y-65461904D01*
X172217676Y-65461904D02*
X172312914Y-65414285D01*
X172312914Y-65414285D02*
X172503390Y-65366666D01*
X172503390Y-65366666D02*
X172646247Y-65366666D01*
X172646247Y-65366666D02*
X172836723Y-65414285D01*
X172836723Y-65414285D02*
X172931961Y-65461904D01*
X172931961Y-65461904D02*
X173027200Y-65557142D01*
X173027200Y-65557142D02*
X173074819Y-65699999D01*
X173074819Y-65699999D02*
X173074819Y-65938094D01*
X173074819Y-64414285D02*
X173074819Y-64985713D01*
X173074819Y-64699999D02*
X172074819Y-64699999D01*
X172074819Y-64699999D02*
X172217676Y-64795237D01*
X172217676Y-64795237D02*
X172312914Y-64890475D01*
X172312914Y-64890475D02*
X172360533Y-64985713D01*
X172704819Y-60381904D02*
X171704819Y-60381904D01*
X172704819Y-59810476D02*
X172133390Y-60239047D01*
X171704819Y-59810476D02*
X172276247Y-60381904D01*
D10*
X77361905Y-83333610D02*
X77695238Y-83333610D01*
X77838095Y-83857420D02*
X77361905Y-83857420D01*
X77361905Y-83857420D02*
X77361905Y-82857420D01*
X77361905Y-82857420D02*
X77838095Y-82857420D01*
X78219048Y-83809801D02*
X78361905Y-83857420D01*
X78361905Y-83857420D02*
X78600000Y-83857420D01*
X78600000Y-83857420D02*
X78695238Y-83809801D01*
X78695238Y-83809801D02*
X78742857Y-83762181D01*
X78742857Y-83762181D02*
X78790476Y-83666943D01*
X78790476Y-83666943D02*
X78790476Y-83571705D01*
X78790476Y-83571705D02*
X78742857Y-83476467D01*
X78742857Y-83476467D02*
X78695238Y-83428848D01*
X78695238Y-83428848D02*
X78600000Y-83381229D01*
X78600000Y-83381229D02*
X78409524Y-83333610D01*
X78409524Y-83333610D02*
X78314286Y-83285991D01*
X78314286Y-83285991D02*
X78266667Y-83238372D01*
X78266667Y-83238372D02*
X78219048Y-83143134D01*
X78219048Y-83143134D02*
X78219048Y-83047896D01*
X78219048Y-83047896D02*
X78266667Y-82952658D01*
X78266667Y-82952658D02*
X78314286Y-82905039D01*
X78314286Y-82905039D02*
X78409524Y-82857420D01*
X78409524Y-82857420D02*
X78647619Y-82857420D01*
X78647619Y-82857420D02*
X78790476Y-82905039D01*
X79219048Y-83857420D02*
X79219048Y-82857420D01*
X79219048Y-82857420D02*
X79600000Y-82857420D01*
X79600000Y-82857420D02*
X79695238Y-82905039D01*
X79695238Y-82905039D02*
X79742857Y-82952658D01*
X79742857Y-82952658D02*
X79790476Y-83047896D01*
X79790476Y-83047896D02*
X79790476Y-83190753D01*
X79790476Y-83190753D02*
X79742857Y-83285991D01*
X79742857Y-83285991D02*
X79695238Y-83333610D01*
X79695238Y-83333610D02*
X79600000Y-83381229D01*
X79600000Y-83381229D02*
X79219048Y-83381229D01*
X80219048Y-83476467D02*
X80980953Y-83476467D01*
X81361905Y-82857420D02*
X81980952Y-82857420D01*
X81980952Y-82857420D02*
X81647619Y-83238372D01*
X81647619Y-83238372D02*
X81790476Y-83238372D01*
X81790476Y-83238372D02*
X81885714Y-83285991D01*
X81885714Y-83285991D02*
X81933333Y-83333610D01*
X81933333Y-83333610D02*
X81980952Y-83428848D01*
X81980952Y-83428848D02*
X81980952Y-83666943D01*
X81980952Y-83666943D02*
X81933333Y-83762181D01*
X81933333Y-83762181D02*
X81885714Y-83809801D01*
X81885714Y-83809801D02*
X81790476Y-83857420D01*
X81790476Y-83857420D02*
X81504762Y-83857420D01*
X81504762Y-83857420D02*
X81409524Y-83809801D01*
X81409524Y-83809801D02*
X81361905Y-83762181D01*
X82361905Y-82952658D02*
X82409524Y-82905039D01*
X82409524Y-82905039D02*
X82504762Y-82857420D01*
X82504762Y-82857420D02*
X82742857Y-82857420D01*
X82742857Y-82857420D02*
X82838095Y-82905039D01*
X82838095Y-82905039D02*
X82885714Y-82952658D01*
X82885714Y-82952658D02*
X82933333Y-83047896D01*
X82933333Y-83047896D02*
X82933333Y-83143134D01*
X82933333Y-83143134D02*
X82885714Y-83285991D01*
X82885714Y-83285991D02*
X82314286Y-83857420D01*
X82314286Y-83857420D02*
X82933333Y-83857420D01*
X83361905Y-83857420D02*
X83361905Y-82857420D01*
X83361905Y-82857420D02*
X83600000Y-82857420D01*
X83600000Y-82857420D02*
X83742857Y-82905039D01*
X83742857Y-82905039D02*
X83838095Y-83000277D01*
X83838095Y-83000277D02*
X83885714Y-83095515D01*
X83885714Y-83095515D02*
X83933333Y-83285991D01*
X83933333Y-83285991D02*
X83933333Y-83428848D01*
X83933333Y-83428848D02*
X83885714Y-83619324D01*
X83885714Y-83619324D02*
X83838095Y-83714562D01*
X83838095Y-83714562D02*
X83742857Y-83809801D01*
X83742857Y-83809801D02*
X83600000Y-83857420D01*
X83600000Y-83857420D02*
X83361905Y-83857420D01*
X84885714Y-83857420D02*
X84314286Y-83857420D01*
X84600000Y-83857420D02*
X84600000Y-82857420D01*
X84600000Y-82857420D02*
X84504762Y-83000277D01*
X84504762Y-83000277D02*
X84409524Y-83095515D01*
X84409524Y-83095515D02*
X84314286Y-83143134D01*
D11*
X132634820Y-108923333D02*
X133349105Y-108923333D01*
X133349105Y-108923333D02*
X133491962Y-108970952D01*
X133491962Y-108970952D02*
X133587201Y-109066190D01*
X133587201Y-109066190D02*
X133634820Y-109209047D01*
X133634820Y-109209047D02*
X133634820Y-109304285D01*
X132968153Y-108018571D02*
X133634820Y-108018571D01*
X132587201Y-108256666D02*
X133301486Y-108494761D01*
X133301486Y-108494761D02*
X133301486Y-107875714D01*
X149054819Y-80416666D02*
X148578628Y-80749999D01*
X149054819Y-80988094D02*
X148054819Y-80988094D01*
X148054819Y-80988094D02*
X148054819Y-80607142D01*
X148054819Y-80607142D02*
X148102438Y-80511904D01*
X148102438Y-80511904D02*
X148150057Y-80464285D01*
X148150057Y-80464285D02*
X148245295Y-80416666D01*
X148245295Y-80416666D02*
X148388152Y-80416666D01*
X148388152Y-80416666D02*
X148483390Y-80464285D01*
X148483390Y-80464285D02*
X148531009Y-80511904D01*
X148531009Y-80511904D02*
X148578628Y-80607142D01*
X148578628Y-80607142D02*
X148578628Y-80988094D01*
X148054819Y-79559523D02*
X148054819Y-79749999D01*
X148054819Y-79749999D02*
X148102438Y-79845237D01*
X148102438Y-79845237D02*
X148150057Y-79892856D01*
X148150057Y-79892856D02*
X148292914Y-79988094D01*
X148292914Y-79988094D02*
X148483390Y-80035713D01*
X148483390Y-80035713D02*
X148864342Y-80035713D01*
X148864342Y-80035713D02*
X148959580Y-79988094D01*
X148959580Y-79988094D02*
X149007200Y-79940475D01*
X149007200Y-79940475D02*
X149054819Y-79845237D01*
X149054819Y-79845237D02*
X149054819Y-79654761D01*
X149054819Y-79654761D02*
X149007200Y-79559523D01*
X149007200Y-79559523D02*
X148959580Y-79511904D01*
X148959580Y-79511904D02*
X148864342Y-79464285D01*
X148864342Y-79464285D02*
X148626247Y-79464285D01*
X148626247Y-79464285D02*
X148531009Y-79511904D01*
X148531009Y-79511904D02*
X148483390Y-79559523D01*
X148483390Y-79559523D02*
X148435771Y-79654761D01*
X148435771Y-79654761D02*
X148435771Y-79845237D01*
X148435771Y-79845237D02*
X148483390Y-79940475D01*
X148483390Y-79940475D02*
X148531009Y-79988094D01*
X148531009Y-79988094D02*
X148626247Y-80035713D01*
D12*
%TO.C,C1*%
X157830346Y-80846826D02*
X158113189Y-81129669D01*
X157830346Y-81129669D02*
X158113189Y-80846826D01*
X158809548Y-78898888D02*
X159686360Y-79775700D01*
X158837832Y-78870604D02*
X159714645Y-79747416D01*
X158867531Y-78843733D02*
X159742929Y-79719132D01*
X158896522Y-78816156D02*
X159771213Y-79690847D01*
X158926928Y-78789993D02*
X159799497Y-79662563D01*
X158957333Y-78763830D02*
X159827782Y-79634279D01*
X158989153Y-78739082D02*
X159856066Y-79605995D01*
X159020973Y-78714333D02*
X159884350Y-79577710D01*
X159052793Y-78689584D02*
X159912635Y-79549426D01*
X159086027Y-78666250D02*
X159940919Y-79521142D01*
X159119261Y-78642915D02*
X159969203Y-79492858D01*
X159153202Y-78620288D02*
X159997487Y-79464573D01*
X159187850Y-78598367D02*
X160025772Y-79436289D01*
X159223205Y-78577154D02*
X160054056Y-79408005D01*
X159258561Y-78555941D02*
X160082340Y-79379720D01*
X159295330Y-78536142D02*
X160110624Y-79351436D01*
X159332100Y-78516343D02*
X160138909Y-79323152D01*
X159369577Y-78497251D02*
X160167193Y-79294868D01*
X159407760Y-78478866D02*
X160195477Y-79266583D01*
X159446651Y-78461189D02*
X160223762Y-79238299D01*
X159486249Y-78444218D02*
X160252046Y-79210015D01*
X159526554Y-78427955D02*
X160280330Y-79181731D01*
X159566859Y-78411691D02*
X160308614Y-79153446D01*
X159608579Y-78396842D02*
X160336899Y-79125162D01*
X159651005Y-78382700D02*
X160365183Y-79096878D01*
X159694139Y-78369265D02*
X160393467Y-79068593D01*
X159737979Y-78356537D02*
X160421751Y-79040309D01*
X159782527Y-78344516D02*
X160450036Y-79012025D01*
X159827782Y-78333202D02*
X160478320Y-78983741D01*
X159874451Y-78323303D02*
X160506604Y-78955456D01*
X159921120Y-78313403D02*
X160534889Y-78927172D01*
X159969203Y-78304918D02*
X160563173Y-78898888D01*
X160018701Y-78297847D02*
X160591457Y-78870604D01*
X160068905Y-78291483D02*
X160619741Y-78842319D01*
X160120524Y-78286533D02*
X160648026Y-78814035D01*
X160172850Y-78282291D02*
X160676310Y-78785751D01*
X160226590Y-78279462D02*
X160704594Y-78757466D01*
X160281744Y-78278048D02*
X160732878Y-78729182D01*
X160338313Y-78278048D02*
X160761163Y-78700898D01*
X160396296Y-78279462D02*
X160789447Y-78672614D01*
X160456400Y-78282998D02*
X162367002Y-80193600D01*
X160518625Y-78288655D02*
X162361345Y-80131375D01*
X160582265Y-78295726D02*
X162354274Y-80067735D01*
X160648733Y-78305625D02*
X162344375Y-80001267D01*
X160717322Y-78317646D02*
X162332354Y-79932678D01*
X160789447Y-78333202D02*
X162316798Y-79860553D01*
X160865107Y-78352294D02*
X162297706Y-79784893D01*
X160874300Y-80963640D02*
X161751112Y-81840452D01*
X160902584Y-80935355D02*
X161779396Y-81812168D01*
X160930868Y-80907071D02*
X161806267Y-81782469D01*
X160945010Y-78375629D02*
X162274371Y-79704990D01*
X160959153Y-80878787D02*
X161833844Y-81753478D01*
X160987437Y-80850503D02*
X161860007Y-81723072D01*
X161015721Y-80822218D02*
X161886170Y-81692667D01*
X161030570Y-78404620D02*
X162245380Y-79619430D01*
X161044005Y-80793934D02*
X161910918Y-81660847D01*
X161072290Y-80765650D02*
X161935667Y-81629027D01*
X161100574Y-80737365D02*
X161960416Y-81597207D01*
X161123201Y-78440683D02*
X162209317Y-79526799D01*
X161128858Y-80709081D02*
X161983750Y-81563973D01*
X161157142Y-80680797D02*
X162007085Y-81530739D01*
X161185427Y-80652513D02*
X162029712Y-81496798D01*
X161213711Y-80624228D02*
X162051633Y-81462150D01*
X161225732Y-78486645D02*
X162163355Y-79424268D01*
X161241995Y-80595944D02*
X162072846Y-81426795D01*
X161270280Y-80567660D02*
X162094059Y-81391439D01*
X161298564Y-80539376D02*
X162113858Y-81354670D01*
X161326848Y-80511091D02*
X162133657Y-81317900D01*
X161343112Y-78547456D02*
X162102544Y-79306888D01*
X161355132Y-80482807D02*
X162152749Y-81280423D01*
X161383417Y-80454523D02*
X162171134Y-81242240D01*
X161411701Y-80426238D02*
X162188811Y-81203349D01*
X161439985Y-80397954D02*
X162205782Y-81163751D01*
X161468269Y-80369670D02*
X162222045Y-81123446D01*
X161489483Y-78637258D02*
X162012742Y-79160517D01*
X161496554Y-80341386D02*
X162238309Y-81083141D01*
X161524838Y-80313101D02*
X162253158Y-81041421D01*
X161553122Y-80284817D02*
X162267300Y-80998995D01*
X161581407Y-80256533D02*
X162280735Y-80955861D01*
X161609691Y-80228249D02*
X162293463Y-80912021D01*
X161637975Y-80199964D02*
X162305484Y-80867473D01*
X161666259Y-80171680D02*
X162316798Y-80822218D01*
X161694544Y-80143396D02*
X162326697Y-80775549D01*
X161722828Y-80115111D02*
X162336597Y-80728880D01*
X161751112Y-80086827D02*
X162345082Y-80680797D01*
X161779396Y-80058543D02*
X162352153Y-80631299D01*
X161807681Y-80030259D02*
X162358517Y-80581095D01*
X161835965Y-80001974D02*
X162363467Y-80529476D01*
X161864249Y-79973690D02*
X162367709Y-80477150D01*
X161892534Y-79945406D02*
X162370538Y-80423410D01*
X161920818Y-79917122D02*
X162371952Y-80368256D01*
X161949102Y-79888837D02*
X162371952Y-80311687D01*
X161977386Y-79860553D02*
X162370538Y-80253704D01*
X162400329Y-80369670D02*
G75*
G02*
X158160331Y-80369670I-2119999J0D01*
G01*
X158160331Y-80369670D02*
G75*
G02*
X162400329Y-80369670I2119999J0D01*
G01*
%TO.C,J1*%
X104210001Y-102940000D02*
X104210002Y-101560000D01*
X105590001Y-102939999D02*
X104210001Y-102940000D01*
X106860001Y-100180000D02*
X114590001Y-100180001D01*
X106860001Y-102940000D02*
X106860001Y-100180000D01*
X106860001Y-102940000D02*
X114590001Y-102939999D01*
X114590001Y-102939999D02*
X114590001Y-100180001D01*
%TO.C,J13*%
X139260000Y-48540000D02*
X148460000Y-48540000D01*
X139260000Y-57140000D02*
X139260000Y-48540000D01*
X139260000Y-63040000D02*
X139260000Y-61740000D01*
X141260000Y-63040000D02*
X139260000Y-63040000D01*
X147060000Y-63340000D02*
X148760000Y-63340000D01*
X148460000Y-48540000D02*
X148460000Y-63040000D01*
X148460000Y-63040000D02*
X146460000Y-63040000D01*
X148760000Y-63340000D02*
X148760000Y-62040000D01*
%TO.C,Q2*%
X164977500Y-94519999D02*
X175197500Y-94519999D01*
X164977500Y-99139999D02*
X164977500Y-94519999D01*
X168237500Y-99139999D02*
X168237500Y-97759999D01*
X171937500Y-99139999D02*
X171937500Y-97759999D01*
X175197500Y-94519999D02*
X175197500Y-99140000D01*
X175197500Y-97759999D02*
X164977500Y-97759999D01*
X175197500Y-99140000D02*
X164977500Y-99139999D01*
%TO.C,D2*%
X170087500Y-82970000D02*
X170087500Y-83990000D01*
X170087500Y-90450000D02*
X170087500Y-89430000D01*
X171557500Y-84770000D02*
X168617500Y-84770000D01*
X171557500Y-84890000D02*
X168617500Y-84890000D01*
X171557500Y-85010000D02*
X168617500Y-85010000D01*
X171557500Y-89430000D02*
X168617500Y-89430000D01*
X168617500Y-83990000D01*
X171557500Y-83990000D01*
X171557500Y-89430000D01*
%TO.C,U3*%
X149073268Y-71520101D02*
X152340102Y-68253267D01*
X151364294Y-69229075D02*
X158590926Y-76455706D01*
X152340102Y-68253267D02*
X159566733Y-75479899D01*
X154645270Y-70558436D02*
X153669462Y-71534243D01*
X156299900Y-78746732D02*
X149073268Y-71520101D01*
X157261565Y-73174731D02*
X156285758Y-74150538D01*
X159566733Y-75479899D02*
X156299900Y-78746732D01*
%TO.C,J5*%
X92370000Y-119990000D02*
X92370001Y-118610000D01*
X93750000Y-119989999D02*
X92370000Y-119990000D01*
X95020000Y-117230000D02*
X97670000Y-117230000D01*
X95020000Y-119990000D02*
X95020000Y-117230000D01*
X95020000Y-119990000D02*
X97670000Y-119990000D01*
X97670000Y-119990000D02*
X97670000Y-117230000D01*
%TO.C,J9*%
X127760000Y-119990000D02*
X127760001Y-118610000D01*
X129140000Y-119989999D02*
X127760000Y-119990000D01*
X130410000Y-117230000D02*
X133060000Y-117230000D01*
X130410000Y-119990000D02*
X130410000Y-117230000D01*
X130410000Y-119990000D02*
X133060000Y-119990000D01*
X133060000Y-119990000D02*
X133060000Y-117230000D01*
%TO.C,R11*%
X81340000Y-106430000D02*
X81670000Y-106430000D01*
X81340000Y-112970000D02*
X81340000Y-106430000D01*
X81670000Y-112970000D02*
X81340000Y-112970000D01*
X83750000Y-112970000D02*
X84080000Y-112970000D01*
X84080000Y-106430000D02*
X83750000Y-106430000D01*
X84080000Y-112970000D02*
X84080000Y-106430000D01*
%TO.C,Q1*%
X164977500Y-73099998D02*
X175197500Y-73099998D01*
X164977500Y-77719998D02*
X164977500Y-73099998D01*
X168237500Y-77719998D02*
X168237500Y-76339998D01*
X171937500Y-77719998D02*
X171937500Y-76339998D01*
X175197500Y-73099998D02*
X175197500Y-77719999D01*
X175197500Y-76339998D02*
X164977500Y-76339998D01*
X175197500Y-77719999D02*
X164977500Y-77719998D01*
%TO.C,R4*%
X138362222Y-76980000D02*
X138362222Y-83520000D01*
X138362222Y-83520000D02*
X138692222Y-83520000D01*
X138692222Y-76980000D02*
X138362222Y-76980000D01*
X140772222Y-76980000D02*
X141102222Y-76980000D01*
X141102222Y-76980000D02*
X141102222Y-83520000D01*
X141102222Y-83520000D02*
X140772222Y-83520000D01*
%TO.C,R2*%
X107370000Y-59530000D02*
X107700000Y-59530000D01*
X107370000Y-66070000D02*
X107370000Y-59530000D01*
X107700000Y-66070000D02*
X107370000Y-66070000D01*
X109780000Y-66070000D02*
X110110000Y-66070000D01*
X110110000Y-59530000D02*
X109780000Y-59530000D01*
X110110000Y-66070000D02*
X110110000Y-59530000D01*
%TO.C,C2*%
X144987508Y-68067156D02*
X145270351Y-68349999D01*
X144987508Y-68349999D02*
X145270351Y-68067156D01*
X145966710Y-66119218D02*
X146843522Y-66996030D01*
X145994994Y-66090934D02*
X146871807Y-66967746D01*
X146024693Y-66064063D02*
X146900091Y-66939462D01*
X146053684Y-66036486D02*
X146928375Y-66911177D01*
X146084090Y-66010323D02*
X146956659Y-66882893D01*
X146114495Y-65984160D02*
X146984944Y-66854609D01*
X146146315Y-65959412D02*
X147013228Y-66826325D01*
X146178135Y-65934663D02*
X147041512Y-66798040D01*
X146209955Y-65909914D02*
X147069797Y-66769756D01*
X146243189Y-65886580D02*
X147098081Y-66741472D01*
X146276423Y-65863245D02*
X147126365Y-66713188D01*
X146310364Y-65840618D02*
X147154649Y-66684903D01*
X146345012Y-65818697D02*
X147182934Y-66656619D01*
X146380367Y-65797484D02*
X147211218Y-66628335D01*
X146415723Y-65776271D02*
X147239502Y-66600050D01*
X146452492Y-65756472D02*
X147267786Y-66571766D01*
X146489262Y-65736673D02*
X147296071Y-66543482D01*
X146526739Y-65717581D02*
X147324355Y-66515198D01*
X146564922Y-65699196D02*
X147352639Y-66486913D01*
X146603813Y-65681519D02*
X147380924Y-66458629D01*
X146643411Y-65664548D02*
X147409208Y-66430345D01*
X146683716Y-65648285D02*
X147437492Y-66402061D01*
X146724021Y-65632021D02*
X147465776Y-66373776D01*
X146765741Y-65617172D02*
X147494061Y-66345492D01*
X146808167Y-65603030D02*
X147522345Y-66317208D01*
X146851301Y-65589595D02*
X147550629Y-66288923D01*
X146895141Y-65576867D02*
X147578913Y-66260639D01*
X146939689Y-65564846D02*
X147607198Y-66232355D01*
X146984944Y-65553532D02*
X147635482Y-66204071D01*
X147031613Y-65543633D02*
X147663766Y-66175786D01*
X147078282Y-65533733D02*
X147692051Y-66147502D01*
X147126365Y-65525248D02*
X147720335Y-66119218D01*
X147175863Y-65518177D02*
X147748619Y-66090934D01*
X147226067Y-65511813D02*
X147776903Y-66062649D01*
X147277686Y-65506863D02*
X147805188Y-66034365D01*
X147330012Y-65502621D02*
X147833472Y-66006081D01*
X147383752Y-65499792D02*
X147861756Y-65977796D01*
X147438906Y-65498378D02*
X147890040Y-65949512D01*
X147495475Y-65498378D02*
X147918325Y-65921228D01*
X147553458Y-65499792D02*
X147946609Y-65892944D01*
X147613562Y-65503328D02*
X149524164Y-67413930D01*
X147675787Y-65508985D02*
X149518507Y-67351705D01*
X147739427Y-65516056D02*
X149511436Y-67288065D01*
X147805895Y-65525955D02*
X149501537Y-67221597D01*
X147874484Y-65537976D02*
X149489516Y-67153008D01*
X147946609Y-65553532D02*
X149473960Y-67080883D01*
X148022269Y-65572624D02*
X149454868Y-67005223D01*
X148031462Y-68183970D02*
X148908274Y-69060782D01*
X148059746Y-68155685D02*
X148936558Y-69032498D01*
X148088030Y-68127401D02*
X148963429Y-69002799D01*
X148102172Y-65595959D02*
X149431533Y-66925320D01*
X148116315Y-68099117D02*
X148991006Y-68973808D01*
X148144599Y-68070833D02*
X149017169Y-68943402D01*
X148172883Y-68042548D02*
X149043332Y-68912997D01*
X148187732Y-65624950D02*
X149402542Y-66839760D01*
X148201167Y-68014264D02*
X149068080Y-68881177D01*
X148229452Y-67985980D02*
X149092829Y-68849357D01*
X148257736Y-67957695D02*
X149117578Y-68817537D01*
X148280363Y-65661013D02*
X149366479Y-66747129D01*
X148286020Y-67929411D02*
X149140912Y-68784303D01*
X148314304Y-67901127D02*
X149164247Y-68751069D01*
X148342589Y-67872843D02*
X149186874Y-68717128D01*
X148370873Y-67844558D02*
X149208795Y-68682480D01*
X148382894Y-65706975D02*
X149320517Y-66644598D01*
X148399157Y-67816274D02*
X149230008Y-68647125D01*
X148427442Y-67787990D02*
X149251221Y-68611769D01*
X148455726Y-67759706D02*
X149271020Y-68575000D01*
X148484010Y-67731421D02*
X149290819Y-68538230D01*
X148500274Y-65767786D02*
X149259706Y-66527218D01*
X148512294Y-67703137D02*
X149309911Y-68500753D01*
X148540579Y-67674853D02*
X149328296Y-68462570D01*
X148568863Y-67646568D02*
X149345973Y-68423679D01*
X148597147Y-67618284D02*
X149362944Y-68384081D01*
X148625431Y-67590000D02*
X149379207Y-68343776D01*
X148646645Y-65857588D02*
X149169904Y-66380847D01*
X148653716Y-67561716D02*
X149395471Y-68303471D01*
X148682000Y-67533431D02*
X149410320Y-68261751D01*
X148710284Y-67505147D02*
X149424462Y-68219325D01*
X148738569Y-67476863D02*
X149437897Y-68176191D01*
X148766853Y-67448579D02*
X149450625Y-68132351D01*
X148795137Y-67420294D02*
X149462646Y-68087803D01*
X148823421Y-67392010D02*
X149473960Y-68042548D01*
X148851706Y-67363726D02*
X149483859Y-67995879D01*
X148879990Y-67335441D02*
X149493759Y-67949210D01*
X148908274Y-67307157D02*
X149502244Y-67901127D01*
X148936558Y-67278873D02*
X149509315Y-67851629D01*
X148964843Y-67250589D02*
X149515679Y-67801425D01*
X148993127Y-67222304D02*
X149520629Y-67749806D01*
X149021411Y-67194020D02*
X149524871Y-67697480D01*
X149049696Y-67165736D02*
X149527700Y-67643740D01*
X149077980Y-67137452D02*
X149529114Y-67588586D01*
X149106264Y-67109167D02*
X149529114Y-67532017D01*
X149134548Y-67080883D02*
X149527700Y-67474034D01*
X149557491Y-67590000D02*
G75*
G02*
X145317493Y-67590000I-2119999J0D01*
G01*
X145317493Y-67590000D02*
G75*
G02*
X149557491Y-67590000I2119999J0D01*
G01*
%TO.C,J11*%
X173610000Y-62399999D02*
X180350000Y-62399999D01*
X173610000Y-63719999D02*
X173610000Y-62399999D01*
X173610000Y-68179999D02*
X173610000Y-64319999D01*
X174130000Y-62399999D02*
X174130000Y-68179999D01*
X179230000Y-62399999D02*
X179230000Y-68179999D01*
X180350000Y-62399999D02*
X180350000Y-68179999D01*
X180350000Y-68179999D02*
X173610000Y-68179999D01*
X173610000Y-64019999D02*
X173000000Y-64459999D01*
X173000000Y-63579999D01*
X173610000Y-64019999D01*
G36*
X173610000Y-64019999D02*
G01*
X173000000Y-64459999D01*
X173000000Y-63579999D01*
X173610000Y-64019999D01*
G37*
%TO.C,R5*%
X135113333Y-76980000D02*
X135113333Y-83520000D01*
X135113333Y-83520000D02*
X135443333Y-83520000D01*
X135443333Y-76980000D02*
X135113333Y-76980000D01*
X137523333Y-76980000D02*
X137853333Y-76980000D01*
X137853333Y-76980000D02*
X137853333Y-83520000D01*
X137853333Y-83520000D02*
X137523333Y-83520000D01*
%TO.C,R8*%
X101815000Y-106720000D02*
X101815000Y-113260000D01*
X101815000Y-113260000D02*
X102145000Y-113260000D01*
X102145000Y-106720000D02*
X101815000Y-106720000D01*
X104225000Y-106720000D02*
X104555000Y-106720000D01*
X104555000Y-106720000D02*
X104555000Y-113260000D01*
X104555000Y-113260000D02*
X104225000Y-113260000D01*
%TO.C,R7*%
X141611111Y-76980000D02*
X141611111Y-83520000D01*
X141611111Y-83520000D02*
X141941111Y-83520000D01*
X141941111Y-76980000D02*
X141611111Y-76980000D01*
X144021111Y-76980000D02*
X144351111Y-76980000D01*
X144351111Y-76980000D02*
X144351111Y-83520000D01*
X144351111Y-83520000D02*
X144021111Y-83520000D01*
%TO.C,J3*%
X154640000Y-119990000D02*
X154640001Y-118610000D01*
X156020000Y-119989999D02*
X154640000Y-119990000D01*
X157290000Y-117230000D02*
X165020000Y-117230001D01*
X157290000Y-119990000D02*
X157290000Y-117230000D01*
X157290000Y-119990000D02*
X165020000Y-119989999D01*
X165020000Y-119989999D02*
X165020000Y-117230001D01*
%TO.C,J7*%
X110050000Y-119990000D02*
X110050001Y-118610000D01*
X111430000Y-119989999D02*
X110050000Y-119990000D01*
X112700000Y-117230000D02*
X115350000Y-117230000D01*
X112700000Y-119990000D02*
X112700000Y-117230000D01*
X112700000Y-119990000D02*
X115350000Y-119990000D01*
X115350000Y-119990000D02*
X115350000Y-117230000D01*
%TO.C,R3*%
X110005000Y-106920000D02*
X110005000Y-113460000D01*
X110005000Y-113460000D02*
X110335000Y-113460000D01*
X110335000Y-106920000D02*
X110005000Y-106920000D01*
X112415000Y-106920000D02*
X112745000Y-106920000D01*
X112745000Y-106920000D02*
X112745000Y-113460000D01*
X112745000Y-113460000D02*
X112415000Y-113460000D01*
%TO.C,J12*%
X173610000Y-83820000D02*
X180350000Y-83820000D01*
X173610000Y-85140000D02*
X173610000Y-83820000D01*
X173610000Y-89600000D02*
X173610000Y-85740000D01*
X174130000Y-83820000D02*
X174130000Y-89600000D01*
X179230000Y-83820000D02*
X179230000Y-89600000D01*
X180350000Y-83820000D02*
X180350000Y-89600000D01*
X180350000Y-89600000D02*
X173610000Y-89600000D01*
X173610000Y-85440000D02*
X173000000Y-85880000D01*
X173000000Y-85000000D01*
X173610000Y-85440000D01*
G36*
X173610000Y-85440000D02*
G01*
X173000000Y-85880000D01*
X173000000Y-85000000D01*
X173610000Y-85440000D01*
G37*
%TO.C,U1*%
X115760000Y-57940000D02*
X115760000Y-101380000D01*
X115760000Y-57940000D02*
X120840000Y-57940001D01*
X115760000Y-101380000D02*
X133800000Y-101380000D01*
X118430000Y-60610000D02*
X115760000Y-60610000D01*
X118430000Y-98710000D02*
X115760000Y-98710000D01*
X118430000Y-98710000D02*
X118430000Y-60610000D01*
X120840000Y-65820000D02*
X120840001Y-55400000D01*
X120840001Y-55400000D02*
X128720000Y-55400000D01*
X128720000Y-55400000D02*
X128720000Y-65820001D01*
X128720000Y-65820001D02*
X120840000Y-65820000D01*
X131130000Y-60610000D02*
X133800000Y-60610000D01*
X131130000Y-96170000D02*
X131130000Y-60610000D01*
X131130000Y-96170000D02*
X131130000Y-98710000D01*
X131130000Y-96170000D02*
X133800000Y-96170000D01*
X131130000Y-98710000D02*
X133800000Y-98710000D01*
X133800000Y-57940001D02*
X128720000Y-57940000D01*
X133800000Y-96170000D02*
X133800000Y-57940001D01*
X133800000Y-101380000D02*
X133800000Y-98710000D01*
%TO.C,J6*%
X101670000Y-119990000D02*
X101670001Y-118610000D01*
X103050000Y-119989999D02*
X101670000Y-119990000D01*
X104320000Y-117230000D02*
X106970000Y-117230000D01*
X104320000Y-119990000D02*
X104320000Y-117230000D01*
X104320000Y-119990000D02*
X106970000Y-119990000D01*
X106970000Y-119990000D02*
X106970000Y-117230000D01*
%TO.C,J8*%
X119185000Y-119990000D02*
X119185001Y-118610000D01*
X120565000Y-119989999D02*
X119185000Y-119990000D01*
X121835000Y-117230000D02*
X124485000Y-117230000D01*
X121835000Y-119990000D02*
X121835000Y-117230000D01*
X121835000Y-119990000D02*
X124485000Y-119990000D01*
X124485000Y-119990000D02*
X124485000Y-117230000D01*
%TO.C,R1*%
X110610000Y-59530000D02*
X110940000Y-59530000D01*
X110610000Y-66070000D02*
X110610000Y-59530000D01*
X110940000Y-66070000D02*
X110610000Y-66070000D01*
X113020000Y-66070000D02*
X113350000Y-66070000D01*
X113350000Y-59530000D02*
X113020000Y-59530000D01*
X113350000Y-66070000D02*
X113350000Y-59530000D01*
%TO.C,R9*%
X92385000Y-106780000D02*
X92385000Y-113320000D01*
X92385000Y-113320000D02*
X92715000Y-113320000D01*
X92715000Y-106780000D02*
X92385000Y-106780000D01*
X94795000Y-106780000D02*
X95125000Y-106780000D01*
X95125000Y-106780000D02*
X95125000Y-113320000D01*
X95125000Y-113320000D02*
X94795000Y-113320000D01*
%TO.C,R10*%
X77290000Y-106430000D02*
X77620000Y-106430000D01*
X77290000Y-112970000D02*
X77290000Y-106430000D01*
X77620000Y-112970000D02*
X77290000Y-112970000D01*
X79700000Y-112970000D02*
X80030000Y-112970000D01*
X80030000Y-106430000D02*
X79700000Y-106430000D01*
X80030000Y-112970000D02*
X80030000Y-106430000D01*
%TO.C,J2*%
X169150000Y-119990000D02*
X169150001Y-118610000D01*
X170530000Y-119989999D02*
X169150000Y-119990000D01*
X171800000Y-117230000D02*
X179530000Y-117230001D01*
X171800000Y-119990000D02*
X171800000Y-117230000D01*
X171800000Y-119990000D02*
X179530000Y-119989999D01*
X179530000Y-119989999D02*
X179530000Y-117230001D01*
%TO.C,D1*%
X170150000Y-61460000D02*
X170150000Y-62480000D01*
X170150000Y-68940000D02*
X170150000Y-67920000D01*
X171620000Y-63260000D02*
X168680000Y-63260000D01*
X171620000Y-63380000D02*
X168680000Y-63380000D01*
X171620000Y-63500000D02*
X168680000Y-63500000D01*
X171620000Y-67920000D02*
X168680000Y-67920000D01*
X168680000Y-62480000D01*
X171620000Y-62480000D01*
X171620000Y-67920000D01*
D13*
%TO.C,ESP-32D1*%
X67150000Y-54800000D02*
X67150000Y-103000000D01*
X67150000Y-103000000D02*
X95050000Y-103000000D01*
X77040000Y-54800000D02*
X67150000Y-54800000D01*
X85170000Y-54800000D02*
X77040000Y-54800000D01*
X95050000Y-54800000D02*
X85170000Y-54800000D01*
X95050000Y-103000000D02*
X95050000Y-54800000D01*
D14*
X95770000Y-101870000D02*
G75*
G02*
X95570000Y-101870000I-100000J0D01*
G01*
X95570000Y-101870000D02*
G75*
G02*
X95770000Y-101870000I100000J0D01*
G01*
D12*
%TO.C,J4*%
X134180001Y-109970000D02*
X134180002Y-108590000D01*
X135560001Y-109969999D02*
X134180001Y-109970000D01*
X136830001Y-107210000D02*
X142020001Y-107210000D01*
X136830001Y-109970000D02*
X136830001Y-107210000D01*
X136830001Y-109970000D02*
X142020001Y-109970000D01*
X142020001Y-109970000D02*
X142020001Y-107210000D01*
%TO.C,R6*%
X144860000Y-76980000D02*
X144860000Y-83520000D01*
X144860000Y-83520000D02*
X145190000Y-83520000D01*
X145190000Y-76980000D02*
X144860000Y-76980000D01*
X147270000Y-76980000D02*
X147600000Y-76980000D01*
X147600000Y-76980000D02*
X147600000Y-83520000D01*
X147600000Y-83520000D02*
X147270000Y-83520000D01*
%TD*%
M02*
