%TF.GenerationSoftware,KiCad,Pcbnew,9.0.5*%
%TF.CreationDate,2026-02-03T15:03:22-07:00*%
%TF.ProjectId,Full Hydration Station,46756c6c-2048-4796-9472-6174696f6e20,rev?*%
%TF.SameCoordinates,Original*%
%TF.FileFunction,Soldermask,Top*%
%TF.FilePolarity,Negative*%
%FSLAX46Y46*%
G04 Gerber Fmt 4.6, Leading zero omitted, Abs format (unit mm)*
G04 Created by KiCad (PCBNEW 9.0.5) date 2026-02-03 15:03:22*
%MOMM*%
%LPD*%
G01*
G04 APERTURE LIST*
G04 Aperture macros list*
%AMRoundRect*
0 Rectangle with rounded corners*
0 $1 Rounding radius*
0 $2 $3 $4 $5 $6 $7 $8 $9 X,Y pos of 4 corners*
0 Add a 4 corners polygon primitive as box body*
4,1,4,$2,$3,$4,$5,$6,$7,$8,$9,$2,$3,0*
0 Add four circle primitives for the rounded corners*
1,1,$1+$1,$2,$3*
1,1,$1+$1,$4,$5*
1,1,$1+$1,$6,$7*
1,1,$1+$1,$8,$9*
0 Add four rect primitives between the rounded corners*
20,1,$1+$1,$2,$3,$4,$5,0*
20,1,$1+$1,$4,$5,$6,$7,0*
20,1,$1+$1,$6,$7,$8,$9,0*
20,1,$1+$1,$8,$9,$2,$3,0*%
%AMHorizOval*
0 Thick line with rounded ends*
0 $1 width*
0 $2 $3 position (X,Y) of the first rounded end (center of the circle)*
0 $4 $5 position (X,Y) of the second rounded end (center of the circle)*
0 Add line between two ends*
20,1,$1,$2,$3,$4,$5,0*
0 Add two circle primitives to create the rounded ends*
1,1,$1,$2,$3*
1,1,$1,$4,$5*%
%AMRotRect*
0 Rectangle, with rotation*
0 The origin of the aperture is its center*
0 $1 length*
0 $2 width*
0 $3 Rotation angle, in degrees counterclockwise*
0 Add horizontal line*
21,1,$1,$2,0,0,$3*%
G04 Aperture macros list end*
%ADD10RoundRect,0.250000X0.000000X-0.494975X0.494975X0.000000X0.000000X0.494975X-0.494975X0.000000X0*%
%ADD11C,1.200000*%
%ADD12R,1.700000X1.700000*%
%ADD13C,1.700000*%
%ADD14R,4.600000X2.000000*%
%ADD15O,4.200000X2.000000*%
%ADD16O,2.000000X4.200000*%
%ADD17R,1.905000X2.000000*%
%ADD18O,1.905000X2.000000*%
%ADD19RoundRect,0.249999X-0.850001X0.850001X-0.850001X-0.850001X0.850001X-0.850001X0.850001X0.850001X0*%
%ADD20C,2.200000*%
%ADD21RotRect,1.905000X2.000000X315.000000*%
%ADD22HorizOval,1.905000X-0.033588X-0.033588X0.033588X0.033588X0*%
%ADD23C,1.600000*%
%ADD24RoundRect,0.250001X-0.799999X0.799999X-0.799999X-0.799999X0.799999X-0.799999X0.799999X0.799999X0*%
%ADD25C,2.100000*%
%ADD26R,1.600000X1.600000*%
%ADD27O,1.600000X1.600000*%
%ADD28RoundRect,0.102000X0.765000X0.765000X-0.765000X0.765000X-0.765000X-0.765000X0.765000X-0.765000X0*%
%ADD29C,1.734000*%
G04 APERTURE END LIST*
D10*
%TO.C,C1*%
X159750000Y-80900000D03*
D11*
X160810660Y-79839340D03*
%TD*%
D12*
%TO.C,J1*%
X105590001Y-101560000D03*
D13*
X108130001Y-101560000D03*
X110670000Y-101560000D03*
X113210001Y-101560000D03*
%TD*%
D14*
%TO.C,J13*%
X143860000Y-62340000D03*
D15*
X143860000Y-56040000D03*
D16*
X139060000Y-59440000D03*
%TD*%
D17*
%TO.C,Q2*%
X172627500Y-95879999D03*
D18*
X170087500Y-95879999D03*
X167547501Y-95879999D03*
%TD*%
D19*
%TO.C,D2*%
X170087500Y-81630000D03*
D20*
X170087500Y-91790000D03*
%TD*%
D21*
%TO.C,U3*%
X151852198Y-72375700D03*
D22*
X153648249Y-74171751D03*
X155444300Y-75967802D03*
%TD*%
D12*
%TO.C,J5*%
X93750000Y-118610000D03*
D13*
X96290000Y-118610000D03*
%TD*%
D12*
%TO.C,J9*%
X129140000Y-118610000D03*
D13*
X131680000Y-118610000D03*
%TD*%
D23*
%TO.C,R11*%
X82710000Y-113510000D03*
X82710000Y-105890000D03*
%TD*%
D17*
%TO.C,Q1*%
X172627500Y-74459998D03*
D18*
X170087500Y-74459998D03*
X167547501Y-74459998D03*
%TD*%
D23*
%TO.C,R4*%
X139732222Y-76440000D03*
X139732222Y-84060000D03*
%TD*%
%TO.C,R2*%
X108740000Y-66610000D03*
X108740000Y-58990000D03*
%TD*%
D10*
%TO.C,C2*%
X146907162Y-68120330D03*
D11*
X147967822Y-67059670D03*
%TD*%
D24*
%TO.C,J11*%
X176980000Y-64019999D03*
D25*
X176980000Y-66559999D03*
%TD*%
D23*
%TO.C,R5*%
X136483333Y-76440000D03*
X136483333Y-84060000D03*
%TD*%
%TO.C,R8*%
X103185000Y-106180000D03*
X103185000Y-113800000D03*
%TD*%
%TO.C,R7*%
X142981111Y-76440000D03*
X142981111Y-84060000D03*
%TD*%
D12*
%TO.C,J3*%
X156020000Y-118610000D03*
D13*
X158560000Y-118610000D03*
X161099999Y-118610000D03*
X163640000Y-118610000D03*
%TD*%
D12*
%TO.C,J7*%
X111430000Y-118610000D03*
D13*
X113970000Y-118610000D03*
%TD*%
D23*
%TO.C,R3*%
X111375000Y-106380000D03*
X111375000Y-114000000D03*
%TD*%
D24*
%TO.C,J12*%
X176980000Y-85440000D03*
D25*
X176980000Y-87980000D03*
%TD*%
D26*
%TO.C,U1*%
X132400000Y-97440000D03*
D27*
X132400000Y-94900000D03*
X132400000Y-92360001D03*
X132400000Y-89820000D03*
X132400000Y-87280000D03*
X132400000Y-84740000D03*
X132400000Y-82200000D03*
X132400000Y-79659999D03*
X132400000Y-77120000D03*
X132400000Y-74580000D03*
X132400000Y-72040000D03*
X132400000Y-69500001D03*
X132400000Y-66960000D03*
X132400000Y-64420000D03*
X132400000Y-61880000D03*
X117160000Y-61880000D03*
X117160000Y-64420000D03*
X117160000Y-66960000D03*
X117160000Y-69500000D03*
X117160000Y-72040000D03*
X117160000Y-74580000D03*
X117160000Y-77120000D03*
X117160000Y-79660000D03*
X117160000Y-82200000D03*
X117160000Y-84740000D03*
X117160000Y-87280000D03*
X117160000Y-89820000D03*
X117160000Y-92360000D03*
X117160000Y-94900000D03*
X117160000Y-97440000D03*
%TD*%
D12*
%TO.C,J6*%
X103050000Y-118610000D03*
D13*
X105590000Y-118610000D03*
%TD*%
D12*
%TO.C,J8*%
X120565000Y-118610000D03*
D13*
X123105000Y-118610000D03*
%TD*%
D23*
%TO.C,R1*%
X111980000Y-66610000D03*
X111980000Y-58990000D03*
%TD*%
%TO.C,R9*%
X93755000Y-106240000D03*
X93755000Y-113860000D03*
%TD*%
%TO.C,R10*%
X78660000Y-113510000D03*
X78660000Y-105890000D03*
%TD*%
D12*
%TO.C,J2*%
X170530000Y-118610000D03*
D13*
X173070000Y-118610000D03*
X175609999Y-118610000D03*
X178150000Y-118610000D03*
%TD*%
D19*
%TO.C,D1*%
X170150000Y-60120000D03*
D20*
X170150000Y-70280000D03*
%TD*%
D28*
%TO.C,ESP-32D1*%
X93800000Y-101750000D03*
D29*
X93800000Y-99210000D03*
X93800001Y-96670000D03*
X93800000Y-94129999D03*
X93800000Y-91590000D03*
X93800000Y-89050000D03*
X93800000Y-86510000D03*
X93800001Y-83970000D03*
X93800000Y-81430000D03*
X93800000Y-78890000D03*
X93800000Y-76350000D03*
X93800001Y-73810000D03*
X93800000Y-71269999D03*
X93800000Y-68730000D03*
X93800000Y-66190000D03*
X93800000Y-63650000D03*
X93800001Y-61110000D03*
X93800000Y-58570000D03*
X93800000Y-56030000D03*
X68400000Y-101750000D03*
X68400000Y-99210000D03*
X68399999Y-96670000D03*
X68400000Y-94129999D03*
X68400000Y-91590000D03*
X68400000Y-89050000D03*
X68400000Y-86510000D03*
X68399999Y-83970000D03*
X68400000Y-81430000D03*
X68400000Y-78890000D03*
X68400000Y-76350000D03*
X68399999Y-73810000D03*
X68400000Y-71269999D03*
X68400000Y-68730000D03*
X68400000Y-66190000D03*
X68400000Y-63650000D03*
X68399999Y-61110000D03*
X68400000Y-58570000D03*
X68400000Y-56030000D03*
%TD*%
D12*
%TO.C,J4*%
X135560001Y-108590000D03*
D13*
X138100001Y-108590000D03*
X140640000Y-108590000D03*
%TD*%
D23*
%TO.C,R6*%
X146230000Y-76440000D03*
X146230000Y-84060000D03*
%TD*%
M02*
