M48
; DRILL file {KiCad 9.0.5} date 2026-02-03T15:03:26-0700
; FORMAT={-:-/ absolute / metric / decimal}
; #@! TF.CreationDate,2026-02-03T15:03:26-07:00
; #@! TF.GenerationSoftware,Kicad,Pcbnew,9.0.5
; #@! TF.FileFunction,Plated,1,2,PTH
FMAT,2
METRIC
; #@! TA.AperFunction,Plated,PTH,ComponentDrill
T1C0.600
; #@! TA.AperFunction,Plated,PTH,ComponentDrill
T2C0.800
; #@! TA.AperFunction,Plated,PTH,ComponentDrill
T3C1.000
; #@! TA.AperFunction,Plated,PTH,ComponentDrill
T4C1.020
; #@! TA.AperFunction,Plated,PTH,ComponentDrill
T5C1.100
%
G90
G05
T1
X146.907Y-68.12
X147.968Y-67.06
X159.75Y-80.9
X160.811Y-79.839
T2
X78.66Y-105.89
X78.66Y-113.51
X82.71Y-105.89
X82.71Y-113.51
X93.755Y-106.24
X93.755Y-113.86
X103.185Y-106.18
X103.185Y-113.8
X108.74Y-58.99
X108.74Y-66.61
X111.375Y-106.38
X111.375Y-114.0
X111.98Y-58.99
X111.98Y-66.61
X136.483Y-76.44
X136.483Y-84.06
X139.732Y-76.44
X139.732Y-84.06
X142.981Y-76.44
X142.981Y-84.06
X146.23Y-76.44
X146.23Y-84.06
T3
X93.75Y-118.61
X96.29Y-118.61
X103.05Y-118.61
X105.59Y-118.61
X105.59Y-101.56
X108.13Y-101.56
X110.67Y-101.56
X111.43Y-118.61
X113.21Y-101.56
X113.97Y-118.61
X117.16Y-61.88
X117.16Y-64.42
X117.16Y-66.96
X117.16Y-69.5
X117.16Y-72.04
X117.16Y-74.58
X117.16Y-77.12
X117.16Y-79.66
X117.16Y-82.2
X117.16Y-84.74
X117.16Y-87.28
X117.16Y-89.82
X117.16Y-92.36
X117.16Y-94.9
X117.16Y-97.44
X120.565Y-118.61
X123.105Y-118.61
X129.14Y-118.61
X131.68Y-118.61
X132.4Y-61.88
X132.4Y-64.42
X132.4Y-66.96
X132.4Y-69.5
X132.4Y-72.04
X132.4Y-74.58
X132.4Y-77.12
X132.4Y-79.66
X132.4Y-82.2
X132.4Y-84.74
X132.4Y-87.28
X132.4Y-89.82
X132.4Y-92.36
X132.4Y-94.9
X132.4Y-97.44
X135.56Y-108.59
X138.1Y-108.59
X140.64Y-108.59
X156.02Y-118.61
X158.56Y-118.61
X161.1Y-118.61
X163.64Y-118.61
X170.53Y-118.61
X173.07Y-118.61
X175.61Y-118.61
X178.15Y-118.61
T4
X68.4Y-61.11
X68.4Y-73.81
X68.4Y-83.97
X68.4Y-96.67
X68.4Y-56.03
X68.4Y-58.57
X68.4Y-63.65
X68.4Y-66.19
X68.4Y-68.73
X68.4Y-71.27
X68.4Y-76.35
X68.4Y-78.89
X68.4Y-81.43
X68.4Y-86.51
X68.4Y-89.05
X68.4Y-91.59
X68.4Y-94.13
X68.4Y-99.21
X68.4Y-101.75
X93.8Y-56.03
X93.8Y-58.57
X93.8Y-63.65
X93.8Y-66.19
X93.8Y-68.73
X93.8Y-71.27
X93.8Y-76.35
X93.8Y-78.89
X93.8Y-81.43
X93.8Y-86.51
X93.8Y-89.05
X93.8Y-91.59
X93.8Y-94.13
X93.8Y-99.21
X93.8Y-101.75
X93.8Y-61.11
X93.8Y-73.81
X93.8Y-83.97
X93.8Y-96.67
T5
X151.852Y-72.376
X153.648Y-74.172
X155.444Y-75.968
X167.548Y-74.46
X167.548Y-95.88
X170.088Y-74.46
X170.088Y-81.63
X170.088Y-91.79
X170.088Y-95.88
X170.15Y-60.12
X170.15Y-70.28
X172.627Y-74.46
X172.627Y-95.88
X176.98Y-64.02
X176.98Y-66.56
X176.98Y-85.44
X176.98Y-87.98
T3
G00X139.06Y-60.54
M15
G01X139.06Y-58.34
M16
G05
G00X144.96Y-56.04
M15
G01X142.76Y-56.04
M16
G05
G00X145.16Y-62.34
M15
G01X142.56Y-62.34
M16
G05
M30
